<?xml version="1.0" encoding="UTF-8" standalone="no"?>
<!DOCTYPE svg PUBLIC "-//W3C//DTD SVG 1.1//EN" "http://www.w3.org/Graphics/SVG/1.1/DTD/svg11.dtd">
<svg width="100%" height="100%" viewBox="0 0 1855 1863" version="1.1" xmlns="http://www.w3.org/2000/svg" xmlns:xlink="http://www.w3.org/1999/xlink" xml:space="preserve" xmlns:serif="http://www.serif.com/" style="fill-rule:evenodd;clip-rule:evenodd;stroke-linejoin:round;stroke-miterlimit:2;">
    <g transform="matrix(4.16667,0,0,4.16667,0,0)">
        <path d="M108.803,103.325C89.882,103.325 74.544,87.987 74.544,69.066C74.544,50.146 89.882,34.807 108.803,34.807C127.724,34.807 143.062,50.146 143.062,69.066C143.062,87.987 127.724,103.325 108.803,103.325Z" style="fill:rgb(229,229,228);fill-rule:nonzero;"/>
        <rect x="93.268" y="61.429" width="7.091" height="22.906" style="fill:white;fill-rule:nonzero;"/>
        <path d="M96.779,58.43C99.095,58.43 100.973,56.536 100.973,54.202C100.973,51.869 99.095,49.976 96.779,49.976C94.463,49.976 92.586,51.869 92.586,54.202C92.586,56.536 94.463,58.43 96.779,58.43Z" style="fill:white;fill-rule:nonzero;"/>
        <path d="M111.693,72.311C111.693,69.091 113.175,67.172 116.013,67.172C118.62,67.172 119.873,69.014 119.873,72.311L119.873,84.335L126.93,84.335L126.93,69.832C126.93,63.697 123.452,60.73 118.596,60.73C113.737,60.73 111.693,64.515 111.693,64.515L111.693,61.429L104.891,61.429L104.891,84.335L111.693,84.335L111.693,72.311Z" style="fill:white;fill-rule:nonzero;"/>
        <path d="M154.717,0.84L159.409,9.418L167.986,14.109L159.409,18.801L154.717,27.378L150.026,18.801L141.448,14.109L150.026,9.418L154.717,0.84Z" style="fill:rgb(240,240,240);fill-rule:nonzero;"/>
        <path d="M350.368,233.227L353.885,239.66L360.319,243.178L353.885,246.696L350.368,253.13L346.849,246.696L340.415,243.178L346.849,239.66L350.368,233.227Z" style="fill:rgb(229,229,228);fill-rule:nonzero;"/>
        <path d="M360.319,201.462L361.907,204.364L364.809,205.952L361.907,207.54L360.319,210.442L358.732,207.54L355.828,205.952L358.732,204.364L360.319,201.462Z" style="fill:rgb(215,217,217);fill-rule:nonzero;"/>
        <path d="M121.21,4.067L122.798,6.969L125.7,8.557L122.798,10.144L121.21,13.047L119.623,10.144L116.72,8.557L119.623,6.969L121.21,4.067Z" style="fill:rgb(215,217,217);fill-rule:nonzero;"/>
        <path d="M41.63,273.712C45.209,272.155 47.72,268.411 47.685,264.038C47.634,258.309 43.239,253.7 37.866,253.745C32.496,253.79 28.182,258.472 28.232,264.199C28.271,268.613 30.897,272.336 34.555,273.803C19.617,276.252 20.507,292.51 20.507,292.51L55.901,292.215C55.901,292.215 56.496,275.76 41.63,273.712Z" style="fill:rgb(215,217,217);fill-rule:nonzero;"/>
        <path d="M381.132,380.892C380.631,378.345 378.12,376.354 375.527,376.447C372.956,376.54 370.617,378.67 370.267,381.215C369.895,378.673 367.536,376.564 364.966,376.494C362.371,376.424 359.877,378.437 359.4,380.987C359.051,382.845 359.688,384.778 360.734,386.353C361.78,387.927 363.207,389.202 364.62,390.459C366.597,392.219 368.424,393.874 370.403,395.634C372.365,393.857 374.034,392.187 375.996,390.408C377.397,389.14 378.814,387.852 379.845,386.269C380.876,384.685 381.496,382.746 381.132,380.892Z" style="fill:rgb(229,229,228);fill-rule:nonzero;"/>
        <path d="M404.184,170.104L407.977,169.352L413.966,156.176L412.465,148.605C412.465,148.605 418.255,147.082 419.532,157.132C420.808,167.183 421.054,164.51 421.054,164.51C421.054,164.51 433.511,162.089 434.759,162.966C435.667,163.602 438.459,175.9 439.92,182.579C440.655,185.942 439.206,189.492 436.226,190.913C435.802,191.115 435.365,191.271 434.921,191.359C431.818,191.974 415.454,192.596 415.454,192.596L408.903,193.895L404.184,170.104Z" style="fill:rgb(215,217,217);fill-rule:nonzero;"/>
        <path d="M392.915,170.179L400.392,195.657L406.887,194.369L401.846,168.95L392.915,170.179Z" style="fill:rgb(215,217,217);fill-rule:nonzero;"/>
        <path d="M442.966,446.276C442.966,446.421 343.796,446.537 221.494,446.537C99.147,446.537 0,446.421 0,446.276C0,446.133 99.147,446.017 221.494,446.017C343.796,446.017 442.966,446.133 442.966,446.276Z" style="fill:rgb(12,43,52);fill-rule:nonzero;"/>
        <path d="M365.929,160.104C345.75,169.918 321.435,161.516 311.62,141.337C301.806,121.157 310.208,96.843 330.388,87.028C350.568,77.214 374.882,85.616 384.697,105.795C394.511,125.975 386.109,150.289 365.929,160.104Z" style="fill:rgb(241,91,102);fill-rule:nonzero;"/>
        <path d="M338.118,132.648C338.801,132.604 339.204,132.131 339.063,131.418C338.964,130.925 338.701,129.689 338.598,129.17C338.461,128.462 338.29,128.276 337.564,127.956C335.985,127.259 334.597,126.037 333.541,123.866C330.478,117.567 332.448,109.636 340.007,105.959C346.701,102.704 352.368,105.005 355.025,110.468C358.52,117.655 358.289,125.267 353.568,127.564C350.959,128.832 347.959,127.625 347.298,124.677C346.513,121.154 346.306,117.041 345.197,114.761C344.204,112.721 342.282,111.551 340.015,112.653C337.349,113.95 336.548,117.75 338.345,121.444C339.49,123.796 341.06,125.001 341.06,125.001C341.06,125.001 343.953,137.887 344.459,140.143C345.466,144.637 348.68,149.186 348.992,149.651C349.177,149.928 349.59,149.813 349.654,149.507C349.745,149.066 351.012,143.601 350.185,139.161C349.953,137.903 348.608,131.457 348.608,131.457C350.277,132.688 353.516,132.91 356.206,131.602C364.22,127.704 366.104,117.756 361.348,107.978C357.751,100.585 348.142,96.744 338.623,101.373C326.781,107.133 324.938,118.528 328.382,125.609C330.467,129.896 333.946,132.921 338.118,132.648Z" style="fill:white;fill-rule:nonzero;"/>
        <path d="M406.509,274.709C392.052,269.185 384.811,252.987 390.335,238.53C395.859,224.073 412.057,216.831 426.514,222.356C440.971,227.88 448.212,244.077 442.689,258.534C437.164,272.991 420.966,280.233 406.509,274.709Z" style="fill:rgb(241,91,102);fill-rule:nonzero;"/>
        <path d="M412.42,260.024C410.011,259.103 408.046,257.534 406.643,255.585L401.535,255.296L404.682,251.492C404.005,249.01 404.077,246.307 405.06,243.733C405.206,243.35 405.373,242.975 405.556,242.614C408.411,236.883 415.263,234.153 421.408,236.501C427.631,238.879 430.917,245.618 429.078,251.859C428.989,252.173 428.885,252.481 428.767,252.791C426.288,259.278 418.953,262.52 412.42,260.024ZM431.141,253.29C433.839,245.653 429.929,237.201 422.26,234.271C414.683,231.376 406.239,234.948 403.064,242.267C402.98,242.469 402.895,242.671 402.817,242.875C401.805,245.523 401.601,248.273 402.075,250.874L396.666,257.407L405.422,257.908C407.018,259.789 409.099,261.312 411.568,262.254C419.356,265.23 428.058,261.377 431.011,253.649C431.056,253.529 431.102,253.411 431.141,253.29Z" style="fill:white;"/>
        <path d="M422.296,253.556C422.011,253.251 420.633,251.771 420.359,251.537C420.087,251.297 419.876,251.156 419.515,251.411C419.153,251.666 418.191,252.184 417.907,252.332C417.615,252.485 417.407,252.437 417.122,252.131C416.844,251.828 415.866,251.046 414.995,249.366C414.317,248.071 414.046,246.682 413.979,246.264C413.912,245.845 414.161,245.728 414.398,245.622C414.617,245.524 414.895,245.351 415.149,245.221L415.337,245.104C415.464,245.008 415.569,244.912 415.711,244.777C415.918,244.592 415.935,244.371 415.914,244.167C415.895,243.962 415.847,242.008 415.819,241.21C415.797,240.416 415.461,240.424 415.257,240.346C415.059,240.27 414.84,240.149 414.61,240.061C414.378,239.972 413.969,239.914 413.522,240.136C413.074,240.359 411.866,240.85 411.219,242.539C411.069,242.935 410.99,243.359 410.952,243.776C410.839,245.116 411.211,246.401 411.278,246.623C411.364,246.913 412.214,251.337 415.199,254.059C418.194,256.769 418.368,256.313 419.025,256.496C419.678,256.685 421.386,256.452 421.977,255.756C422.573,255.068 422.834,254.382 422.804,254.204C422.772,254.032 422.573,253.859 422.296,253.556Z" style="fill:white;"/>
        <path d="M42.127,145.194C30.326,145.194 20.759,135.628 20.759,123.826C20.759,112.025 30.326,102.458 42.127,102.458C53.929,102.458 63.496,112.025 63.496,123.826C63.496,135.628 53.929,145.194 42.127,145.194Z" style="fill:rgb(241,91,102);fill-rule:nonzero;"/>
        <path d="M30.743,130.98C32.81,132.305 35.266,133.079 37.903,133.079C46.577,133.079 51.477,125.753 51.182,119.182C52.094,118.524 52.886,117.701 53.513,116.764C52.675,117.135 51.774,117.386 50.83,117.499C51.794,116.922 52.535,116.006 52.883,114.915C51.98,115.45 50.98,115.839 49.917,116.048C49.065,115.141 47.851,114.574 46.507,114.574C43.492,114.574 41.276,117.387 41.956,120.31C38.074,120.115 34.631,118.255 32.328,115.428C31.104,117.528 31.693,120.276 33.774,121.666C33.008,121.642 32.286,121.431 31.657,121.081C31.607,123.246 33.158,125.27 35.404,125.721C34.746,125.901 34.026,125.941 33.295,125.801C33.889,127.657 35.614,129.007 37.659,129.046C35.695,130.585 33.221,131.273 30.743,130.98Z" style="fill:white;fill-rule:nonzero;"/>
        <path d="M80.528,384.568C60.755,389.277 40.908,377.068 36.198,357.294C31.487,337.522 43.698,317.674 63.47,312.964L63.471,312.964C83.243,308.254 103.091,320.464 107.801,340.236C112.512,360.01 100.302,379.857 80.528,384.568Z" style="fill:rgb(51,88,99);fill-rule:nonzero;"/>
        <path d="M67.323,329.136C61.992,330.405 61.329,330.588 59.257,331.182C57.191,331.776 55.843,332.447 54.71,333.23C53.538,334.039 52.604,334.971 51.772,336.321C50.941,337.673 50.531,338.929 50.337,340.339C50.149,341.702 50.157,343.208 50.559,345.32C50.963,347.438 51.1,348.11 52.37,353.443C53.64,358.774 53.821,359.437 54.416,361.508C55.008,363.574 55.681,364.922 56.463,366.055C57.272,367.227 58.204,368.161 59.556,368.993C60.907,369.824 62.162,370.235 63.572,370.429C64.936,370.616 66.442,370.609 68.554,370.206C70.671,369.803 71.345,369.666 76.676,368.396C82.007,367.126 82.67,366.944 84.741,366.35C86.808,365.757 88.155,365.085 89.288,364.302C90.46,363.493 91.395,362.561 92.226,361.21C93.058,359.859 93.468,358.604 93.662,357.193C93.85,355.829 93.842,354.323 93.439,352.211C93.036,350.095 92.899,349.421 91.629,344.09C90.359,338.758 90.177,338.095 89.583,336.024C88.99,333.957 88.318,332.61 87.536,331.477C86.726,330.306 85.794,329.37 84.443,328.539C83.092,327.708 81.837,327.297 80.427,327.104C79.062,326.916 77.557,326.923 75.444,327.325C73.328,327.73 72.654,327.865 67.323,329.136ZM68.165,332.672C73.407,331.424 74.033,331.296 76.125,330.898C78.059,330.528 79.175,330.601 79.932,330.705C80.932,330.843 81.687,331.112 82.538,331.636C83.389,332.159 83.97,332.711 84.544,333.542C84.977,334.171 85.544,335.134 86.088,337.027C86.676,339.074 86.844,339.691 88.093,344.932C89.341,350.173 89.469,350.799 89.868,352.892C90.236,354.826 90.164,355.942 90.06,356.697C89.922,357.699 89.653,358.453 89.129,359.305C88.606,360.155 88.054,360.736 87.223,361.311C86.594,361.744 85.631,362.312 83.738,362.856C81.691,363.443 81.075,363.61 75.833,364.859C70.591,366.108 69.966,366.235 67.874,366.635C65.939,367.003 64.824,366.931 64.068,366.826C63.066,366.689 62.311,366.419 61.46,365.896C60.61,365.372 60.029,364.82 59.454,363.988C59.021,363.36 58.454,362.398 57.91,360.505C57.323,358.457 57.155,357.841 55.906,352.6C54.658,347.359 54.53,346.733 54.131,344.641C53.762,342.705 53.835,341.59 53.938,340.834C54.077,339.833 54.346,339.077 54.869,338.228C55.392,337.376 55.945,336.795 56.777,336.221C57.404,335.787 58.368,335.22 60.261,334.677C62.308,334.089 62.924,333.921 68.165,332.672Z" style="fill:white;fill-rule:nonzero;"/>
        <path d="M73.558,355.31C69.944,356.17 66.317,353.938 65.456,350.324C64.595,346.711 66.827,343.083 70.441,342.223C74.054,341.361 77.682,343.593 78.542,347.207C79.403,350.82 77.172,354.448 73.558,355.31ZM69.598,338.686C64.031,340.012 60.593,345.6 61.919,351.167C63.245,356.735 68.834,360.172 74.401,358.846C79.968,357.52 83.406,351.932 82.079,346.364C80.753,340.797 75.165,337.36 69.598,338.686Z" style="fill:white;fill-rule:nonzero;"/>
        <path d="M82.337,335.23C82.647,336.53 81.844,337.837 80.543,338.147C79.242,338.456 77.935,337.652 77.626,336.352C77.316,335.051 78.119,333.745 79.421,333.435C80.722,333.125 82.027,333.929 82.337,335.23Z" style="fill:white;fill-rule:nonzero;"/>
        <path d="M359.304,352.176C349.825,352.176 342.14,344.491 342.14,335.012C342.14,325.533 349.825,317.849 359.304,317.849C368.783,317.849 376.467,325.533 376.467,335.012C376.467,344.491 368.783,352.176 359.304,352.176Z" style="fill:rgb(51,88,99);fill-rule:nonzero;"/>
        <path d="M356.688,345.387L360.867,345.387L360.867,334.924L363.782,334.924L364.092,331.421L360.867,331.421L360.867,329.426C360.867,328.6 361.033,328.274 361.83,328.274L364.092,328.274L364.092,324.638L361.199,324.638C358.09,324.638 356.688,326.007 356.688,328.628L356.688,331.421L354.515,331.421L354.515,334.968L356.688,334.968L356.688,345.387Z" style="fill:white;fill-rule:nonzero;"/>
        <path d="M300.767,447L162.88,446.918C146.297,446.91 132.859,433.461 132.862,416.877L132.93,71.192C132.933,54.599 146.39,41.152 162.983,41.162L300.87,41.243C317.454,41.253 330.892,54.701 330.888,71.285L330.821,416.971C330.818,433.564 317.361,447.011 300.767,447Z" style="fill:rgb(12,43,52);fill-rule:nonzero;"/>
        <path d="M300.724,53.47L273.991,53.454C270.406,53.452 267.497,56.489 267.497,60.236L267.495,65.086C267.496,68.834 264.588,71.871 261.002,71.868L208.893,71.838C205.308,71.836 202.402,68.795 202.403,65.047L202.404,60.198C202.405,56.45 199.498,53.41 195.913,53.408L186.511,53.402L163.112,53.389C151.492,53.382 142.067,62.799 142.065,74.421L141.999,411.834C141.996,423.449 151.408,432.867 163.022,432.875L300.633,432.955C312.253,432.962 321.678,423.545 321.681,411.924L321.747,74.509C321.749,62.895 312.338,53.477 300.724,53.47Z" style="fill:white;fill-rule:nonzero;"/>
        <path d="M302.738,80.881C302.738,80.972 299.261,81.074 294.973,81.109C290.684,81.145 287.206,81.1 287.205,81.009C287.205,80.919 290.681,80.817 294.97,80.781C299.259,80.746 302.737,80.791 302.738,80.881Z" style="fill:rgb(12,43,52);fill-rule:nonzero;"/>
        <path d="M302.77,84.855C302.771,84.945 299.294,85.047 295.006,85.083C290.716,85.118 287.24,85.074 287.239,84.983C287.238,84.893 290.713,84.791 295.003,84.755C299.291,84.72 302.769,84.764 302.77,84.855Z" style="fill:rgb(12,43,52);fill-rule:nonzero;"/>
        <path d="M302.803,88.829C302.804,88.919 299.328,89.021 295.038,89.057C290.749,89.092 287.272,89.047 287.272,88.957C287.271,88.867 290.746,88.765 295.036,88.729C299.325,88.693 302.802,88.738 302.803,88.829Z" style="fill:rgb(12,43,52);fill-rule:nonzero;"/>
        <path d="M156.516,92.705C156.524,92.697 156.663,92.688 156.923,92.677C157.244,92.667 157.616,92.654 158.055,92.64C159.123,92.614 160.52,92.581 162.234,92.541L162.119,92.658C162.104,91.732 162.087,90.719 162.07,89.628C162.076,89.064 162.021,88.533 162.076,87.883C162.189,87.234 162.767,86.661 163.478,86.594C164.152,86.581 164.745,86.551 165.475,86.585C166.228,86.676 166.869,87.401 166.846,88.198C166.862,89.611 166.879,91.088 166.896,92.619L166.702,92.428C168.395,92.411 170.158,92.393 171.974,92.375L171.774,92.578C171.755,90.455 171.735,88.259 171.715,86.009C171.71,85.448 171.706,84.89 171.701,84.336C171.699,83.82 171.385,83.475 170.96,83.09C170.18,82.321 169.411,81.564 168.655,80.818C167.9,80.074 167.158,79.342 166.432,78.625C166.069,78.266 165.709,77.911 165.354,77.56C164.984,77.203 164.693,76.835 164.264,76.746C163.848,76.634 163.389,76.723 163.054,76.978C162.735,77.247 162.394,77.629 162.073,77.942C161.424,78.597 160.792,79.234 160.181,79.851C158.991,81.087 157.752,82.216 156.85,83.283C156.471,83.873 156.613,84.594 156.585,85.251C156.584,85.904 156.582,86.524 156.581,87.108C156.575,88.247 156.568,89.246 156.563,90.101C156.554,90.865 156.547,91.497 156.541,92.015C156.534,92.457 156.526,92.694 156.516,92.705C156.506,92.714 156.495,92.497 156.48,92.07C156.466,91.561 156.448,90.939 156.427,90.187C156.408,89.324 156.385,88.318 156.359,87.17C156.348,86.574 156.336,85.942 156.324,85.276C156.319,84.939 156.313,84.593 156.308,84.239C156.305,83.865 156.401,83.479 156.599,83.136C157.574,81.941 158.738,80.883 159.937,79.611C160.544,78.989 161.17,78.348 161.814,77.688C162.152,77.356 162.429,77.025 162.831,76.679C163.253,76.356 163.832,76.239 164.36,76.378C164.921,76.502 165.286,76.962 165.626,77.284C165.983,77.633 166.344,77.986 166.708,78.343C167.437,79.058 168.182,79.788 168.938,80.53C169.696,81.274 170.466,82.03 171.248,82.797C171.433,82.994 171.656,83.16 171.837,83.435C172.007,83.698 172.105,84.009 172.113,84.324C172.118,84.881 172.123,85.442 172.128,86.005C172.145,88.255 172.162,90.451 172.178,92.575L172.18,92.777L171.977,92.779C170.161,92.791 168.398,92.802 166.705,92.813L166.512,92.814L166.511,92.622C166.503,91.091 166.495,89.614 166.488,88.201C166.51,87.565 166.015,87.003 165.423,86.921C164.816,86.889 164.101,86.91 163.511,86.916C162.944,86.962 162.471,87.418 162.374,87.941C162.323,88.47 162.362,89.088 162.351,89.625C162.351,90.717 162.352,91.73 162.352,92.656L162.352,92.774L162.236,92.774C160.493,92.762 159.073,92.752 157.987,92.744C157.557,92.737 157.194,92.731 156.881,92.725C156.633,92.719 156.509,92.712 156.516,92.705Z" style="fill:rgb(12,43,52);fill-rule:nonzero;"/>
        <path d="M247.476,356.36C247.476,356.397 246.962,356.431 246.032,356.462C245.003,356.483 243.68,356.511 242.091,356.544C238.765,356.592 234.169,356.62 229.093,356.62C224.016,356.62 219.419,356.592 216.092,356.544C214.504,356.511 213.181,356.483 212.153,356.462C211.223,356.431 210.708,356.397 210.708,356.36C210.708,356.324 211.223,356.29 212.153,356.259C213.181,356.237 214.504,356.209 216.092,356.176C219.419,356.129 224.016,356.1 229.093,356.1C234.169,356.1 238.765,356.129 242.091,356.176C243.68,356.209 245.003,356.237 246.032,356.259C246.962,356.29 247.476,356.324 247.476,356.36Z" style="fill:rgb(51,88,99);fill-rule:nonzero;"/>
        <path d="M305.268,365.405C305.268,365.55 284.098,365.666 257.991,365.666C231.873,365.666 210.708,365.55 210.708,365.405C210.708,365.262 231.873,365.146 257.991,365.146C284.098,365.146 305.268,365.262 305.268,365.405Z" style="fill:rgb(51,88,99);fill-rule:nonzero;"/>
        <path d="M275.718,373.915C275.718,374.06 261.163,374.176 243.214,374.176C225.259,374.176 210.708,374.06 210.708,373.915C210.708,373.772 225.259,373.655 243.214,373.655C261.163,373.655 275.718,373.772 275.718,373.915Z" style="fill:rgb(51,88,99);fill-rule:nonzero;"/>
        <path d="M304.2,387.166L304.291,387.258L306.878,389.853L306.89,382.156L301.674,382.148L301.662,389.697L304.2,387.166ZM307.137,390.48L304.2,387.533L301.402,390.322L301.414,381.888L307.15,381.897L307.137,390.48Z" style="fill:rgb(12,43,52);fill-rule:nonzero;"/>
        <path d="M226.482,383.767C225.002,383.778 223.808,384.991 223.82,386.471C223.832,387.949 225.045,389.144 226.525,389.132C226.905,389.128 227.327,388.995 227.817,388.725L227.86,388.7L228.623,389.041L228.451,388.29L228.485,388.252C228.942,387.75 229.191,387.102 229.185,386.428C229.173,384.948 227.96,383.755 226.482,383.767ZM228.906,389.383L227.869,388.92C227.368,389.192 226.928,389.325 226.526,389.329C224.938,389.342 223.636,388.06 223.623,386.473C223.611,384.885 224.892,383.582 226.48,383.569C228.068,383.557 229.37,384.839 229.382,386.426C229.388,387.133 229.134,387.813 228.665,388.346L228.906,389.383Z" style="fill:rgb(12,43,52);fill-rule:nonzero;"/>
        <path d="M232.659,384.2L234.556,385.942L235.569,388.412L237.267,384.163L232.659,384.2ZM235.571,388.938L234.382,386.038L232.154,384.007L237.559,383.964L235.571,388.938Z" style="fill:rgb(12,43,52);fill-rule:nonzero;"/>
        <path d="M234.611,386.046L234.503,385.88L237.451,383.964L237.559,384.129L234.611,386.046Z" style="fill:rgb(12,43,52);fill-rule:nonzero;"/>
        <path d="M220.4,384.613C220.245,383.841 219.481,383.239 218.695,383.271C217.915,383.302 217.207,383.95 217.104,384.723C216.988,383.952 216.27,383.315 215.49,383.296C214.703,383.277 213.948,383.892 213.806,384.666C213.703,385.23 213.898,385.816 214.217,386.292C214.536,386.769 214.971,387.154 215.4,387.534C216.002,388.067 216.558,388.567 217.161,389.098C217.754,388.557 218.259,388.048 218.852,387.506C219.276,387.12 219.704,386.728 220.016,386.246C220.327,385.765 220.513,385.175 220.4,384.613Z" style="fill:rgb(241,91,102);fill-rule:nonzero;"/>
        <path d="M313.159,397.942C313.159,397.942 313.147,397.618 313.141,397.001C313.137,396.374 313.131,395.462 313.122,394.265C313.114,391.852 313.099,388.303 313.08,383.706C313.059,374.516 313.027,361.145 312.987,344.372L313.159,344.544C274.682,344.566 217.25,344.597 153.242,344.633L153.232,344.633L153.493,344.372C153.49,362.989 153.487,381.048 153.484,397.942L153.232,397.69C199.268,397.736 239.214,397.777 267.665,397.807C281.902,397.837 293.259,397.86 301.072,397.877C304.972,397.892 307.985,397.902 310.036,397.909C311.051,397.917 311.826,397.922 312.359,397.926C312.883,397.931 313.159,397.942 313.159,397.942C313.159,397.942 312.905,397.952 312.391,397.957C311.864,397.961 311.099,397.966 310.097,397.974C308.059,397.981 305.064,397.991 301.187,398.006C293.388,398.023 282.05,398.047 267.838,398.076C239.344,398.106 199.338,398.147 153.232,398.193L152.98,398.193L152.98,397.942C152.977,381.048 152.974,362.989 152.972,344.372L152.972,344.111L153.242,344.111C217.25,344.148 274.682,344.179 313.159,344.2L313.33,344.2L313.33,344.372C313.29,361.189 313.258,374.595 313.237,383.81C313.218,388.39 313.203,391.925 313.194,394.329C313.186,395.513 313.18,396.415 313.176,397.035C313.17,397.641 313.159,397.942 313.159,397.942Z" style="fill:rgb(12,43,52);fill-rule:nonzero;"/>
        <path d="M204.182,353.574L203.981,388.99L159.682,388.738L159.883,353.323L204.182,353.574Z" style="fill:rgb(229,229,228);fill-rule:nonzero;"/>
        <path d="M204.182,353.574C204.177,353.579 204.102,353.583 203.96,353.587C203.797,353.589 203.592,353.593 203.332,353.597C202.757,353.6 201.95,353.605 200.913,353.61C198.783,353.613 195.712,353.616 191.83,353.621C184.039,353.605 172.998,353.582 159.882,353.556L160.116,353.324C160.064,363.869 160.005,375.95 159.942,388.736C159.996,388.799 159.456,388.244 159.691,388.479L159.775,388.479L159.871,388.48L161.214,388.487L162.741,388.496C163.757,388.502 164.767,388.508 165.773,388.514C167.785,388.525 169.775,388.538 171.742,388.55C175.675,388.575 179.513,388.6 183.235,388.624C190.676,388.678 197.65,388.729 203.982,388.774L203.764,388.989C203.871,378.355 203.96,369.532 204.022,363.338C204.063,360.258 204.096,357.832 204.119,356.148C204.134,355.334 204.146,354.7 204.154,354.243C204.165,353.81 204.182,353.574 204.182,353.574C204.182,353.574 204.197,353.778 204.202,354.197C204.205,354.645 204.21,355.265 204.216,356.061C204.22,357.734 204.225,360.144 204.231,363.203C204.223,369.431 204.211,378.3 204.197,388.991L204.197,389.208L203.979,389.207C197.648,389.181 190.674,389.152 183.232,389.121C179.511,389.103 175.672,389.084 171.739,389.065C169.772,389.054 167.781,389.044 165.77,389.033C164.765,389.027 163.753,389.022 162.738,389.017L161.211,389.008L160.444,389.003L160.06,389.001L159.869,389L159.772,389L159.724,388.999L159.688,388.999C159.916,389.233 159.363,388.683 159.421,388.733C159.504,375.947 159.582,363.866 159.65,353.321L159.651,353.088L159.884,353.09C173.062,353.213 184.155,353.316 191.983,353.389C195.842,353.438 198.895,353.476 201.013,353.502C202.029,353.52 202.821,353.533 203.385,353.543C203.634,353.55 203.831,353.556 203.987,353.56C204.12,353.566 204.186,353.57 204.182,353.574Z" style="fill:rgb(12,43,52);fill-rule:nonzero;"/>
        <path d="M161.222,386.518L202.408,386.752L202.584,355.795L161.397,355.561L161.222,386.518Z" style="fill:rgb(215,217,217);fill-rule:nonzero;"/>
        <path d="M161.222,386.518L175.716,367.358L184.559,379.446L190.64,373.045L202.408,386.752L161.222,386.518Z" style="fill:rgb(240,240,240);fill-rule:nonzero;"/>
        <path d="M188.424,365.072C188.413,366.863 186.953,368.307 185.162,368.297C183.371,368.286 181.928,366.826 181.937,365.035C181.948,363.244 183.408,361.801 185.199,361.811C186.99,361.821 188.433,363.281 188.424,365.072Z" style="fill:rgb(240,240,240);fill-rule:nonzero;"/>
        <path d="M234.584,123.826C234.584,123.844 234.421,123.862 234.111,123.879C233.74,123.892 233.292,123.908 232.754,123.927C231.494,123.948 229.809,123.976 227.766,124.01C223.553,124.057 217.733,124.087 211.306,124.087C204.875,124.087 199.055,124.057 194.842,124.01C192.799,123.976 191.115,123.948 189.853,123.927C189.315,123.908 188.868,123.892 188.497,123.879C188.187,123.862 188.024,123.844 188.024,123.826C188.024,123.808 188.187,123.791 188.497,123.774C188.868,123.76 189.315,123.744 189.853,123.725C191.115,123.704 192.799,123.676 194.842,123.642C199.055,123.595 204.875,123.566 211.306,123.566C217.733,123.566 223.553,123.595 227.766,123.642C229.809,123.676 231.494,123.704 232.754,123.725C233.292,123.744 233.741,123.76 234.111,123.774C234.421,123.791 234.584,123.808 234.584,123.826Z" style="fill:rgb(12,43,52);fill-rule:nonzero;"/>
        <path d="M295.664,314.683L295.801,314.818L299.645,318.675L299.662,307.236L291.911,307.225L291.893,318.443L295.664,314.683ZM300.029,319.607L295.663,315.228L291.506,319.373L291.526,306.838L300.048,306.852L300.029,319.607Z" style="fill:rgb(12,43,52);fill-rule:nonzero;"/>
        <path d="M184.4,307.234C181.488,307.257 179.139,309.645 179.162,312.556C179.185,315.468 181.573,317.817 184.485,317.794C185.232,317.787 186.064,317.525 187.028,316.992L187.112,316.944L188.616,317.616L188.275,316.138L188.344,316.063C189.244,315.074 189.733,313.798 189.722,312.472C189.699,309.56 187.311,307.211 184.4,307.234ZM189.171,318.288L187.13,317.378C186.144,317.912 185.279,318.175 184.488,318.182C181.362,318.207 178.799,315.685 178.774,312.56C178.749,309.435 181.271,306.871 184.397,306.846C187.522,306.82 190.085,309.343 190.11,312.468C190.121,313.86 189.621,315.197 188.7,316.248L189.171,318.288Z" style="fill:rgb(12,43,52);fill-rule:nonzero;"/>
        <path d="M196.558,308.087L200.294,311.516L202.286,316.378L205.629,308.015L196.558,308.087ZM202.29,317.412L199.952,311.704L195.565,307.707L206.204,307.621L202.29,317.412Z" style="fill:rgb(12,43,52);fill-rule:nonzero;"/>
        <path d="M200.402,311.72L200.19,311.394L205.992,307.621L206.204,307.947L200.402,311.72Z" style="fill:rgb(12,43,52);fill-rule:nonzero;"/>
        <path d="M172.43,308.9C172.125,307.379 170.621,306.195 169.072,306.257C167.537,306.317 166.144,307.595 165.941,309.116C165.714,307.599 164.3,306.344 162.765,306.308C161.215,306.272 159.73,307.479 159.45,309.003C159.245,310.113 159.63,311.268 160.258,312.205C160.886,313.144 161.742,313.901 162.588,314.65C163.773,315.696 164.868,316.681 166.053,317.728C167.221,316.662 168.215,315.66 169.383,314.595C170.217,313.834 171.06,313.062 171.673,312.113C172.286,311.165 172.652,310.006 172.43,308.9Z" style="fill:rgb(241,91,102);fill-rule:nonzero;"/>
        <path d="M178.677,123.826C178.677,127.812 175.446,131.043 171.46,131.043C167.474,131.043 164.244,127.812 164.244,123.826C164.244,119.841 167.474,116.61 171.46,116.61C175.446,116.61 178.677,119.841 178.677,123.826Z" style="fill:rgb(229,229,228);fill-rule:nonzero;"/>
        <path d="M297.304,278.209C297.304,278.353 267.043,278.469 229.725,278.469C192.393,278.469 162.14,278.353 162.14,278.209C162.14,278.065 192.393,277.948 229.725,277.948C267.043,277.948 297.304,278.065 297.304,278.209Z" style="fill:rgb(51,88,99);fill-rule:nonzero;"/>
        <path d="M297.304,266.953C297.304,267.097 267.043,267.214 229.725,267.214C192.393,267.214 162.14,267.097 162.14,266.953C162.14,266.81 192.393,266.693 229.725,266.693C267.043,266.693 297.304,266.81 297.304,266.953Z" style="fill:rgb(51,88,99);fill-rule:nonzero;"/>
        <path d="M235.71,289.614C235.71,289.758 219.24,289.875 198.927,289.875C178.607,289.875 162.14,289.758 162.14,289.614C162.14,289.471 178.607,289.354 198.927,289.354C219.24,289.354 235.71,289.471 235.71,289.614Z" style="fill:rgb(51,88,99);fill-rule:nonzero;"/>
        <path d="M226.632,412.244C226.625,413.853 225.333,415.15 223.748,415.144C222.162,415.136 220.882,413.825 220.889,412.217C220.896,410.608 222.187,409.309 223.773,409.317C225.359,409.323 226.638,410.634 226.632,412.244Z" style="fill:rgb(12,43,52);fill-rule:nonzero;"/>
        <path d="M235.531,412.284C235.523,413.893 234.232,415.192 232.647,415.185C231.061,415.178 229.781,413.867 229.787,412.258C229.793,410.65 231.085,409.351 232.671,409.358C234.257,409.364 235.536,410.675 235.531,412.284Z" style="fill:rgb(12,43,52);fill-rule:nonzero;"/>
        <path d="M244.428,412.325C244.421,413.934 243.13,415.233 241.544,415.225C239.958,415.219 238.678,413.908 238.685,412.298C238.692,410.69 239.983,409.392 241.569,409.399C243.155,409.405 244.435,410.716 244.428,412.325Z" style="fill:rgb(12,43,52);fill-rule:nonzero;"/>
        <path d="M154.204,235.935L314.132,235.888L314.103,138.085L154.176,138.131L154.204,235.935Z" style="fill:rgb(215,217,217);fill-rule:nonzero;"/>
        <path d="M168.954,235.929L214.782,174.591L243.193,212.95L262.449,192.434L300.214,235.891L168.954,235.929Z" style="fill:rgb(240,240,240);fill-rule:nonzero;"/>
        <path d="M255.235,167.067C255.236,172.775 250.611,177.403 244.903,177.405C239.194,177.407 234.566,172.781 234.564,167.073C234.563,161.365 239.188,156.736 244.896,156.735C250.605,156.734 255.233,161.359 255.235,167.067Z" style="fill:rgb(240,240,240);fill-rule:nonzero;"/>
        <path d="M313.687,326.807C313.685,324.715 313.59,236.362 313.451,105.567L313.687,105.803C265.459,105.811 211.095,105.819 153.779,105.828L153.761,105.828L154.021,105.567C154.003,188.306 153.986,264.878 153.972,326.807L153.761,326.596C250.743,326.724 311.942,326.805 313.687,326.807C311.943,326.81 250.743,326.891 153.761,327.019L153.549,327.02L153.549,326.807C153.535,264.878 153.518,188.306 153.5,105.567L153.5,105.307L153.779,105.307C211.095,105.316 265.459,105.324 313.687,105.331L313.923,105.331L313.923,105.567C313.875,171.029 313.834,226.363 313.806,265.339C313.779,284.8 313.757,300.175 313.743,310.691C313.731,315.936 313.721,319.968 313.714,322.695C313.708,324.048 313.703,325.076 313.701,325.774C313.696,326.463 313.687,326.807 313.687,326.807Z" style="fill:rgb(12,43,52);fill-rule:nonzero;"/>
        <path d="M238.54,354.251L242.077,342.363C242.696,339.785 243.515,336.745 244.618,333.274C245.61,330.155 248.154,326.879 250.474,324.519C254.085,320.846 255.803,320.821 258.23,318.872C258.45,318.73 258.699,318.527 258.907,318.415C259.409,318.143 259.778,317.782 260.087,317.394C262.179,315.131 260.17,311.629 255.921,311.962C252.723,312.213 247.507,313.128 239.026,321.878C238.92,322.011 238.809,322.122 238.704,322.258C234.253,328.044 230.073,311.526 229.319,305.378C228.829,301.389 224.514,298.937 220.61,300.38L199.949,310.044C198.243,309.443 196.217,309.544 193.917,310.248C190.875,311.373 189.186,314.501 189.981,317.536L198.362,350.988L173.749,432.881L226.797,432.881L238.54,354.251Z" style="fill:rgb(249,178,153);fill-rule:nonzero;"/>
        <path d="M279.292,279.038L262.894,311.171L254.696,308.894L213.48,342.419C209.973,345.273 204.831,344.816 201.883,341.389L186.19,323.153C186.19,323.153 217.832,309.524 223.684,298.24C229.536,286.957 222.773,284.399 222.773,284.399L237.665,267.476L279.292,279.038Z" style="fill:rgb(241,91,102);fill-rule:nonzero;"/>
        <path d="M258.023,213.397C258.023,213.397 234.02,208.088 200.241,175.605C166.463,143.123 150.59,99.988 146.456,100.198C146.068,100.218 145.559,100.162 144.925,100.106C138.794,99.567 121.05,99.027 89.931,166.718C55.595,241.409 69.12,258.753 75.953,258.614C82.785,258.474 129.179,245.545 158.158,248.839C187.135,252.133 224.383,267.235 224.383,267.235L258.023,213.397Z" style="fill:rgb(241,91,102);fill-rule:nonzero;"/>
        <path d="M309.017,254.108L300.827,269.679L297.159,276.653C292.128,286.221 280.489,290.175 270.67,285.651L219.221,267.726L249.185,199.322L300.587,226.715C310.453,231.974 314.221,244.213 309.017,254.108Z" style="fill:rgb(241,91,102);fill-rule:nonzero;"/>
        <path d="M279.162,287.52C277.833,287.52 276.496,287.389 275.167,287.121C273.646,286.814 272.138,286.328 270.67,285.651L233.169,272.585L219.221,267.726L249.185,199.322L300.587,226.715C307.447,230.371 311.359,237.403 311.356,244.674C311.355,247.861 310.603,251.093 309.017,254.108L308.117,255.819L301.179,269.01L300.827,269.679L297.159,276.653C293.537,283.541 286.489,287.52 279.162,287.52Z" style="fill:rgb(158,48,60);fill-rule:nonzero;"/>
        <path d="M92.706,168.078C74.432,208.538 66.825,244.593 75.716,248.609C84.605,252.624 106.627,223.078 124.901,182.618C143.174,142.158 150.781,106.103 141.891,102.088C133,98.073 110.98,127.617 92.706,168.078Z" style="fill:rgb(241,91,102);fill-rule:nonzero;"/>
        <path d="M77.488,248.974C76.851,248.974 76.258,248.854 75.716,248.609C73.193,247.469 71.999,243.752 71.999,238.086C72,223.782 79.616,197.06 92.706,168.078C109.865,130.086 130.325,101.722 140.119,101.722C140.755,101.722 141.348,101.842 141.891,102.088C144.413,103.227 145.607,106.944 145.607,112.61C145.606,126.914 137.99,153.636 124.901,182.618C107.742,220.609 87.281,248.977 77.488,248.974Z" style="fill:rgb(129,33,46);fill-rule:nonzero;"/>
        <path d="M313.432,276.607L299.488,272.227L308.117,255.819L318.576,262.321L313.432,276.607Z" style="fill:rgb(241,91,102);fill-rule:nonzero;"/>
        <path d="M302.353,273.127L302.353,273.127ZM309.369,256.597L309.369,256.597Z" style="fill:rgb(93,97,99);fill-rule:nonzero;"/>
        <path d="M302.353,273.127L299.488,272.227L308.117,255.819L309.369,256.597L302.353,273.127Z" style="fill:rgb(101,15,32);fill-rule:nonzero;"/>
        <path d="M298.508,259.604C298.304,260.055 291.344,257.351 282.965,253.562C274.58,249.774 267.953,246.337 268.158,245.887C268.361,245.437 275.319,248.142 283.703,251.93C292.083,255.718 298.711,259.153 298.508,259.604Z" style="fill:rgb(241,91,102);fill-rule:nonzero;"/>
        <path d="M302.797,249.831C302.577,250.276 296.28,247.622 288.73,243.904C281.177,240.184 275.235,236.811 275.454,236.366C275.672,235.923 281.968,238.577 289.521,242.297C297.071,246.016 303.015,249.388 302.797,249.831Z" style="fill:rgb(241,91,102);fill-rule:nonzero;"/>
        <path d="M293.099,269.854C293.025,270.091 291.369,269.709 288.726,268.893C287.407,268.485 285.841,267.969 284.111,267.37C282.391,266.746 280.607,265.844 278.695,264.978C271.065,261.437 265.241,257.969 265.43,257.558C265.656,257.072 271.883,259.843 279.442,263.35C281.337,264.209 283.095,265.155 284.753,265.848C286.418,266.521 287.911,267.149 289.158,267.702C291.652,268.81 293.171,269.617 293.099,269.854Z" style="fill:rgb(241,91,102);fill-rule:nonzero;"/>
        <path d="M129.961,159.08C129.961,159.08 109.098,146.143 97.683,174.33C86.269,202.517 108.22,207.152 108.22,207.152C117.203,193.222 124.5,177.258 129.961,159.08Z" style="fill:rgb(241,91,102);fill-rule:nonzero;"/>
        <path d="M92.389,248.533C92.385,248.533 92.382,248.532 92.379,248.529C92.284,248.45 93.426,246.881 95.573,244.11C97.799,241.287 100.925,237.324 104.763,232.457C106.528,229.871 108.454,227.048 110.521,224.021C111.559,222.508 112.633,220.944 113.739,219.335C114.293,218.531 114.854,217.714 115.424,216.887C115.973,216.047 116.452,215.142 116.979,214.255C119.056,210.682 121.235,206.935 123.493,203.052C124.06,202.081 124.631,201.103 125.207,200.116C125.793,199.135 126.23,198.064 126.757,197.029C127.769,194.942 128.796,192.823 129.835,190.679C130.878,188.537 131.908,186.42 132.923,184.334C133.41,183.282 133.984,182.277 134.39,181.21C134.809,180.148 135.225,179.094 135.638,178.049C137.294,173.875 138.892,169.847 140.416,166.007C140.787,165.044 141.202,164.11 141.524,163.158C141.822,162.198 142.116,161.251 142.407,160.317C142.989,158.45 143.555,156.637 144.103,154.883C145.206,151.385 146.234,148.122 147.178,145.133C148.627,139.12 149.807,134.224 150.649,130.736C151.495,127.357 152.023,125.487 152.148,125.487L152.15,125.487C152.272,125.508 151.975,127.422 151.333,130.872C150.673,134.316 149.74,139.317 148.402,145.455C147.52,148.479 146.556,151.78 145.522,155.319C144.999,157.093 144.457,158.926 143.901,160.813C143.621,161.758 143.337,162.715 143.049,163.685C142.738,164.648 142.331,165.592 141.969,166.565C140.466,170.444 138.89,174.512 137.256,178.727C136.846,179.782 136.432,180.844 136.014,181.917C135.608,182.993 135.034,184.006 134.547,185.067C133.527,187.17 132.494,189.303 131.447,191.461C130.396,193.619 129.358,195.751 128.336,197.853C127.804,198.892 127.36,199.97 126.766,200.956C126.181,201.946 125.601,202.93 125.026,203.905C122.722,207.796 120.498,211.551 118.378,215.131C117.836,216.018 117.346,216.921 116.781,217.761C116.195,218.589 115.618,219.406 115.046,220.211C113.906,221.819 112.797,223.379 111.725,224.889C109.579,227.892 107.576,230.694 105.743,233.26C101.754,238.094 98.409,241.906 96.11,244.554C93.859,247.119 92.545,248.533 92.389,248.533Z" style="fill:rgb(129,33,46);fill-rule:nonzero;"/>
        <path d="M222.442,299.981C223.273,298.861 223.876,297.844 224.318,296.946C224.126,297.364 223.915,297.795 223.684,298.24C223.387,298.812 223.025,299.389 222.604,299.971C222.55,299.973 222.496,299.977 222.442,299.981ZM225.054,295.182C225.653,293.423 225.585,292.436 225.839,292.434C225.84,292.434 225.842,292.433 225.843,292.433C225.681,293.266 225.426,294.18 225.054,295.182Z" style="fill:rgb(144,147,148);fill-rule:nonzero;"/>
        <path d="M198.473,317.233C200.683,316.04 203.475,314.49 206.956,312.491C206.969,312.483 206.982,312.476 206.996,312.468C204.116,314.2 201.188,315.812 198.473,317.233ZM217.414,305.267C219.663,303.327 221.277,301.551 222.442,299.981C222.496,299.977 222.55,299.973 222.604,299.971C221.337,301.719 219.539,303.504 217.414,305.267Z" style="fill:rgb(158,110,93);fill-rule:nonzero;"/>
        <path d="M207.445,335.013C203.876,335.012 200.425,333.162 197.851,330.64C195.035,327.878 193.093,324.369 191.19,320.915C191.19,320.915 193.123,320.121 198.473,317.233C201.188,315.812 204.116,314.2 206.996,312.468C211.474,309.894 214.855,307.474 217.414,305.267C219.539,303.504 221.337,301.719 222.604,299.971C223.025,299.389 223.387,298.812 223.684,298.24C223.915,297.795 224.126,297.364 224.318,296.946C224.64,296.294 224.876,295.704 225.054,295.182C225.426,294.18 225.681,293.266 225.843,292.433C226.406,292.368 226.937,292.338 227.447,292.338C229.842,292.338 231.761,293.004 234.306,293.8C235.413,294.147 236.571,294.639 237.174,295.629C238.202,297.317 237.013,299.648 235.25,300.541C234.151,301.098 232.926,301.255 231.681,301.255C230.93,301.255 230.172,301.198 229.431,301.138C231.06,303.621 232.711,306.151 233.538,309.004C234.367,311.857 234.26,315.131 232.553,317.561C231.365,319.252 229.28,320.346 227.26,320.346C226.378,320.346 225.507,320.137 224.73,319.679C224.542,322.027 224.036,324.481 222.476,326.246C221.476,327.378 219.932,328.099 218.456,328.099C217.628,328.099 216.822,327.872 216.145,327.363C216.103,331.307 212.385,334.567 208.46,334.962C208.121,334.996 207.783,335.013 207.445,335.013Z" style="fill:rgb(158,48,60);fill-rule:nonzero;"/>
        <path d="M236.611,333.15C236.597,333.243 235.254,332.986 233.077,333.045C230.913,333.094 227.889,333.568 224.902,335.001C221.912,336.434 219.648,338.495 218.254,340.151C216.846,341.812 216.206,343.02 216.125,342.972C216.096,342.956 216.225,342.64 216.519,342.097C216.812,341.553 217.289,340.793 217.969,339.919C219.314,338.172 221.601,336.005 224.676,334.532C227.749,333.058 230.87,332.631 233.075,332.677C234.182,332.693 235.074,332.798 235.681,332.91C236.288,333.021 236.617,333.118 236.611,333.15Z" style="fill:rgb(247,149,112);fill-rule:nonzero;"/>
        <path d="M192.505,315.544C195.754,318.665 197.976,322.11 201.384,325.254C202.932,326.682 205.338,329.388 207.413,329.747C209.489,330.108 210.819,329.832 211.64,327.892C212.306,326.32 211.111,324.174 210.286,322.879C208.115,319.474 206.038,316.811 204.412,314.163C203.651,312.923 204.637,312.667 204.996,313.241C206.561,314.862 208.893,316.267 210.294,318.031C212.212,320.448 212.56,323.65 217.578,322.637C218.242,322.503 218.904,322.274 219.442,321.862C221.331,320.417 221.41,317.902 220.615,315.889C219.992,314.311 218.898,312.972 217.821,311.661C219.957,314.073 222.289,316.614 225.685,316.888C227.661,317.047 229.643,316.127 230.442,314.314C231.447,312.032 230.006,309.826 228.56,308.042C225.996,304.88 223.137,301.959 220.031,299.328C218.874,298.35 217.4,297.802 215.885,297.791C214.128,297.78 211.93,298.11 210.844,299.639C208.872,302.413 209.48,304.865 209.48,304.865C209.48,304.865 205.074,302.632 201.534,304.968C197.994,307.305 197.118,311.32 197.118,311.32L192.505,315.544Z" style="fill:rgb(249,178,153);fill-rule:nonzero;"/>
        <path d="M215.95,296.823C214.586,295.45 214.269,292.939 215.327,290.864C216.076,289.396 217.021,287.969 217.98,287.646C222.171,286.232 240.482,289.4 240.315,293.463C240.144,297.637 238.811,299.473 228.873,298.038C227.125,297.785 224.382,297.441 224.382,297.441L221.983,301.041L215.95,296.823Z" style="fill:rgb(249,178,153);fill-rule:nonzero;"/>
        <path d="M219.229,313.841C219.084,313.93 217.69,311.086 214.846,308.537C212.03,305.954 209.064,304.846 209.139,304.692C209.16,304.635 209.925,304.832 211.077,305.376C212.228,305.915 213.747,306.843 215.195,308.151C216.639,309.464 217.71,310.885 218.36,311.978C219.013,313.072 219.285,313.815 219.229,313.841Z" style="fill:rgb(247,149,112);fill-rule:nonzero;"/>
        <path d="M222.31,301.353C222.219,301.439 221.011,300.451 219.361,299.442C218.541,298.938 217.781,298.514 217.212,298.258C216.647,297.992 216.272,297.919 216.273,297.841C216.269,297.775 216.703,297.721 217.339,297.912C217.975,298.093 218.794,298.482 219.636,299C221.326,300.033 222.432,301.243 222.31,301.353Z" style="fill:rgb(247,149,112);fill-rule:nonzero;"/>
        <path d="M225.384,297.575C225.372,297.686 223.778,297.731 221.857,297.178C220.903,296.886 220.098,296.426 219.601,295.995C219.098,295.567 218.889,295.21 218.938,295.167C219.035,295.078 220.172,296.159 222.012,296.68C223.827,297.206 225.411,297.402 225.384,297.575Z" style="fill:rgb(247,149,112);fill-rule:nonzero;"/>
        <path d="M207.588,318.872C207.529,318.914 206.881,318.087 205.918,316.701C204.935,315.348 203.685,313.329 201.644,311.844C199.603,310.357 197.2,310.004 195.59,310.24C193.947,310.469 193.09,311.147 193.039,311.051C193.022,311.027 193.214,310.842 193.623,310.589C194.029,310.33 194.68,310.047 195.531,309.877C197.215,309.53 199.782,309.843 201.948,311.421C204.104,312.997 205.319,315.097 206.225,316.498C207.11,317.938 207.646,318.83 207.588,318.872Z" style="fill:rgb(247,149,112);fill-rule:nonzero;"/>
        <path d="M221.597,359.372C221.612,359.515 218.261,359.997 214.112,360.447C209.962,360.899 206.587,361.149 206.571,361.006C206.556,360.862 209.906,360.381 214.056,359.93C218.204,359.479 221.581,359.23 221.597,359.372Z" style="fill:rgb(247,149,112);fill-rule:nonzero;"/>
        <path d="M379.128,26.798L380.257,28.862L382.322,29.991L380.257,31.12L379.128,33.184L377.999,31.12L375.935,29.991L377.999,28.862L379.128,26.798Z" style="fill:rgb(241,91,102);fill-rule:nonzero;"/>
        <path d="M402.733,77.968L403.862,80.032L405.926,81.161L403.862,82.29L402.733,84.354L401.605,82.29L399.54,81.161L401.605,80.032L402.733,77.968Z" style="fill:rgb(241,91,102);fill-rule:nonzero;"/>
        <path d="M24.4,214.487L25.529,216.551L27.593,217.68L25.529,218.809L24.4,220.873L23.271,218.809L21.207,217.68L23.271,216.551L24.4,214.487Z" style="fill:rgb(241,91,102);fill-rule:nonzero;"/>
        <path d="M348.159,39.516L350.765,44.283L355.532,46.89L350.765,49.496L348.159,54.263L345.552,49.496L340.786,46.89L345.552,44.283L348.159,39.516Z" style="fill:rgb(241,91,102);fill-rule:nonzero;"/>
        <path d="M45.558,182.051L48.159,186.807L52.914,189.408L48.159,192.009L45.558,196.765L42.956,192.009L38.201,189.408L42.956,186.807L45.558,182.051Z" style="fill:rgb(241,91,102);fill-rule:nonzero;"/>
        <path d="M409.155,295.52L411.756,300.275L416.512,302.876L411.756,305.478L409.155,310.233L406.554,305.478L401.797,302.876L406.554,300.275L409.155,295.52Z" style="fill:rgb(241,91,102);fill-rule:nonzero;"/>
    </g>
</svg>
