<?xml version="1.0" encoding="UTF-8" standalone="no"?>
<!DOCTYPE svg PUBLIC "-//W3C//DTD SVG 1.1//EN" "http://www.w3.org/Graphics/SVG/1.1/DTD/svg11.dtd">
<svg width="100%" height="100%" viewBox="0 0 2709 1767" version="1.1" xmlns="http://www.w3.org/2000/svg" xmlns:xlink="http://www.w3.org/1999/xlink" xml:space="preserve" xmlns:serif="http://www.serif.com/" style="fill-rule:evenodd;clip-rule:evenodd;stroke-linejoin:round;stroke-miterlimit:2;">
    <g transform="matrix(4.16667,0,0,4.16667,0,0)">
        <path d="M640.804,286.378C640.804,286.378 634.285,283.561 629.66,298.776C625.035,313.99 623.774,322.514 623.774,322.514C623.774,322.514 622.416,325.771 620.068,324.218C617.721,322.665 614.006,317.736 610.768,319.319C607.409,320.962 606.947,325.118 608.655,330.802C610.363,336.486 613.649,349.075 613.942,350.215C614.23,351.333 613.878,353.119 612.109,352.318C610.34,351.517 599.476,343.033 595.759,348.43C592.042,353.826 599.402,368.878 600.176,370.539C600.949,372.199 600.74,373.005 599.989,373.584C599.238,374.162 595.855,370.967 592.666,368.681C589.477,366.395 585.378,364.303 583.495,367.597C581.611,370.89 582.965,382.926 597.732,400.237L605.099,407.811L615.429,405.374C637.216,398.813 644.869,389.425 645.068,385.637C645.268,381.848 640.69,381.388 636.771,381.584C632.852,381.779 628.276,382.635 627.958,381.741C627.64,380.848 627.9,380.059 629.45,379.08C630.999,378.103 645.336,369.432 645.133,362.883C644.929,356.333 631.201,357.584 629.28,357.3C627.359,357.017 628.03,355.324 628.878,354.539C629.74,353.74 639.318,344.934 643.831,341.079C648.345,337.226 650.206,333.481 648.272,330.281C646.405,327.196 640.614,329.33 637.8,329.365C634.984,329.4 635.606,325.926 635.606,325.926C635.606,325.926 639.16,318.076 643.508,302.78C647.856,287.484 640.668,286.33 640.668,286.33" style="fill:rgb(229,229,228);fill-rule:nonzero;"/>
        <path d="M636.639,299.996C636.639,299.996 636.619,300.109 636.565,300.322C636.505,300.55 636.422,300.864 636.315,301.268C636.082,302.112 635.747,303.332 635.317,304.894C634.447,308.041 633.154,312.587 631.535,318.197C628.301,329.419 623.701,344.883 618.564,361.944C613.425,379.011 608.786,394.463 605.489,405.665C603.85,411.257 602.521,415.786 601.598,418.936C601.14,420.489 600.782,421.701 600.535,422.542C600.413,422.942 600.318,423.252 600.25,423.478C600.184,423.688 600.141,423.793 600.141,423.793C600.141,423.793 600.16,423.681 600.214,423.468C600.274,423.239 600.357,422.926 600.465,422.523C600.697,421.677 601.032,420.458 601.462,418.897C602.332,415.749 603.624,411.204 605.243,405.594C608.478,394.372 613.078,378.906 618.218,361.84C623.355,344.778 627.993,329.328 631.29,318.125C632.93,312.534 634.258,308.004 635.182,304.855C635.64,303.301 635.996,302.089 636.244,301.247C636.366,300.848 636.461,300.537 636.529,300.312C636.596,300.102 636.639,299.996 636.639,299.996Z" style="fill:rgb(215,217,217);fill-rule:nonzero;"/>
        <path d="M615.687,326.425C615.709,326.413 615.848,326.648 616.08,327.08C616.315,327.513 616.634,328.148 617.021,328.936C617.791,330.514 618.797,332.721 619.861,335.178C620.897,337.598 621.833,339.786 622.558,341.479C622.881,342.226 623.156,342.861 623.383,343.383C623.579,343.832 623.677,344.087 623.654,344.098C623.633,344.11 623.491,343.876 623.256,343.444C623.023,343.012 622.703,342.377 622.324,341.584C621.569,339.998 620.593,337.778 619.529,335.322C618.477,332.911 617.525,330.731 616.789,329.043C616.461,328.297 616.183,327.663 615.953,327.142C615.76,326.691 615.664,326.436 615.687,326.425Z" style="fill:rgb(215,217,217);fill-rule:nonzero;"/>
        <path d="M624.643,344.112C624.599,344.023 629.057,341.745 634.599,339.026C640.143,336.306 644.671,334.174 644.715,334.264C644.759,334.354 640.302,336.631 634.758,339.351C629.217,342.07 624.688,344.202 624.643,344.112Z" style="fill:rgb(215,217,217);fill-rule:nonzero;"/>
        <path d="M615.571,369.961C615.567,369.937 615.839,369.874 616.331,369.782C616.901,369.682 617.599,369.559 618.419,369.413C620.182,369.1 622.613,368.659 625.279,368.076C627.947,367.5 630.344,366.897 632.076,366.446C632.884,366.238 633.569,366.063 634.13,365.918C634.616,365.796 634.888,365.74 634.896,365.764C634.902,365.788 634.644,365.89 634.17,366.053C633.695,366.216 633.005,366.439 632.146,366.694C630.427,367.207 628.032,367.853 625.357,368.431C622.682,369.015 620.234,369.417 618.459,369.666C617.57,369.787 616.851,369.876 616.351,369.922C615.852,369.971 615.574,369.986 615.571,369.961Z" style="fill:rgb(215,217,217);fill-rule:nonzero;"/>
        <path d="M603.948,355.745C603.968,355.73 604.15,355.91 604.465,356.251C604.778,356.591 605.224,357.092 605.769,357.715C606.857,358.962 608.343,360.7 609.966,362.634C611.589,364.569 613.043,366.334 614.082,367.622C614.602,368.267 615.017,368.792 615.298,369.16C615.579,369.529 615.725,369.74 615.706,369.756C615.687,369.773 615.504,369.592 615.19,369.251C614.876,368.91 614.431,368.41 613.886,367.787C612.797,366.54 611.312,364.802 609.689,362.867C608.065,360.933 606.611,359.168 605.572,357.88C605.053,357.236 604.638,356.71 604.357,356.341C604.075,355.973 603.93,355.762 603.948,355.745Z" style="fill:rgb(215,217,217);fill-rule:nonzero;"/>
        <path d="M593.04,377.548C593.06,377.531 593.291,377.765 593.692,378.201C594.137,378.697 594.699,379.324 595.369,380.073C596.773,381.663 598.693,383.877 600.798,386.336C602.902,388.796 604.792,391.036 606.147,392.669C606.782,393.447 607.315,394.1 607.735,394.615C608.105,395.079 608.3,395.345 608.28,395.361C608.262,395.377 608.03,395.143 607.629,394.706C607.185,394.211 606.622,393.584 605.952,392.835C604.548,391.245 602.627,389.031 600.523,386.571C598.419,384.112 596.529,381.872 595.175,380.239C594.539,379.461 594.007,378.809 593.586,378.293C593.217,377.828 593.022,377.564 593.04,377.548Z" style="fill:rgb(215,217,217);fill-rule:nonzero;"/>
        <path d="M608.036,394.832C608.032,394.808 608.373,394.72 608.994,394.583C609.683,394.436 610.565,394.247 611.624,394.021C613.845,393.544 616.91,392.877 620.273,392.047C623.638,391.222 626.664,390.397 628.852,389.785C629.895,389.495 630.765,389.254 631.443,389.066C632.057,388.899 632.399,388.818 632.406,388.841C632.414,388.865 632.085,388.991 631.484,389.2C630.884,389.408 630.01,389.695 628.924,390.031C626.752,390.705 623.731,391.571 620.359,392.399C616.989,393.231 613.91,393.86 611.675,394.272C610.556,394.475 609.648,394.63 609.02,394.722C608.391,394.817 608.041,394.857 608.036,394.832Z" style="fill:rgb(215,217,217);fill-rule:nonzero;"/>
        <rect x="207.039" y="326.256" width="130.104" height="60.002" style="fill:rgb(240,240,240);fill-rule:nonzero;"/>
        <path d="M210.826,382.621L333.236,382.621L333.236,330.223L210.826,330.223L210.826,382.621ZM334.046,383.43L210.017,383.43L210.017,329.413L334.046,329.413L334.046,383.43Z" style="fill:rgb(215,217,217);fill-rule:nonzero;"/>
        <rect x="337.143" y="326.256" width="31.783" height="60.002" style="fill:rgb(215,217,217);fill-rule:nonzero;"/>
        <path d="M210.421,346.13L333.641,346.13C333.851,346.13 333.852,345.804 333.641,345.804L210.421,345.804C210.211,345.804 210.211,346.13 210.421,346.13Z" style="fill:rgb(215,217,217);fill-rule:nonzero;"/>
        <path d="M272.434,345.967C272.803,340.641 272.763,334.999 272.476,329.668C272.464,329.455 272.155,329.454 272.144,329.668C271.857,334.999 271.816,340.641 272.186,345.967C272.197,346.126 272.422,346.126 272.434,345.967Z" style="fill:rgb(215,217,217);fill-rule:nonzero;"/>
        <path d="M305.6,337.818C305.6,338.744 304.849,339.496 303.921,339.496C302.994,339.496 302.243,338.744 302.243,337.818C302.243,336.891 302.994,336.139 303.921,336.139C304.849,336.139 305.6,336.891 305.6,337.818Z" style="fill:rgb(215,217,217);fill-rule:nonzero;"/>
        <path d="M240.934,337.818C240.934,338.744 240.183,339.496 239.256,339.496C238.329,339.496 237.577,338.744 237.577,337.818C237.577,336.891 238.329,336.139 239.256,336.139C240.183,336.139 240.934,336.891 240.934,337.818Z" style="fill:rgb(215,217,217);fill-rule:nonzero;"/>
        <path d="M273.71,356.422C273.71,357.349 272.958,358.101 272.031,358.101C271.104,358.101 270.353,357.349 270.353,356.422C270.353,355.494 271.104,354.743 272.031,354.743C272.958,354.743 273.71,355.494 273.71,356.422Z" style="fill:rgb(215,217,217);fill-rule:nonzero;"/>
        <path d="M222.594,386.258L215.896,423.929L219.664,423.929L232.014,386.258L222.594,386.258Z" style="fill:rgb(215,217,217);fill-rule:nonzero;"/>
        <path d="M327.938,386.258L333.539,423.994L329.772,423.994L318.518,386.258L327.938,386.258Z" style="fill:rgb(215,217,217);fill-rule:nonzero;"/>
        <path d="M353.089,386.258L359.436,423.994L355.667,423.994L343.669,386.258L353.089,386.258Z" style="fill:rgb(215,217,217);fill-rule:nonzero;"/>
        <path d="M273.597,373.403C273.597,374.33 272.846,375.082 271.919,375.082C270.991,375.082 270.24,374.33 270.24,373.403C270.24,372.476 270.991,371.725 271.919,371.725C272.846,371.725 273.597,372.476 273.597,373.403Z" style="fill:rgb(215,217,217);fill-rule:nonzero;"/>
        <path d="M210.421,364.711L333.641,364.711C333.851,364.711 333.852,364.384 333.641,364.384L210.421,364.384C210.211,364.384 210.211,364.711 210.421,364.711Z" style="fill:rgb(215,217,217);fill-rule:nonzero;"/>
        <rect x="529.019" y="34.293" width="82.256" height="110.323" style="fill:rgb(229,229,228);fill-rule:nonzero;"/>
        <rect x="533.301" y="38.628" width="73.692" height="101.652" style="fill:rgb(249,249,249);fill-rule:nonzero;"/>
        <rect x="557.181" y="73.791" width="28.134" height="32.147" style="fill:rgb(229,229,228);fill-rule:nonzero;"/>
        <rect x="575.452" y="170.771" width="71.646" height="53.419" style="fill:rgb(229,229,228);fill-rule:nonzero;"/>
        <rect x="578.268" y="173.552" width="66.014" height="47.857" style="fill:rgb(249,249,249);fill-rule:nonzero;"/>
        <rect x="601.103" y="187.63" width="20.878" height="18.271" style="fill:rgb(229,229,228);fill-rule:nonzero;"/>
        <rect x="2.033" y="76.897" width="52.191" height="69.999" style="fill:rgb(229,229,228);fill-rule:nonzero;"/>
        <rect x="4.749" y="79.648" width="46.758" height="64.497" style="fill:rgb(249,249,249);fill-rule:nonzero;"/>
        <rect x="19.901" y="101.958" width="17.851" height="20.397" style="fill:rgb(229,229,228);fill-rule:nonzero;"/>
        <path d="M292.527,292.161L288.969,325.173L334.548,325.173L338.328,292.161L292.527,292.161Z" style="fill:rgb(229,229,228);fill-rule:nonzero;"/>
        <path d="M294.4,294.532L290.94,323.419L332.074,323.419L335.402,294.532L294.4,294.532Z" style="fill:rgb(249,249,249);fill-rule:nonzero;"/>
        <path d="M301.323,299.391L299.193,318.561L325.151,318.561L326.483,299.391L301.323,299.391Z" style="fill:rgb(215,217,217);fill-rule:nonzero;"/>
        <path d="M336.7,306.378L346.114,325.306L334.548,325.173L336.842,305.143" style="fill:rgb(240,240,240);fill-rule:nonzero;"/>
        <path d="M629.261,423.74C629.261,423.884 488.385,424 314.646,424C140.846,424 0,423.884 0,423.74C0,423.596 140.846,423.48 314.646,423.48C488.385,423.48 629.261,423.596 629.261,423.74Z" style="fill:rgb(12,43,52);fill-rule:nonzero;"/>
        <rect x="82.298" y="26.894" width="376.269" height="247.672" style="fill:rgb(229,229,228);fill-rule:nonzero;"/>
        <path d="M458.567,274.566C458.565,272.875 458.486,177.968 458.359,26.894L458.567,27.102C355.241,27.116 224.319,27.134 82.328,27.155L82.298,27.155L82.558,26.894C82.551,115 82.544,198.835 82.537,274.566L82.298,274.327C303.775,274.468 456.426,274.565 458.567,274.566C456.428,274.567 303.775,274.664 82.298,274.805L82.059,274.805L82.059,274.566C82.052,198.835 82.045,115 82.038,26.894L82.038,26.634L82.328,26.634C224.319,26.654 355.241,26.673 458.567,26.687L458.774,26.687L458.774,26.894C458.647,177.968 458.568,272.876 458.567,274.566Z" style="fill:rgb(12,43,52);fill-rule:nonzero;"/>
        <path d="M458.567,48.932C458.567,49.076 374.33,49.192 270.442,49.192C166.518,49.192 82.298,49.076 82.298,48.932C82.298,48.788 166.518,48.672 270.442,48.672C374.33,48.672 458.567,48.788 458.567,48.932Z" style="fill:rgb(12,43,52);fill-rule:nonzero;"/>
        <rect x="117.356" y="85.574" width="315.437" height="43.168" style="fill:rgb(215,217,217);fill-rule:nonzero;"/>
        <rect x="111.961" y="204.241" width="70.03" height="70.03" style="fill:rgb(215,217,217);fill-rule:nonzero;"/>
        <rect x="194.745" y="204.241" width="70.029" height="70.03" style="fill:rgb(215,217,217);fill-rule:nonzero;"/>
        <rect x="275.055" y="204.241" width="70.03" height="70.03" style="fill:rgb(215,217,217);fill-rule:nonzero;"/>
        <path d="M237.184,174.565L161.273,174.565C154.884,174.565 149.705,169.385 149.705,162.996C149.705,156.607 154.884,151.427 161.273,151.427L237.184,151.427C243.573,151.427 248.753,156.607 248.753,162.996C248.753,169.385 243.573,174.565 237.184,174.565Z" style="fill:rgb(241,91,102);fill-rule:nonzero;"/>
        <path d="M325.921,174.565C325.921,174.565 326.272,174.529 326.955,174.486C327.296,174.459 327.714,174.369 328.214,174.295C328.701,174.159 329.283,174.05 329.899,173.792C331.142,173.327 332.619,172.517 334.012,171.153C335.375,169.778 336.626,167.811 337.148,165.332C337.63,162.874 337.373,159.903 335.806,157.248C334.277,154.625 331.443,152.333 327.893,151.755C326.139,151.466 324.25,151.618 322.325,151.584C320.396,151.587 318.406,151.59 316.358,151.593C312.262,151.599 307.933,151.605 303.387,151.611C267.007,151.631 216.769,151.658 161.283,151.688C157.882,151.681 154.556,153.289 152.464,155.914C150.354,158.525 149.519,162.064 150.201,165.304C150.874,168.547 153.031,171.396 155.895,172.948C157.329,173.717 158.921,174.169 160.53,174.27C162.145,174.346 163.814,174.292 165.441,174.309C178.526,174.315 191.148,174.319 203.171,174.324C227.216,174.345 248.87,174.364 267.058,174.381C285.236,174.415 299.947,174.444 310.128,174.463C315.205,174.485 319.149,174.501 321.838,174.512C323.168,174.523 324.185,174.532 324.883,174.538C325.569,174.547 325.921,174.565 325.921,174.565C325.921,174.565 325.569,174.582 324.883,174.591C324.185,174.597 323.168,174.606 321.838,174.617C319.149,174.628 315.205,174.645 310.128,174.666C299.947,174.685 285.236,174.714 267.058,174.749C248.87,174.764 227.216,174.783 203.171,174.804C191.148,174.809 178.526,174.814 165.441,174.819C163.798,174.803 162.178,174.86 160.497,174.782C158.815,174.676 157.148,174.205 155.649,173.401C152.655,171.78 150.398,168.802 149.694,165.409C148.979,162.023 149.852,158.319 152.06,155.588C154.244,152.842 157.728,151.158 161.283,151.167C216.769,151.197 267.007,151.224 303.387,151.243C307.933,151.25 312.262,151.256 316.358,151.262C318.406,151.265 320.396,151.269 322.325,151.272C324.251,151.315 326.125,151.165 327.942,151.468C331.582,152.075 334.472,154.436 336.021,157.123C337.608,159.844 337.854,162.876 337.347,165.373C336.8,167.893 335.514,169.881 334.12,171.263C332.698,172.634 331.195,173.437 329.936,173.89C329.311,174.142 328.723,174.244 328.23,174.373C327.725,174.439 327.303,174.521 326.959,174.539C326.272,174.565 325.921,174.565 325.921,174.565Z" style="fill:rgb(12,43,52);fill-rule:nonzero;"/>
        <path d="M224.645,182.649L225.508,182.649L224.446,187.944L227.728,187.944L227.581,188.695L223.436,188.695L224.645,182.649Z" style="fill:rgb(12,43,52);fill-rule:nonzero;"/>
        <path d="M232.37,186.087C232.37,185.275 231.878,184.799 231.005,184.799C229.978,184.799 229.218,185.603 229.218,186.734C229.218,187.538 229.71,188.021 230.582,188.021C231.619,188.021 232.37,187.218 232.37,186.087ZM228.38,186.769C228.38,185.223 229.503,184.075 231.066,184.075C232.37,184.075 233.208,184.843 233.208,186.044C233.208,187.598 232.094,188.747 230.53,188.747C229.227,188.747 228.38,187.961 228.38,186.769Z" style="fill:rgb(12,43,52);fill-rule:nonzero;"/>
        <path d="M237.849,186.087C237.849,185.275 237.357,184.799 236.484,184.799C235.457,184.799 234.697,185.603 234.697,186.734C234.697,187.538 235.189,188.021 236.061,188.021C237.098,188.021 237.849,187.218 237.849,186.087ZM239.084,184.118L238.177,188.695L237.383,188.695L237.495,188.133C237.089,188.522 236.536,188.747 235.88,188.747C234.714,188.747 233.859,188.004 233.859,186.769C233.859,185.197 234.964,184.075 236.45,184.075C237.236,184.075 237.806,184.359 238.1,184.895L238.255,184.118L239.084,184.118Z" style="fill:rgb(12,43,52);fill-rule:nonzero;"/>
        <path d="M243.734,186.087C243.734,185.275 243.242,184.799 242.369,184.799C241.341,184.799 240.582,185.603 240.582,186.734C240.582,187.538 241.074,188.021 241.946,188.021C242.982,188.021 243.734,187.218 243.734,186.087ZM245.34,182.287L244.062,188.695L243.268,188.695L243.38,188.133C242.974,188.522 242.421,188.747 241.765,188.747C240.599,188.747 239.744,188.004 239.744,186.769C239.744,185.197 240.849,184.075 242.335,184.075C243.121,184.075 243.699,184.359 243.993,184.904L244.511,182.287L245.34,182.287Z" style="fill:rgb(12,43,52);fill-rule:nonzero;"/>
        <path d="M246.683,182.736C246.683,182.417 246.924,182.157 247.278,182.157C247.581,182.157 247.805,182.382 247.805,182.641C247.805,182.995 247.555,183.237 247.201,183.237C246.898,183.237 246.683,183.012 246.683,182.736ZM246.544,184.118L247.374,184.118L246.467,188.695L245.638,188.695L246.544,184.118Z" style="fill:rgb(12,43,52);fill-rule:nonzero;"/>
        <path d="M252.95,185.594C252.95,185.758 252.933,185.94 252.898,186.13L252.389,188.695L251.56,188.695L252.069,186.13C252.095,185.992 252.113,185.862 252.113,185.75C252.113,185.154 251.767,184.817 251.05,184.817C250.161,184.817 249.556,185.293 249.357,186.277L248.874,188.695L248.045,188.695L248.952,184.118L249.746,184.118L249.634,184.705C250.057,184.273 250.636,184.075 251.292,184.075C252.329,184.075 252.95,184.619 252.95,185.594Z" style="fill:rgb(12,43,52);fill-rule:nonzero;"/>
        <path d="M257.963,185.983C257.963,185.249 257.462,184.799 256.597,184.799C255.553,184.799 254.802,185.551 254.802,186.588C254.802,187.331 255.311,187.78 256.165,187.78C257.211,187.78 257.963,187.028 257.963,185.983ZM259.232,184.118L258.446,188.073C258.118,189.731 257.229,190.423 255.709,190.423C254.836,190.423 254.111,190.189 253.619,189.774L254.076,189.135C254.43,189.464 255.052,189.688 255.769,189.688C256.849,189.688 257.393,189.196 257.591,188.203L257.66,187.875C257.246,188.272 256.685,188.505 256.002,188.505C254.793,188.505 253.964,187.797 253.964,186.639C253.964,185.188 255.044,184.075 256.571,184.075C257.324,184.075 257.98,184.351 258.282,184.956L258.446,184.118L259.232,184.118Z" style="fill:rgb(12,43,52);fill-rule:nonzero;"/>
        <path d="M261.937,188.194C261.937,187.823 262.213,187.563 262.55,187.563C262.861,187.563 263.094,187.797 263.094,188.125C263.094,188.497 262.81,188.747 262.49,188.747C262.179,188.747 261.937,188.505 261.937,188.194Z" style="fill:rgb(12,43,52);fill-rule:nonzero;"/>
        <path d="M263.896,188.194C263.896,187.823 264.172,187.563 264.509,187.563C264.82,187.563 265.053,187.797 265.053,188.125C265.053,188.497 264.768,188.747 264.448,188.747C264.137,188.747 263.896,188.505 263.896,188.194Z" style="fill:rgb(12,43,52);fill-rule:nonzero;"/>
        <path d="M265.854,188.194C265.854,187.823 266.13,187.563 266.467,187.563C266.778,187.563 267.011,187.797 267.011,188.125C267.011,188.497 266.727,188.747 266.407,188.747C266.096,188.747 265.854,188.505 265.854,188.194Z" style="fill:rgb(12,43,52);fill-rule:nonzero;"/>
        <path d="M96.671,38.98C96.671,40.503 95.437,41.738 93.914,41.738C92.391,41.738 91.156,40.503 91.156,38.98C91.156,37.457 92.391,36.222 93.914,36.222C95.437,36.222 96.671,37.457 96.671,38.98Z" style="fill:rgb(12,43,52);fill-rule:nonzero;"/>
        <path d="M108.393,38.98C108.393,40.503 107.158,41.738 105.635,41.738C104.112,41.738 102.877,40.503 102.877,38.98C102.877,37.457 104.112,36.222 105.635,36.222C107.158,36.222 108.393,37.457 108.393,38.98Z" style="fill:rgb(12,43,52);fill-rule:nonzero;"/>
        <path d="M120.114,38.98C120.114,40.503 118.879,41.738 117.356,41.738C115.833,41.738 114.598,40.503 114.598,38.98C114.598,37.457 115.833,36.222 117.356,36.222C118.879,36.222 120.114,37.457 120.114,38.98Z" style="fill:rgb(12,43,52);fill-rule:nonzero;"/>
        <path d="M550.673,132.239C550.673,204.768 491.877,263.564 419.349,263.564C346.82,263.564 288.024,204.768 288.024,132.239C288.024,59.711 346.82,0.915 419.349,0.915C491.877,0.915 550.673,59.711 550.673,132.239Z" style="fill:rgb(240,240,240);fill-rule:nonzero;"/>
        <path d="M550.673,132.239C550.673,132.239 550.637,131.518 550.593,130.11C550.571,129.404 550.545,128.529 550.514,127.488C550.488,126.445 550.46,125.234 550.327,123.866C550.219,122.497 550.098,120.965 549.965,119.276C549.793,117.59 549.523,115.755 549.275,113.762C548.716,109.786 547.849,105.23 546.607,100.164C545.27,95.128 543.645,89.546 541.227,83.675C538.856,77.795 535.936,71.523 532.093,65.187C524.502,52.501 513.61,39.225 498.766,27.902C491.375,22.226 482.972,17.131 473.711,12.923C464.456,8.719 454.342,5.343 443.554,3.399C432.786,1.41 421.387,0.626 409.745,1.532C403.917,1.877 398.058,2.823 392.175,3.987C386.305,5.242 380.45,6.925 374.647,8.985C368.883,11.151 363.146,13.62 357.59,16.611C352.057,19.633 346.619,22.995 341.44,26.838C336.281,30.704 331.328,34.954 326.648,39.578C322.025,44.26 317.689,49.308 313.698,54.691C309.689,60.063 306.179,65.866 303.01,71.894C302.257,73.422 301.405,74.905 300.728,76.477C300.023,78.036 299.317,79.597 298.61,81.162C297.345,84.355 296.037,87.546 294.994,90.848C292.844,97.42 291.066,104.186 290.001,111.125C288.907,118.056 288.333,125.112 288.285,132.219C288.333,139.329 288.902,146.387 289.995,153.321C291.061,160.263 292.836,167.032 294.985,173.606L295.816,176.063L296.231,177.289L296.705,178.493C297.338,180.097 297.97,181.698 298.6,183.296C299.308,184.861 300.014,186.423 300.718,187.982C301.394,189.555 302.248,191.039 303.001,192.567C306.169,198.597 309.679,204.403 313.689,209.775C317.68,215.16 322.017,220.21 326.64,224.894C331.321,229.519 336.275,233.77 341.435,237.638C346.615,241.481 352.053,244.844 357.587,247.866C363.144,250.858 368.882,253.328 374.647,255.494C380.451,257.555 386.307,259.237 392.177,260.493C398.061,261.655 403.921,262.603 409.75,262.947C421.393,263.854 432.793,263.068 443.562,261.079C454.35,259.135 464.465,255.756 473.72,251.552C482.98,247.343 491.384,242.247 498.773,236.57C513.617,225.246 524.507,211.97 532.097,199.285C535.939,192.948 538.86,186.677 541.229,180.797C543.646,174.926 545.272,169.346 546.607,164.31C547.85,159.245 548.717,154.689 549.275,150.714C549.523,148.721 549.794,146.886 549.965,145.2C550.099,143.511 550.219,141.98 550.327,140.61C550.46,139.242 550.488,138.032 550.514,136.989C550.545,135.948 550.571,135.073 550.593,134.368C550.637,132.961 550.673,132.239 550.673,132.239C550.673,132.239 550.673,132.961 550.646,134.369C550.632,135.075 550.613,135.95 550.593,136.992C550.576,138.036 550.557,139.247 550.432,140.617C550.331,141.988 550.219,143.522 550.095,145.213C549.932,146.902 549.668,148.739 549.429,150.735C548.886,154.717 548.033,159.282 546.804,164.359C545.481,169.407 543.867,175.002 541.459,180.889C539.1,186.786 536.186,193.076 532.348,199.434C524.765,212.161 513.867,225.489 498.997,236.863C491.593,242.566 483.172,247.686 473.887,251.917C464.608,256.144 454.463,259.542 443.641,261.503C432.838,263.509 421.4,264.305 409.717,263.403C403.867,263.062 397.985,262.115 392.08,260.951C386.188,259.696 380.31,258.01 374.482,255.946C368.696,253.775 362.936,251.298 357.356,248.298C351.8,245.267 346.341,241.893 341.139,238.037C335.958,234.156 330.984,229.892 326.283,225.25C321.641,220.55 317.286,215.483 313.278,210.078C309.251,204.685 305.726,198.857 302.544,192.804C301.788,191.27 300.931,189.78 300.252,188.202C299.544,186.636 298.835,185.068 298.124,183.497C297.491,181.893 296.856,180.286 296.221,178.676L295.745,177.467L295.328,176.236L294.494,173.77C292.335,167.17 290.553,160.373 289.482,153.405C288.384,146.443 287.812,139.357 287.764,132.219C287.813,125.085 288.389,118.001 289.487,111.042C290.557,104.075 292.343,97.282 294.502,90.685C295.55,87.37 296.863,84.166 298.134,80.961C298.844,79.39 299.553,77.822 300.261,76.257C300.941,74.68 301.796,73.19 302.554,71.657C305.735,65.606 309.261,59.781 313.287,54.388C317.294,48.986 321.649,43.92 326.291,39.221C330.991,34.581 335.964,30.317 341.144,26.438C346.345,22.583 351.803,19.211 357.358,16.18C362.938,13.18 368.697,10.704 374.482,8.533C380.31,6.469 386.186,4.784 392.078,3.528C397.983,2.364 403.863,1.418 409.712,1.075C421.395,0.174 432.831,0.969 443.633,2.974C454.455,4.934 464.599,8.331 473.878,12.557C483.163,16.789 491.585,21.908 498.989,27.609C513.861,38.983 524.759,52.31 532.343,65.038C536.182,71.395 539.097,77.687 541.457,83.583C543.866,89.471 545.48,95.067 546.803,100.115C548.032,105.192 548.885,109.757 549.429,113.74C549.668,115.737 549.931,117.574 550.095,119.263C550.219,120.955 550.331,122.489 550.432,123.86C550.557,125.23 550.576,126.441 550.593,127.485C550.613,128.527 550.632,129.403 550.646,130.109C550.673,131.518 550.673,132.239 550.673,132.239Z" style="fill:rgb(12,43,52);fill-rule:nonzero;"/>
        <clipPath id="_clip1">
            <path d="M366.732,178.082C354.817,165.455 347.501,148.444 347.501,129.713C347.501,90.771 379.071,59.201 418.015,59.201C456.958,59.201 488.527,90.771 488.527,129.713C488.527,149.204 480.619,166.846 467.838,179.609L503.317,214.253C525.05,192.667 538.512,162.765 538.512,129.713C538.512,63.902 485.161,10.551 419.349,10.551C353.536,10.551 300.186,63.902 300.186,129.713C300.186,162.21 313.209,191.654 334.302,213.151L366.732,178.082Z"/>
        </clipPath>
        <g clip-path="url(#_clip1)">
            <path d="M366.732,178.082C354.817,165.455 347.501,148.444 347.501,129.713C347.501,90.771 379.071,59.201 418.015,59.201C456.958,59.201 488.527,90.771 488.527,129.713C488.527,149.204 480.619,166.846 467.838,179.609L503.317,214.253C525.05,192.667 538.512,162.765 538.512,129.713C538.512,63.902 485.161,10.551 419.349,10.551C353.536,10.551 300.186,63.902 300.186,129.713C300.186,162.21 313.209,191.654 334.302,213.151L366.732,178.082Z" style="fill:rgb(241,91,102);fill-rule:nonzero;"/>
            <clipPath id="_clip2">
                <path d="M366.732,178.082C354.817,165.455 347.501,148.444 347.501,129.713C347.501,90.771 379.071,59.201 418.015,59.201C456.958,59.201 488.527,90.771 488.527,129.713C488.527,149.204 480.619,166.846 467.838,179.609L503.317,214.253C525.05,192.667 538.512,162.765 538.512,129.713C538.512,63.902 485.161,10.551 419.349,10.551C353.536,10.551 300.186,63.902 300.186,129.713C300.186,162.21 313.209,191.654 334.302,213.151L366.732,178.082Z" clip-rule="nonzero"/>
            </clipPath>
            <g clip-path="url(#_clip2)">
                <path d="M513.518,202.729C513.818,200.863 514.158,198.733 514.655,196.056C517.271,181.971 509.466,170.492 509.466,170.492L509.46,170.508L488.774,131.708L488.769,131.711C488.689,131.434 488.605,131.157 488.518,130.882C488.524,130.493 488.527,130.104 488.527,129.713C488.527,129.509 488.527,129.305 488.525,129.101L538.51,129.101C538.511,129.306 538.512,129.509 538.512,129.713C538.512,157.227 529.182,182.56 513.518,202.729ZM476.524,188.091L467.838,179.609C475.499,171.959 481.408,162.558 484.914,152.055L493.313,172.759L488.444,184.09C485.05,184.774 481.726,185.795 478.535,187.139C477.853,187.427 477.172,187.732 476.524,188.091Z" style="fill:rgb(39,0,8);"/>
                <path d="M488.525,129.101C488.367,110.565 481.056,93.734 469.219,81.235L504.629,46.484C525.46,67.826 538.348,96.958 538.51,129.098L488.525,129.101Z" style="fill:rgb(74,4,17);fill-rule:nonzero;"/>
                <path d="M469.094,81.103C457.064,68.466 440.395,60.287 421.815,59.301C421.812,58.791 421.809,58.265 421.807,57.729L422.111,10.582C454.375,11.317 483.47,24.871 504.502,46.355L469.094,81.103Z" style="fill:rgb(129,33,46);fill-rule:nonzero;"/>
                <path d="M365.736,82.394C356.657,72.711 340.34,55.348 332.911,47.687C354.624,24.815 385.322,10.551 419.349,10.551C420.265,10.551 421.175,10.561 422.086,10.582C421.975,20.591 421.747,43.513 421.807,57.729L421.797,59.302C420.544,59.234 419.284,59.201 418.015,59.201C397.281,59.201 378.639,68.148 365.736,82.394Z" style="fill:rgb(186,61,72);fill-rule:nonzero;"/>
                <path d="M421.807,57.729C421.747,43.513 421.975,20.591 422.086,10.582L422.111,10.582L421.807,57.729Z" style="fill:rgb(88,10,25);fill-rule:nonzero;"/>
                <path d="M314.874,129.389C308.823,129.389 303.602,129.366 300.186,129.305C300.293,97.689 312.712,68.972 332.898,47.7L365.672,82.465C354.472,94.864 347.616,111.258 347.502,129.255C337.312,129.324 324.944,129.389 314.874,129.389Z" style="fill:rgb(240,82,91);fill-rule:nonzero;"/>
            </g>
        </g>
        <path d="M448.048,132.239C448.048,147.351 435.797,159.602 420.686,159.602C405.573,159.602 393.322,147.351 393.322,132.239C393.322,117.127 405.573,104.877 420.686,104.877C435.797,104.877 448.048,117.127 448.048,132.239Z" style="fill:rgb(215,217,217);fill-rule:nonzero;"/>
        <path d="M412.626,134.066C413.822,138.162 418.1,140.527 422.204,139.361L517.357,112.353L419.154,124.175C414.391,124.748 411.281,129.461 412.626,134.066Z" style="fill:rgb(51,88,99);fill-rule:nonzero;"/>
        <path d="M406.075,191.419L400.84,217.973L393.898,217.973L396.63,203.976L387.791,215.356L384.491,215.356L379.674,203.976L376.866,217.973L369.963,217.973L375.273,191.419L381.38,191.419L387.602,206.782L399.664,191.419L406.075,191.419Z" style="fill:rgb(12,43,52);fill-rule:nonzero;"/>
        <path d="M422.574,206.782C422.574,204.393 421.133,202.837 418.667,202.837C415.822,202.837 413.773,205.152 413.773,208.604C413.773,210.993 415.215,212.51 417.681,212.51C420.564,212.51 422.574,210.196 422.574,206.782ZM431.641,197.413L427.543,217.973L420.715,217.973L421.133,216.038C419.539,217.518 417.566,218.315 415.177,218.315C410.739,218.315 406.49,214.938 406.49,208.944C406.49,202.116 411.497,197.071 417.643,197.071C420.412,197.071 422.65,197.906 423.94,199.879L424.433,197.413L431.641,197.413Z" style="fill:rgb(12,43,52);fill-rule:nonzero;"/>
        <path d="M447.647,207.769L453.223,217.973L445.561,217.973L442.753,212.586L437.784,217.973L429.628,217.973L439.908,207.427L434.483,197.413L442.032,197.413L444.764,202.648L449.657,197.413L457.585,197.413L447.647,207.769Z" style="fill:rgb(12,43,52);fill-rule:nonzero;"/>
        <path d="M455.118,214.369C455.118,211.6 457.205,209.779 459.746,209.779C462.174,209.779 463.805,211.372 463.805,213.725C463.805,216.493 461.681,218.315 459.215,218.315C456.825,218.315 455.118,216.645 455.118,214.369Z" style="fill:rgb(12,43,52);fill-rule:nonzero;"/>
        <path d="M407.453,237.831L415.742,237.831L415.34,239.892L403.428,239.892L403.76,238.281L411.835,231.817C414.061,230.017 414.724,228.927 414.724,227.577C414.724,226.133 413.705,225.186 411.48,225.186C409.869,225.186 408.307,225.849 407.193,227.032L405.607,225.659C406.981,224.119 409.254,223.125 411.811,223.125C415.174,223.125 417.092,224.83 417.092,227.27C417.092,229.188 416.264,230.846 413.422,233.095L407.453,237.831Z" style="fill:rgb(12,43,52);fill-rule:nonzero;"/>
        <path d="M423.585,225.375L422.212,229.922L423.822,229.922C428.061,229.922 429.98,231.674 429.98,234.35C429.98,237.784 427.161,240.081 422.922,240.081C420.412,240.081 418.28,239.3 417.12,237.997L418.375,236.174C419.275,237.216 420.981,237.974 423.088,237.974C425.953,237.974 427.611,236.719 427.611,234.611C427.611,232.977 426.427,231.983 423.396,231.983L419.37,231.983L421.951,223.315L431.306,223.315L430.902,225.375L423.585,225.375Z" style="fill:rgb(12,43,52);fill-rule:nonzero;"/>
        <path d="M443.907,229.259C443.907,226.63 442.629,225.233 440.497,225.233C436.756,225.233 434.672,230.088 434.672,233.947C434.672,236.576 435.95,237.974 438.106,237.974C441.823,237.974 443.907,233.119 443.907,229.259ZM432.304,233.995C432.304,228.24 435.548,223.125 440.687,223.125C444.168,223.125 446.275,225.375 446.275,229.211C446.275,234.966 443.008,240.081 437.916,240.081C434.411,240.081 432.304,237.831 432.304,233.995Z" style="fill:rgb(12,43,52);fill-rule:nonzero;"/>
        <path d="M562.568,402.997L566.817,409.864L577.646,397.358L571.943,391.316L562.568,402.997Z" style="fill:rgb(241,91,102);fill-rule:nonzero;"/>
        <path d="M576.685,396.077C576.737,396.123 576.188,396.865 575.229,398.006C574.271,399.147 572.896,400.678 571.349,402.338C569.86,403.911 568.513,405.336 567.357,406.559C566.326,407.63 565.676,408.282 565.619,408.233C565.567,408.188 566.119,407.448 567.081,406.31C568.042,405.172 569.417,403.642 570.965,401.981C572.451,400.406 573.797,398.982 574.952,397.758C575.981,396.684 576.628,396.029 576.685,396.077Z" style="fill:rgb(12,43,52);fill-rule:nonzero;"/>
        <path d="M566.724,396.726C566.826,396.622 568.016,397.636 569.381,398.988C570.746,400.341 571.77,401.521 571.668,401.624C571.567,401.727 570.377,400.714 569.012,399.36C567.647,398.008 566.622,396.828 566.724,396.726Z" style="fill:rgb(12,43,52);fill-rule:nonzero;"/>
        <path d="M566.817,409.864L566.677,409.741L565.522,408.347L565.623,408.235C565.624,408.236 565.626,408.236 565.627,408.236C565.647,408.236 565.692,408.207 565.758,408.153L566.817,409.864ZM577.646,397.358L577.646,397.358Z" style="fill:white;fill-rule:nonzero;"/>
        <path d="M566.817,409.864L565.758,408.153C566.008,407.947 566.572,407.375 567.357,406.559C568.513,405.336 569.86,403.911 571.349,402.338C572.896,400.678 574.271,399.147 575.229,398.006C575.934,397.167 576.418,396.543 576.604,396.254L577.646,397.358L566.817,409.864Z" style="fill:rgb(248,175,181);fill-rule:nonzero;"/>
        <path d="M565.627,408.236C565.626,408.236 565.624,408.236 565.623,408.235L571.636,401.63C571.64,401.631 571.643,401.631 571.647,401.631C571.656,401.631 571.663,401.629 571.668,401.624C571.675,401.617 571.677,401.605 571.674,401.589L576.567,396.214L576.604,396.254C576.418,396.543 575.934,397.167 575.229,398.006C574.271,399.147 572.896,400.678 571.349,402.338C569.86,403.911 568.513,405.336 567.357,406.559C566.572,407.375 566.008,407.947 565.758,408.153C565.692,408.207 565.647,408.236 565.627,408.236Z" style="fill:rgb(157,167,170);fill-rule:nonzero;"/>
        <path d="M571.647,401.631C571.643,401.631 571.64,401.631 571.636,401.63L571.674,401.589C571.677,401.605 571.675,401.617 571.668,401.624C571.663,401.629 571.656,401.631 571.647,401.631Z" style="fill:rgb(157,167,170);fill-rule:nonzero;"/>
        <path d="M477.205,419.386L477.233,417.698L494.323,417.831L494.293,423.395L493.237,423.451C488.54,423.667 469.341,424.239 466.211,423.337C462.721,422.329 477.205,419.386 477.205,419.386Z" style="fill:rgb(241,91,102);fill-rule:nonzero;"/>
        <path d="M494.318,418.774L494.318,418.774Z" style="fill:white;fill-rule:nonzero;"/>
        <path d="M494.277,423.168L494.269,423.041L488.164,423.058C488.453,421.806 489.235,420.655 490.33,419.875C491.354,419.146 492.583,418.729 493.857,418.729C494.01,418.729 494.164,418.735 494.318,418.747L494.318,418.774L494.277,423.168Z" style="fill:rgb(248,175,181);fill-rule:nonzero;"/>
        <path d="M492.263,423.525C491.987,423.525 491.712,423.525 491.434,423.524C492.159,423.498 492.77,423.473 493.237,423.451L494.293,423.395C493.67,423.442 492.99,423.485 492.263,423.525Z" style="fill:white;fill-rule:nonzero;"/>
        <path d="M479.092,423.825C478.725,423.825 478.361,423.824 477.999,423.823C482.971,423.79 488.279,423.641 491.434,423.524C491.712,423.525 491.987,423.525 492.263,423.525C488.563,423.726 483.671,423.825 479.092,423.825Z" style="fill:rgb(157,167,170);fill-rule:nonzero;"/>
        <path d="M466.352,423.374C465.967,423.311 465.731,423.242 465.671,423.167C465.584,423.059 465.607,422.941 465.711,422.817C465.588,423.019 465.725,423.197 466.211,423.337C466.255,423.35 466.302,423.362 466.352,423.374ZM469.018,421.375C469.522,421.222 469.922,421.113 470.067,421.074C469.708,421.174 469.356,421.274 469.018,421.375Z" style="fill:white;fill-rule:nonzero;"/>
        <path d="M477.999,423.823C472.74,423.804 468.066,423.653 466.352,423.374C466.302,423.362 466.255,423.35 466.211,423.337C465.725,423.197 465.588,423.019 465.711,422.817C466.128,422.318 467.851,421.729 469.018,421.375C469.356,421.274 469.708,421.174 470.067,421.074C470.106,421.064 470.126,421.059 470.126,421.059C471.116,421.103 471.61,423.104 471.61,423.104L488.164,423.058C488.15,423.117 488.137,423.176 488.126,423.235L494.277,423.168L494.293,423.395L493.237,423.451C492.77,423.473 492.159,423.498 491.434,423.524C488.279,423.641 482.971,423.79 477.999,423.823Z" style="fill:rgb(248,175,181);fill-rule:nonzero;"/>
        <path d="M488.126,423.235C488.137,423.176 488.15,423.117 488.164,423.058L494.269,423.041L494.277,423.168L488.126,423.235Z" style="fill:rgb(252,219,221);fill-rule:nonzero;"/>
        <path d="M494.536,423.032C494.536,423.039 494.436,423.048 494.243,423.061C493.991,423.073 493.715,423.087 493.403,423.103C492.563,423.133 491.529,423.168 490.31,423.211C487.697,423.284 484.087,423.342 480.1,423.325C476.11,423.307 472.501,423.217 469.89,423.12C468.672,423.067 467.639,423.022 466.799,422.985C466.487,422.966 466.212,422.949 465.96,422.934C465.768,422.921 465.667,422.91 465.668,422.903C465.668,422.897 465.769,422.895 465.961,422.896C466.214,422.9 466.49,422.904 466.803,422.909C467.643,422.93 468.676,422.955 469.896,422.985C472.507,423.047 476.114,423.115 480.101,423.133C484.086,423.151 487.694,423.114 490.307,423.075C491.526,423.057 492.561,423.041 493.4,423.028C493.713,423.026 493.989,423.024 494.242,423.022C494.435,423.023 494.536,423.026 494.536,423.032Z" style="fill:rgb(12,43,52);fill-rule:nonzero;"/>
        <path d="M471.613,423.349C471.55,423.356 471.508,422.669 471.048,421.974C470.602,421.271 469.969,420.916 470.005,420.867C470.018,420.82 470.743,421.122 471.225,421.874C471.716,422.621 471.664,423.361 471.613,423.349Z" style="fill:rgb(12,43,52);fill-rule:nonzero;"/>
        <path d="M476.654,421.007C476.607,421.035 476.369,420.762 476.124,420.398C475.879,420.032 475.72,419.714 475.769,419.686C475.816,419.657 476.054,419.931 476.299,420.296C476.544,420.66 476.703,420.979 476.654,421.007Z" style="fill:rgb(12,43,52);fill-rule:nonzero;"/>
        <path d="M478.038,420.337C478,420.376 477.733,420.208 477.442,419.962C477.151,419.716 476.947,419.485 476.985,419.444C477.023,419.405 477.291,419.573 477.581,419.82C477.872,420.067 478.077,420.298 478.038,420.337Z" style="fill:rgb(12,43,52);fill-rule:nonzero;"/>
        <path d="M478.923,418.849C478.923,418.902 478.525,418.946 478.034,418.949C477.544,418.951 477.146,418.911 477.146,418.858C477.146,418.805 477.543,418.76 478.034,418.758C478.525,418.755 478.923,418.796 478.923,418.849Z" style="fill:rgb(12,43,52);fill-rule:nonzero;"/>
        <path d="M479.232,417.797C479.251,417.845 478.816,418.025 478.239,418.06C477.662,418.099 477.206,417.978 477.218,417.928C477.228,417.873 477.677,417.906 478.226,417.869C478.773,417.835 479.214,417.744 479.232,417.797Z" style="fill:rgb(12,43,52);fill-rule:nonzero;"/>
        <path d="M476.091,419.624C476.092,419.646 475.672,419.692 474.997,419.612C474.661,419.572 474.264,419.496 473.836,419.367C473.623,419.296 473.401,419.242 473.172,419.109C473.065,419.041 472.945,418.946 472.904,418.792C472.86,418.64 472.95,418.469 473.073,418.387C474.123,417.889 475.165,418.441 475.548,418.944C475.759,419.201 475.855,419.452 475.898,419.624C475.94,419.799 475.937,419.898 475.924,419.9C475.885,419.912 475.854,419.498 475.434,419.029C475.227,418.8 474.912,418.575 474.506,418.461C474.12,418.353 473.571,418.32 473.201,418.536C473.027,418.655 473.093,418.845 473.285,418.953C473.464,419.062 473.696,419.129 473.898,419.2C474.31,419.335 474.694,419.423 475.021,419.479C475.674,419.59 476.091,419.593 476.091,419.624Z" style="fill:rgb(12,43,52);fill-rule:nonzero;"/>
        <path d="M475.807,419.673C475.791,419.685 475.632,419.424 475.688,418.967C475.716,418.742 475.807,418.477 475.993,418.226C476.188,418.001 476.439,417.692 476.907,417.712C477.161,417.744 477.282,418.013 477.24,418.184C477.219,418.361 477.131,418.514 477.05,418.637C476.886,418.89 476.699,419.094 476.528,419.249C476.183,419.559 475.911,419.676 475.898,419.657C475.88,419.632 476.118,419.476 476.423,419.155C476.574,418.995 476.739,418.792 476.886,418.548C477.038,418.334 477.145,417.948 476.871,417.902C476.598,417.875 476.315,418.127 476.147,418.329C475.973,418.548 475.875,418.784 475.831,418.988C475.744,419.402 475.844,419.666 475.807,419.673Z" style="fill:rgb(12,43,52);fill-rule:nonzero;"/>
        <path d="M494.23,418.703C494.225,418.738 493.742,418.657 492.973,418.737C492.21,418.813 491.148,419.097 490.221,419.774C489.294,420.452 488.744,421.345 488.486,422.017C488.22,422.694 488.19,423.149 488.152,423.145C488.14,423.144 488.135,423.029 488.155,422.825C488.175,422.62 488.23,422.325 488.348,421.973C488.578,421.273 489.127,420.331 490.094,419.623C491.061,418.917 492.174,418.644 492.96,418.603C493.356,418.578 493.677,418.599 493.896,418.629C494.113,418.659 494.232,418.692 494.23,418.703Z" style="fill:rgb(12,43,52);fill-rule:nonzero;"/>
        <path d="M485.999,421.682C486.006,421.732 484.896,421.895 483.514,421.898C482.131,421.904 481.021,421.749 481.027,421.699C481.033,421.645 482.144,421.713 483.514,421.706C484.883,421.703 485.993,421.626 485.999,421.682Z" style="fill:rgb(12,43,52);fill-rule:nonzero;"/>
        <path d="M489.333,421.694C489.375,421.734 489.24,421.912 489.125,422.15C489.006,422.384 488.945,422.595 488.887,422.592C488.832,422.591 488.802,422.341 488.938,422.069C489.072,421.796 489.297,421.655 489.333,421.694Z" style="fill:rgb(12,43,52);fill-rule:nonzero;"/>
        <path d="M490.604,420.246C490.644,420.284 490.532,420.448 490.355,420.613C490.178,420.778 490.001,420.882 489.961,420.844C489.921,420.807 490.031,420.643 490.209,420.478C490.387,420.313 490.564,420.209 490.604,420.246Z" style="fill:rgb(12,43,52);fill-rule:nonzero;"/>
        <path d="M492.408,419.592C492.396,419.646 492.169,419.642 491.919,419.723C491.666,419.798 491.487,419.926 491.442,419.89C491.398,419.861 491.542,419.636 491.855,419.541C492.165,419.444 492.426,419.543 492.408,419.592Z" style="fill:rgb(12,43,52);fill-rule:nonzero;"/>
        <path d="M493.69,419.284C493.711,419.334 493.612,419.415 493.471,419.465C493.329,419.516 493.198,419.516 493.178,419.466C493.158,419.417 493.256,419.336 493.398,419.286C493.539,419.236 493.671,419.236 493.69,419.284Z" style="fill:rgb(12,43,52);fill-rule:nonzero;"/>
        <path d="M470.185,197.28L443.788,170.537L447.141,135.709L447.745,135.017C448.072,134.636 448.444,134.219 448.88,133.762C449.384,133.235 449.978,132.798 450.627,132.463C451.416,132.057 452.484,131.559 453.151,131.464C453.977,131.345 454.25,130.303 453.59,129.953C452.931,129.605 450.649,129.875 448.372,131.313C446.095,132.751 447.476,128.796 447.953,127.347C448.431,125.898 449.696,121.349 449.363,120.861C448.875,120.146 447.997,120.545 447.554,122.004C447.106,123.479 445.473,127.747 444.714,127.478C443.967,127.213 446.498,119.865 446.498,119.865C446.498,119.865 447.295,118.376 446.43,118.036C444.868,117.423 442.757,125.417 442.574,126.182C442.448,126.715 441.612,126.452 441.779,125.887C441.95,125.306 444.476,118.612 442.893,117.973C441.677,117.483 441.093,124.534 439.793,125.653C438.493,126.771 440.787,120.338 439.606,119.917C439.166,119.76 438.814,119.704 438.034,123.574C437.655,125.452 436.831,128.585 436.526,131.649L436.521,131.648L428.223,173.262L454.198,207.652L470.185,197.28Z" style="fill:rgb(249,178,153);fill-rule:nonzero;"/>
        <path d="M483.638,120.718C482.552,121.344 485.96,127.263 484.481,126.396C483.001,125.528 481.164,118.695 480.056,119.395C478.613,120.307 482.296,126.441 482.568,126.982C482.834,127.507 482.059,127.916 481.839,127.414C481.523,126.694 478.014,119.207 476.588,120.09C475.797,120.579 476.848,121.902 476.848,121.902C476.848,121.902 480.653,128.678 479.966,129.072C479.268,129.473 476.897,125.566 476.191,124.195C475.495,122.839 474.559,122.603 474.207,123.395C473.967,123.934 476.026,128.183 476.756,129.523C477.484,130.863 479.552,134.506 477.054,133.5C474.556,132.493 472.263,132.636 471.677,133.097C471.09,133.559 471.546,134.536 472.379,134.504C473.052,134.478 474.192,134.777 475.041,135.035C475.74,135.248 476.402,135.571 476.992,136.001C477.503,136.372 477.943,136.716 478.334,137.032L479.053,137.605L493.313,172.759L480.357,202.912L500.437,210.387L509.462,170.512L488.774,131.708L488.769,131.711C487.92,128.75 486.548,125.815 485.839,124.035C484.378,120.367 484.043,120.486 483.638,120.718Z" style="fill:rgb(249,178,153);fill-rule:nonzero;"/>
        <path d="M528.431,334.353L515.387,267.253L496.97,268.836L496.972,268.682L463.327,271.728C463.327,271.728 461.752,348.79 461.193,348.79L470.408,419.038L470.409,419.052L496.972,417.84L486.705,347.912L490.493,291.796C490.493,291.796 490.794,291.387 491.25,290.768L506.621,348.138L558.951,407.362L575.999,390.876L528.431,334.353Z" style="fill:rgb(51,88,99);fill-rule:nonzero;"/>
        <path d="M487.421,337.308C487.403,337.307 487.398,337.11 487.406,336.734C487.422,336.301 487.442,335.759 487.466,335.094C487.545,333.599 487.651,331.558 487.782,329.068C488.104,323.918 488.539,316.926 489.021,309.199C489.51,302.187 489.956,295.778 490.297,290.882L490.302,290.818L490.342,290.77C492.248,288.504 493.814,286.645 494.951,285.293C495.475,284.69 495.898,284.2 496.232,283.817C496.529,283.483 496.693,283.314 496.709,283.325C496.724,283.338 496.589,283.532 496.319,283.889C496.009,284.29 495.611,284.802 495.121,285.433C494.017,286.812 492.497,288.708 490.646,291.02L490.69,290.907C490.383,295.807 489.981,302.218 489.54,309.234C489,316.956 488.51,323.944 488.149,329.092C487.951,331.577 487.788,333.615 487.668,335.107C487.605,335.77 487.553,336.31 487.512,336.74C487.47,337.114 487.44,337.31 487.421,337.308Z" style="fill:rgb(12,43,52);fill-rule:nonzero;"/>
        <path d="M496.972,268.682C497.116,268.682 497.232,271.555 497.232,275.099C497.232,278.644 497.116,281.516 496.972,281.516C496.828,281.516 496.712,278.644 496.712,275.099C496.712,271.555 496.828,268.682 496.972,268.682Z" style="fill:rgb(12,43,52);fill-rule:nonzero;"/>
        <path d="M474.287,274.516C474.269,274.499 474.558,274.453 475.117,274.381C475.758,274.304 476.574,274.206 477.571,274.086C479.697,273.84 482.768,273.497 486.452,273.124L486.702,273.099L486.703,273.353C486.712,276.507 486.723,280.143 486.734,284.006L486.734,284.167L486.589,284.239L486.398,284.334C484.155,285.437 481.997,286.497 479.976,287.491L479.856,287.55L479.741,287.483C477.726,286.288 475.856,285.18 474.182,284.188L474.075,284.124L474.077,284.006C474.121,281.157 474.158,278.787 474.185,277.034C474.207,276.275 474.225,275.65 474.239,275.148C474.256,274.72 474.272,274.501 474.287,274.516C474.303,274.53 474.318,274.777 474.335,275.227C474.35,275.74 474.368,276.38 474.39,277.158C474.417,278.88 474.453,281.208 474.497,284.006L474.394,283.824C476.079,284.798 477.962,285.884 479.991,287.055L479.757,287.047C481.774,286.046 483.929,284.978 486.168,283.866L486.358,283.773L486.213,284.006C486.225,280.143 486.235,276.507 486.244,273.353L486.495,273.581C482.902,273.903 479.88,274.142 477.732,274.304C476.71,274.376 475.874,274.436 475.219,274.483C474.63,274.52 474.306,274.532 474.287,274.516Z" style="fill:rgb(12,43,52);fill-rule:nonzero;"/>
        <path d="M500.19,271.961C500.171,271.944 500.46,271.899 501.02,271.826C501.659,271.749 502.476,271.651 503.473,271.53C505.599,271.285 508.669,270.943 512.354,270.569L512.604,270.544L512.606,270.798C512.614,273.952 512.625,277.588 512.636,281.451L512.637,281.612L512.491,281.685L512.301,281.778C510.058,282.881 507.899,283.943 505.878,284.936L505.757,284.995L505.643,284.928C503.627,283.734 501.758,282.625 500.083,281.632L499.978,281.569L499.98,281.451C500.023,278.603 500.06,276.232 500.087,274.48C500.108,273.719 500.126,273.094 500.141,272.592C500.157,272.165 500.173,271.946 500.19,271.961C500.205,271.976 500.221,272.222 500.237,272.672C500.252,273.186 500.27,273.825 500.291,274.603C500.318,276.324 500.356,278.653 500.399,281.451L500.295,281.27C501.981,282.242 503.863,283.329 505.894,284.5L505.658,284.492C507.677,283.491 509.831,282.422 512.068,281.312L512.26,281.218L512.115,281.451C512.125,277.588 512.137,273.952 512.146,270.798L512.398,271.027C508.805,271.348 505.781,271.587 503.634,271.749C502.612,271.821 501.776,271.881 501.12,271.928C500.532,271.965 500.207,271.978 500.19,271.961Z" style="fill:rgb(12,43,52);fill-rule:nonzero;"/>
        <path d="M486.713,275.982C486.719,276.125 483.942,276.37 480.512,276.528C477.08,276.687 474.293,276.699 474.287,276.556C474.28,276.412 477.056,276.167 480.488,276.008C483.919,275.85 486.706,275.838 486.713,275.982Z" style="fill:rgb(12,43,52);fill-rule:nonzero;"/>
        <path d="M512.375,273.62C512.39,273.764 509.669,274.087 506.3,274.343C502.93,274.599 500.193,274.69 500.188,274.546C500.181,274.403 502.901,274.079 506.264,273.823C509.625,273.569 512.362,273.478 512.375,273.62Z" style="fill:rgb(12,43,52);fill-rule:nonzero;"/>
        <path d="M484.602,347.311C484.619,347.454 481.929,347.901 478.593,348.309C475.256,348.717 472.538,348.933 472.521,348.79C472.503,348.648 475.193,348.2 478.529,347.792C481.865,347.384 484.584,347.168 484.602,347.311Z" style="fill:rgb(12,43,52);fill-rule:nonzero;"/>
        <path d="M526.745,335.797C526.798,335.947 523.873,336.97 520.563,338.829C517.241,340.671 514.836,342.624 514.735,342.5C514.692,342.449 515.24,341.894 516.222,341.106C517.201,340.318 518.63,339.314 520.309,338.374C521.987,337.439 523.593,336.75 524.778,336.33C525.964,335.908 526.725,335.734 526.745,335.797Z" style="fill:rgb(12,43,52);fill-rule:nonzero;"/>
        <path d="M470.185,103.462C470.177,103.465 470.109,103.34 469.987,103.092C469.857,102.822 469.681,102.456 469.455,101.989C469.217,101.507 468.954,100.894 468.591,100.197C468.212,99.504 467.777,98.708 467.29,97.815C466.789,96.926 466.157,95.981 465.509,94.922C464.816,93.893 464.033,92.792 463.17,91.629C461.397,89.336 459.211,86.854 456.56,84.349C451.221,79.421 443.844,74.444 434.619,71.576C430.025,70.155 425.002,69.24 419.76,69.166C414.523,69.068 409.087,69.694 403.709,71.095C398.345,72.554 393.315,74.715 388.82,77.405C384.308,80.078 380.404,83.369 377.125,86.888C370.548,93.965 366.623,101.952 364.442,108.883C363.389,112.375 362.728,115.615 362.329,118.486C362.159,119.924 362.026,121.268 361.939,122.506C361.902,123.747 361.824,124.881 361.831,125.901C361.853,126.918 361.872,127.824 361.888,128.615C361.919,129.4 361.996,130.062 362.03,130.599C362.067,131.116 362.096,131.521 362.117,131.82C362.134,132.096 362.138,132.238 362.129,132.239C362.12,132.24 362.099,132.101 362.065,131.827C362.03,131.528 361.984,131.124 361.926,130.609C361.875,130.072 361.781,129.41 361.733,128.623C361.703,127.831 361.668,126.922 361.629,125.903C361.607,124.878 361.669,123.739 361.69,122.492C361.765,121.248 361.884,119.896 362.04,118.449C362.413,115.56 363.052,112.296 364.091,108.775C366.24,101.786 370.157,93.72 376.773,86.561C380.071,83.002 384.007,79.671 388.557,76.968C393.089,74.248 398.163,72.064 403.575,70.591C409,69.178 414.486,68.55 419.772,68.656C425.061,68.738 430.131,69.671 434.762,71.118C444.061,74.037 451.471,79.086 456.812,84.08C459.464,86.618 461.642,89.131 463.402,91.453C464.259,92.63 465.033,93.745 465.717,94.787C466.357,95.858 466.977,96.815 467.467,97.715C467.94,98.619 468.361,99.425 468.73,100.128C469.079,100.834 469.327,101.455 469.551,101.945C469.756,102.423 469.917,102.796 470.036,103.071C470.143,103.326 470.193,103.458 470.185,103.462Z" style="fill:rgb(12,43,52);fill-rule:nonzero;"/>
        <path d="M458.869,100.725C458.855,100.735 458.692,100.528 458.4,100.126C458.097,99.732 457.707,99.109 457.117,98.371C455.991,96.859 454.24,94.754 451.82,92.411C449.405,90.066 446.254,87.546 442.416,85.291C438.586,83.034 434.041,81.102 429.051,79.9C424.049,78.743 419.118,78.437 414.683,78.743C410.241,79.043 406.295,79.887 403.086,80.905C399.873,81.917 397.366,83.018 395.683,83.866C394.825,84.262 394.199,84.645 393.751,84.862C393.31,85.09 393.072,85.204 393.064,85.188C393.054,85.172 393.273,85.029 393.698,84.771C394.131,84.524 394.743,84.111 395.59,83.686C397.252,82.778 399.752,81.619 402.975,80.554C406.192,79.484 410.166,78.593 414.649,78.264C419.126,77.929 424.112,78.222 429.171,79.393C434.217,80.609 438.806,82.576 442.66,84.878C446.522,87.177 449.678,89.751 452.077,92.148C454.483,94.541 456.2,96.696 457.281,98.252C457.848,99.011 458.211,99.653 458.487,100.068C458.753,100.49 458.885,100.715 458.869,100.725Z" style="fill:rgb(12,43,52);fill-rule:nonzero;"/>
        <path d="M509.466,218.018L504.821,242.189C514.508,255.67 515.391,267.233 515.391,267.233L463.331,271.707C464.303,263.543 469.336,245.87 469.336,245.87L461.778,220.066L446.632,200.345L461.662,186.799C461.374,187.56 475.754,195.883 475.754,195.883L496.407,196.059C496.407,196.059 497.607,196.154 499.376,196.648L509.466,170.492C509.466,170.492 517.271,181.971 514.655,196.056C512.793,206.084 513.146,208.43 509.466,218.018Z" style="fill:rgb(241,91,102);fill-rule:nonzero;"/>
        <path d="M471.706,199.655C471.729,199.638 472.023,199.943 472.468,200.565C472.912,201.186 473.497,202.134 474.028,203.402C474.547,204.67 475.003,206.273 475.072,208.104C475.155,209.929 474.78,211.972 473.838,213.872C472.889,215.766 471.449,217.303 469.842,218.211C468.238,219.13 466.564,219.458 465.186,219.463C463.797,219.457 462.699,219.152 461.995,218.848C461.644,218.691 461.378,218.558 461.21,218.445C461.038,218.338 460.953,218.275 460.962,218.259C460.978,218.196 461.372,218.435 462.111,218.674C462.823,218.904 463.855,219.134 465.179,219.095C466.502,219.044 468.093,218.691 469.6,217.797C471.108,216.915 472.465,215.447 473.372,213.639C474.272,211.822 474.647,209.874 474.593,208.118C474.552,206.355 474.148,204.791 473.686,203.536C472.723,201.023 471.614,199.713 471.706,199.655Z" style="fill:rgb(12,43,52);fill-rule:nonzero;"/>
        <path d="M507.679,217.263C507.595,217.223 508.043,216.279 508.482,214.674C508.925,213.072 509.275,210.778 509.078,208.249C508.871,205.721 508.161,203.511 507.469,202C506.781,200.485 506.189,199.625 506.265,199.572C506.294,199.551 506.465,199.75 506.75,200.129C507.042,200.503 507.407,201.087 507.801,201.84C508.593,203.341 509.385,205.605 509.598,208.208C509.8,210.811 509.379,213.172 508.835,214.779C508.565,215.585 508.298,216.221 508.068,216.636C507.848,217.056 507.711,217.278 507.679,217.263Z" style="fill:rgb(12,43,52);fill-rule:nonzero;"/>
        <path d="M488.99,245.953C487.43,245.953 485.84,245.744 484.176,245.274C483.305,245.083 482.499,244.591 482.005,243.847C481.104,242.493 481.339,240.501 482.527,239.393C483.325,238.649 484.361,238.36 485.452,238.36C486.589,238.36 487.786,238.674 488.835,239.111C490.853,239.954 492.826,241.182 495.004,241.182C495.045,241.182 495.087,241.182 495.128,241.181C496.321,241.155 497.469,240.75 498.627,240.461C498.935,240.384 499.273,240.323 499.596,240.323C500.023,240.323 500.426,240.429 500.705,240.741C501.147,241.237 501.028,242.054 500.611,242.572C500.194,243.09 499.561,243.376 498.943,243.623C495.48,245.01 492.304,245.953 488.99,245.953Z" style="fill:rgb(186,61,72);fill-rule:nonzero;"/>
        <path d="M483.349,195.948L475.754,195.883C475.754,195.883 464.195,189.193 462.011,187.26C462.168,187.036 462.33,186.816 462.496,186.6L472.864,193.329C472.795,191.837 473.589,190.403 474.686,189.389C475.239,188.877 475.864,188.456 476.524,188.091L483.71,195.107L483.349,195.948Z" style="fill:rgb(160,163,165);fill-rule:nonzero;"/>
        <path d="M483.71,195.107L476.524,188.091C477.172,187.732 477.853,187.427 478.535,187.139C481.726,185.795 485.05,184.774 488.444,184.09L483.71,195.107Z" style="fill:rgb(15,0,2);fill-rule:nonzero;"/>
        <path d="M499.376,196.648C497.607,196.154 496.407,196.059 496.407,196.059L483.349,195.948L483.71,195.107L488.444,184.09C491.824,183.408 495.272,183.061 498.721,183.061L498.746,183.061C500.608,183.061 502.556,183.21 504.397,183.632L499.376,196.648Z" style="fill:rgb(187,129,108);fill-rule:nonzero;"/>
        <path d="M483.81,212.233C483.645,212.233 483.479,212.226 483.311,212.211C479.811,211.898 477.69,208.375 474.864,206.23C474.668,205.168 474.361,204.216 474.028,203.402C473.497,202.134 472.912,201.186 472.468,200.565C472.036,199.959 471.746,199.655 471.709,199.655L471.706,199.655C471.614,199.713 472.723,201.023 473.686,203.536C473.939,204.223 474.174,205.002 474.342,205.856C473.763,205.467 473.151,205.142 472.489,204.919C470.218,204.153 467.686,204.703 465.368,204.088C461.987,203.191 459.626,199.81 459.288,196.329C458.976,193.119 460.153,189.912 462.011,187.26C464.195,189.193 475.754,195.883 475.754,195.883L483.349,195.948L496.407,196.059C496.407,196.059 497.607,196.154 499.376,196.648L504.397,183.632C507.082,184.249 509.539,185.448 511.169,187.621C513.74,191.051 513.34,196.141 510.871,199.647C510.103,200.737 509.171,201.686 508.124,202.496C508.017,202.264 507.909,202.045 507.801,201.84C507.407,201.087 507.042,200.503 506.75,200.129C506.478,199.768 506.31,199.57 506.27,199.57C506.268,199.57 506.266,199.571 506.265,199.572C506.189,199.625 506.781,200.485 507.469,202C507.575,202.233 507.683,202.483 507.788,202.748C505.531,204.393 502.785,205.426 500.011,205.883C497.965,206.22 495.845,206.286 493.919,207.056C490.357,208.48 487.546,212.233 483.81,212.233Z" style="fill:rgb(186,61,72);fill-rule:nonzero;"/>
        <path d="M474.864,206.23C474.693,206.1 474.519,205.975 474.342,205.856C474.174,205.002 473.939,204.223 473.686,203.536C472.723,201.023 471.614,199.713 471.706,199.655L471.709,199.655C471.746,199.655 472.036,199.959 472.468,200.565C472.912,201.186 473.497,202.134 474.028,203.402C474.361,204.216 474.668,205.168 474.864,206.23Z" style="fill:rgb(1,23,33);fill-rule:nonzero;"/>
        <path d="M507.788,202.748C507.683,202.483 507.575,202.233 507.469,202C506.781,200.485 506.189,199.625 506.265,199.572C506.266,199.571 506.268,199.57 506.27,199.57C506.31,199.57 506.478,199.768 506.75,200.129C507.042,200.503 507.407,201.087 507.801,201.84C507.909,202.045 508.017,202.264 508.124,202.496C508.013,202.581 507.901,202.665 507.788,202.748Z" style="fill:rgb(1,23,33);fill-rule:nonzero;"/>
        <path d="M522.029,183.835C521.807,182.009 520.512,180.354 518.792,179.698C516.783,178.933 514.432,179.482 512.468,178.609C510.02,177.52 508.985,174.646 508.368,172.039C507.75,169.431 507.156,166.553 505.05,164.898C503.595,163.756 501.662,163.417 500.088,162.445C497.758,161.007 496.492,158.391 494.9,156.164C494.305,155.33 493.582,154.516 492.771,153.851L492.677,153.723C489.292,149.641 480.262,149.107 476.357,152.696L476.507,152.565C469.228,153.111 464.61,164.869 464.534,172.32C464.486,176.956 465.983,181.809 464.228,186.1C463.206,188.596 461.167,190.613 460.386,193.195C459.324,196.708 461.101,200.858 464.375,202.514C467.649,204.17 472.045,203.142 474.245,200.205C474.13,202.094 475.69,203.759 477.469,204.403C479.249,205.045 481.204,204.9 483.09,204.745C487.131,204.414 491.789,203.717 493.861,200.234C495.254,202.318 497.984,203.172 500.483,202.986C502.982,202.8 505.321,202.569 507.603,201.532C507.503,201.403 507.416,201.265 507.34,201.121C507.711,200.979 508.074,200.815 508.417,200.605C510.336,199.426 511.525,196.887 510.631,194.821C511.356,195.663 512.081,196.505 512.807,197.346C516.581,195.352 518.288,190.194 516.448,186.342C517.729,186.866 518.904,187.648 519.88,188.628C521.393,187.579 522.252,185.661 522.029,183.835Z" style="fill:rgb(12,43,52);fill-rule:nonzero;"/>
        <path d="M521.107,186.926C521.03,186.947 521.443,185.972 520.638,184.57C520.24,183.898 519.544,183.174 518.531,182.704C517.52,182.222 516.242,181.992 514.82,181.841C513.406,181.673 511.78,181.583 510.176,180.86C509.377,180.504 508.632,179.927 508.059,179.187C507.482,178.448 507.07,177.569 506.773,176.651C506.147,174.811 506.012,172.782 505.398,170.849C505.091,169.884 504.675,168.927 504.044,168.119C503.418,167.312 502.549,166.694 501.525,166.462C500.503,166.208 499.406,166.23 498.321,166.015C497.222,165.825 496.196,165.238 495.461,164.46C493.944,162.893 493.336,160.872 492.673,159.123C492.044,157.339 491.162,155.782 489.977,154.606C488.817,153.417 487.466,152.593 486.151,152.085C483.485,151.069 481.067,151.345 479.55,151.736C478.005,152.144 477.237,152.627 477.213,152.574C477.205,152.56 477.391,152.435 477.767,152.234C478.143,152.035 478.718,151.775 479.495,151.541C481.024,151.084 483.5,150.734 486.28,151.74C487.65,152.244 489.065,153.079 490.283,154.302C491.526,155.502 492.478,157.155 493.121,158.952C493.801,160.721 494.413,162.66 495.825,164.102C496.518,164.821 497.405,165.329 498.421,165.507C499.435,165.71 500.535,165.685 501.65,165.957C502.779,166.209 503.778,166.919 504.452,167.8C505.138,168.683 505.568,169.694 505.884,170.695C506.514,172.715 506.634,174.728 507.229,176.502C507.764,178.282 508.839,179.808 510.359,180.469C511.854,181.165 513.445,181.286 514.865,181.476C516.293,181.651 517.611,181.912 518.659,182.442C519.716,182.964 520.425,183.75 520.815,184.47C521.208,185.2 521.28,185.863 521.252,186.29C521.214,186.721 521.107,186.926 521.107,186.926Z" style="fill:rgb(51,88,99);fill-rule:nonzero;"/>
        <path d="M508.329,201.337C508.317,201.307 508.54,201.251 508.883,201.012C509.22,200.778 509.655,200.302 509.894,199.55C510.13,198.813 510.185,197.78 509.718,196.775C509.238,195.766 508.288,194.851 507.075,194.112C505.871,193.348 504.389,192.776 502.927,191.851C502.201,191.387 501.48,190.819 500.903,190.073C500.329,189.328 499.92,188.437 499.662,187.496C499.126,185.609 499.152,183.558 498.896,181.531C498.64,179.537 498.02,177.336 496.244,176.114C494.521,174.893 492.202,174.527 490.655,172.914C489.134,171.331 488.556,169.253 488.225,167.376C487.907,165.477 487.78,163.668 487.352,162.048C486.937,160.429 486.184,159.038 485.346,157.891C483.621,155.604 481.556,154.381 480.104,153.745C478.623,153.128 477.727,153.006 477.739,152.949C477.742,152.931 477.964,152.961 478.385,153.035C478.805,153.113 479.417,153.274 480.181,153.557C481.68,154.146 483.825,155.343 485.64,157.669C486.521,158.833 487.32,160.264 487.769,161.937C488.228,163.603 488.371,165.432 488.697,167.293C489.03,169.128 489.614,171.111 491.019,172.556C492.411,174.029 494.66,174.386 496.547,175.69C497.494,176.35 498.198,177.312 498.619,178.334C499.05,179.356 499.269,180.424 499.401,181.465C499.655,183.554 499.621,185.56 500.125,187.368C500.365,188.268 500.742,189.1 501.267,189.795C501.792,190.489 502.465,191.033 503.161,191.489C504.561,192.398 506.045,192.997 507.272,193.8C508.505,194.579 509.496,195.563 509.982,196.652C510.462,197.758 510.364,198.844 510.085,199.615C509.803,200.402 509.312,200.884 508.94,201.1C508.564,201.32 508.329,201.337 508.329,201.337Z" style="fill:rgb(51,88,99);fill-rule:nonzero;"/>
        <path d="M484.178,203.53C484.107,203.505 484.803,202.954 484.837,201.576C484.857,200.906 484.703,200.075 484.322,199.195C483.944,198.31 483.33,197.38 482.804,196.243C482.259,195.125 481.99,193.642 482.381,192.192C482.733,190.737 483.508,189.359 484.222,187.911C484.943,186.47 485.576,184.886 485.526,183.152C485.513,181.424 484.899,179.684 483.784,178.219C482.685,176.736 481.319,175.486 480.246,174.033C479.71,173.308 479.258,172.524 478.952,171.697C478.648,170.87 478.501,170.016 478.442,169.188C478.334,167.526 478.567,165.966 478.804,164.538C479.046,163.108 479.288,161.787 479.375,160.571C479.595,158.137 479.022,156.172 478.311,155.022C477.606,153.853 476.91,153.453 476.957,153.404C476.964,153.394 477.136,153.485 477.42,153.715C477.704,153.944 478.099,154.328 478.482,154.914C479.271,156.064 479.921,158.099 479.742,160.595C479.678,161.839 479.452,163.18 479.231,164.606C479.013,166.03 478.804,167.56 478.921,169.153C478.983,169.947 479.129,170.753 479.419,171.526C479.71,172.296 480.137,173.032 480.656,173.729C481.693,175.128 483.06,176.372 484.203,177.91C485.369,179.436 486.035,181.319 486.037,183.145C486.084,184.99 485.391,186.684 484.651,188.125C483.916,189.583 483.148,190.926 482.801,192.295C482.419,193.663 482.64,194.997 483.14,196.094C483.627,197.203 484.225,198.157 484.592,199.084C484.962,200.01 485.091,200.882 485.04,201.586C484.992,202.293 484.766,202.816 484.556,203.117C484.347,203.425 484.178,203.53 484.178,203.53Z" style="fill:rgb(51,88,99);fill-rule:nonzero;"/>
        <path d="M466.66,202.71C466.66,202.71 466.504,202.578 466.368,202.226C466.231,201.879 466.168,201.291 466.39,200.608C466.591,199.919 467.127,199.169 467.911,198.546C468.673,197.898 469.673,197.343 470.471,196.436C471.274,195.537 471.898,194.309 472.115,192.907C472.366,191.494 472.012,189.991 471.404,188.476C470.835,186.977 470.087,185.256 470.352,183.374C470.572,181.52 471.464,179.823 472.248,178.119C473.05,176.419 473.692,174.681 473.591,172.937C473.513,171.194 472.947,169.556 472.511,167.971C471.552,164.799 471.507,161.667 472.269,159.253C473.007,156.818 474.432,155.212 475.529,154.361C476.083,153.927 476.562,153.661 476.894,153.501C477.228,153.347 477.411,153.285 477.418,153.299C477.445,153.349 476.709,153.627 475.658,154.517C474.624,155.396 473.29,156.991 472.621,159.357C471.932,161.71 472.006,164.729 472.973,167.84C473.415,169.408 474.008,171.069 474.101,172.915C474.217,174.78 473.526,176.632 472.721,178.337C471.926,180.056 471.066,181.709 470.858,183.434C470.604,185.163 471.284,186.775 471.854,188.308C472.138,189.081 472.406,189.857 472.537,190.649C472.679,191.442 472.661,192.234 472.542,192.975C472.291,194.462 471.61,195.749 470.743,196.683C469.87,197.633 468.847,198.164 468.094,198.773C467.315,199.359 466.805,200.03 466.581,200.673C466.345,201.308 466.369,201.855 466.468,202.194C466.565,202.537 466.683,202.696 466.66,202.71Z" style="fill:rgb(51,88,99);fill-rule:nonzero;"/>
        <path d="M53.627,396.359C53.618,396.354 53.68,396.204 53.811,395.917C53.957,395.605 54.153,395.187 54.403,394.654C54.907,393.536 55.562,391.845 56.146,389.594C57.298,385.095 57.7,378.22 55.997,370.054C55.206,365.966 53.93,361.58 52.373,356.93C50.839,352.272 49.058,347.33 47.602,341.987C46.163,336.658 45.027,330.872 45.247,324.808C45.467,318.731 47.266,312.665 49.245,306.627C51.219,300.579 53.261,294.668 53.873,288.723C54.566,282.787 53.294,276.961 50.591,272.187C47.972,267.362 44.677,263.235 42.211,258.961C39.707,254.7 38.14,250.319 37.175,246.246C35.303,238.031 35.959,231.11 36.856,226.548C37.827,221.962 38.911,219.591 38.911,219.591C38.921,219.595 38.88,219.751 38.789,220.054C38.687,220.383 38.548,220.824 38.373,221.387C38.011,222.559 37.541,224.309 37.095,226.594C36.276,231.146 35.697,238.021 37.607,246.145C38.591,250.174 40.165,254.496 42.66,258.698C45.12,262.921 48.429,267.03 51.1,271.912C53.86,276.739 55.188,282.756 54.485,288.784C53.869,294.83 51.812,300.781 49.842,306.821C47.863,312.854 46.086,318.857 45.861,324.831C45.636,330.803 46.744,336.532 48.16,341.837C49.591,347.154 51.352,352.096 52.867,356.768C54.405,361.432 55.665,365.853 56.432,369.97C58.091,378.196 57.618,385.14 56.382,389.655C55.758,391.914 55.061,393.603 54.518,394.706C54.244,395.23 54.028,395.641 53.867,395.947C53.718,396.225 53.637,396.364 53.627,396.359Z" style="fill:rgb(12,43,52);fill-rule:nonzero;"/>
        <path d="M45.56,263.178C45.56,263.178 40.553,247.166 49.535,237.791C49.851,237.462 50.405,237.617 50.487,238.067C50.966,240.71 51.566,248.764 45.56,263.178Z" style="fill:rgb(241,91,102);fill-rule:nonzero;"/>
        <path d="M48.56,243.126C48.645,243.143 48.502,244.27 48.223,246.08C47.894,248.115 47.507,250.503 47.081,253.143C46.662,255.781 46.282,258.17 45.96,260.204C45.685,262.013 45.521,263.134 45.429,263.126C45.348,263.12 45.357,261.981 45.519,260.151C45.685,258.321 46.007,255.804 46.461,253.041C46.913,250.279 47.395,247.791 47.787,245.999C48.178,244.207 48.475,243.11 48.56,243.126Z" style="fill:rgb(12,43,52);fill-rule:nonzero;"/>
        <path d="M51.442,300.941C51.442,300.941 54.504,284.446 66.827,280.361C67.26,280.217 67.678,280.614 67.54,281.049C66.728,283.611 63.491,291.009 51.442,300.941Z" style="fill:rgb(241,91,102);fill-rule:nonzero;"/>
        <path d="M63.47,284.62C63.538,284.675 62.884,285.604 61.791,287.073C60.548,288.718 59.09,290.649 57.479,292.781C55.874,294.919 54.422,296.853 53.186,298.499C52.097,299.97 51.428,300.884 51.35,300.835C51.281,300.791 51.821,299.788 52.821,298.246C53.823,296.706 55.285,294.633 56.979,292.403C58.67,290.172 60.259,288.199 61.443,286.798C62.627,285.397 63.403,284.566 63.47,284.62Z" style="fill:rgb(12,43,52);fill-rule:nonzero;"/>
        <path d="M48.112,342.319C48.112,342.319 46.252,325.648 56.857,318.158C57.229,317.896 57.744,318.154 57.739,318.61C57.705,321.297 56.757,329.318 48.112,342.319Z" style="fill:rgb(241,91,102);fill-rule:nonzero;"/>
        <path d="M54.882,323.209C54.962,323.242 54.607,324.32 53.987,326.045C53.276,327.98 52.441,330.25 51.519,332.759C50.604,335.27 49.776,337.542 49.071,339.478C48.457,341.2 48.082,342.27 47.993,342.245C47.915,342.224 48.14,341.107 48.649,339.341C49.161,337.576 49.958,335.167 50.93,332.542C51.9,329.916 52.848,327.567 53.575,325.882C54.3,324.197 54.802,323.177 54.882,323.209Z" style="fill:rgb(12,43,52);fill-rule:nonzero;"/>
        <path d="M57.395,383.941C57.395,383.941 56.133,367.212 66.999,360.108C67.381,359.859 67.886,360.136 67.864,360.591C67.734,363.275 66.5,371.256 57.395,383.941Z" style="fill:rgb(241,91,102);fill-rule:nonzero;"/>
        <path d="M64.845,365.085C64.924,365.12 64.53,366.186 63.849,367.887C63.069,369.794 62.153,372.034 61.142,374.508C60.138,376.985 59.229,379.226 58.455,381.135C57.78,382.834 57.367,383.89 57.279,383.862C57.201,383.837 57.467,382.73 58.039,380.983C58.613,379.238 59.495,376.86 60.562,374.27C61.625,371.681 62.656,369.366 63.443,367.709C64.228,366.051 64.766,365.049 64.845,365.085Z" style="fill:rgb(12,43,52);fill-rule:nonzero;"/>
        <path d="M38.364,249.11C38.364,249.11 23.494,241.344 23.203,228.364C23.192,227.908 23.695,227.626 24.069,227.885C26.28,229.413 32.404,234.678 38.364,249.11Z" style="fill:rgb(241,91,102);fill-rule:nonzero;"/>
        <path d="M26.29,232.823C26.362,232.775 27.058,233.672 28.143,235.149C29.351,236.819 30.769,238.779 32.335,240.945C33.907,243.106 35.33,245.062 36.542,246.727C37.628,248.198 38.306,249.107 38.236,249.166C38.174,249.22 37.374,248.409 36.193,247.001C35.015,245.591 33.461,243.585 31.826,241.313C30.19,239.041 28.769,236.943 27.777,235.4C26.785,233.858 26.218,232.871 26.29,232.823Z" style="fill:rgb(12,43,52);fill-rule:nonzero;"/>
        <path d="M54.332,283.496C54.332,283.496 39.018,276.648 37.939,263.709C37.9,263.255 38.385,262.943 38.775,263.179C41.074,264.569 47.506,269.452 54.332,283.496Z" style="fill:rgb(241,91,102);fill-rule:nonzero;"/>
        <path d="M41.291,267.973C41.36,267.92 42.109,268.773 43.282,270.181C44.589,271.775 46.123,273.646 47.818,275.712C49.519,277.774 51.058,279.639 52.368,281.228C53.542,282.631 54.274,283.496 54.207,283.561C54.149,283.617 53.301,282.857 52.037,281.523C50.775,280.188 49.102,278.279 47.332,276.11C45.561,273.943 44.016,271.934 42.932,270.454C41.848,268.975 41.222,268.025 41.291,267.973Z" style="fill:rgb(12,43,52);fill-rule:nonzero;"/>
        <path d="M45.521,321.852C45.521,321.852 35.005,308.779 39.938,296.77C40.11,296.349 40.684,296.29 40.924,296.678C42.337,298.964 45.839,306.24 45.521,321.852Z" style="fill:rgb(241,91,102);fill-rule:nonzero;"/>
        <path d="M40.981,302.092C41.066,302.077 41.344,303.178 41.747,304.965C42.185,306.98 42.698,309.344 43.266,311.955C43.841,314.566 44.361,316.927 44.805,318.939C45.211,320.722 45.468,321.825 45.38,321.853C45.302,321.876 44.893,320.813 44.376,319.049C43.86,317.286 43.24,314.825 42.653,312.088C42.063,309.352 41.602,306.861 41.311,305.049C41.02,303.237 40.896,302.108 40.981,302.092Z" style="fill:rgb(12,43,52);fill-rule:nonzero;"/>
        <path d="M55.936,366.988C55.936,366.988 40.739,359.884 39.877,346.929C39.847,346.475 40.336,346.17 40.722,346.412C42.997,347.842 49.347,352.832 55.936,366.988Z" style="fill:rgb(241,91,102);fill-rule:nonzero;"/>
        <path d="M43.158,351.247C43.228,351.196 43.963,352.062 45.111,353.489C46.391,355.105 47.894,357.001 49.554,359.097C51.219,361.186 52.727,363.076 54.01,364.688C55.16,366.11 55.877,366.987 55.81,367.05C55.751,367.106 54.916,366.331 53.674,364.977C52.435,363.62 50.795,361.684 49.061,359.485C47.327,357.288 45.816,355.255 44.757,353.757C43.697,352.259 43.088,351.299 43.158,351.247Z" style="fill:rgb(12,43,52);fill-rule:nonzero;"/>
        <path d="M86.207,301.03C86.221,301.031 86.227,301.157 86.226,301.4C86.218,301.693 86.21,302.045 86.199,302.473C86.154,303.481 86.094,304.842 86.019,306.54C85.823,310.116 85.55,315.103 85.223,321.066L85.223,321.081L85.219,321.102C84.134,327.172 81.043,333.901 76.89,340.433C73.844,345.245 70.651,349.62 67.897,353.689C65.125,357.746 62.785,361.504 61.154,364.835C59.512,368.16 58.558,371.018 58,373.014C57.732,374.016 57.531,374.797 57.416,375.332C57.291,375.865 57.215,376.144 57.194,376.14C57.173,376.136 57.207,375.85 57.292,375.308C57.368,374.764 57.531,373.97 57.763,372.952C58.252,370.926 59.15,368.02 60.754,364.642C62.348,361.258 64.666,357.449 67.417,353.365C70.152,349.268 73.329,344.886 76.359,340.099C80.49,333.598 83.565,326.972 84.69,320.999L84.686,321.033C85.105,315.074 85.455,310.093 85.706,306.521C85.843,304.826 85.953,303.468 86.034,302.462C86.077,302.036 86.112,301.686 86.142,301.395C86.171,301.153 86.193,301.029 86.207,301.03Z" style="fill:rgb(12,43,52);fill-rule:nonzero;"/>
        <path d="M77.158,339.184C77.158,339.184 83.594,323.692 75.498,313.542C75.214,313.186 74.647,313.291 74.525,313.731C73.808,316.32 72.482,324.286 77.158,339.184Z" style="fill:rgb(241,91,102);fill-rule:nonzero;"/>
        <path d="M75.986,318.943C76.072,318.935 76.269,320.055 76.496,321.875C76.724,323.695 76.979,326.216 77.178,329.008C77.38,331.801 77.473,334.336 77.473,336.174C77.469,338.011 77.374,339.147 77.293,339.146C77.201,339.145 77.139,338.013 77.029,336.187C76.892,334.132 76.731,331.719 76.552,329.053C76.366,326.386 76.198,323.972 76.054,321.916C75.94,320.087 75.899,318.953 75.986,318.943Z" style="fill:rgb(12,43,52);fill-rule:nonzero;"/>
        <path d="M77.158,339.184C74.509,330.746 73.787,324.531 73.788,320.258C73.789,316.987 74.214,314.853 74.525,313.731C74.597,313.471 74.824,313.328 75.057,313.328C75.218,313.328 75.382,313.396 75.498,313.542C78.621,317.458 79.582,322.168 79.583,326.477C79.586,332.009 78.008,336.88 77.396,338.56C77.438,338.05 77.471,337.227 77.473,336.174C77.473,334.336 77.38,331.801 77.178,329.008C76.979,326.216 76.724,323.695 76.496,321.875C76.27,320.062 76.073,318.943 75.987,318.943L75.986,318.943C75.899,318.953 75.94,320.087 76.054,321.916C76.198,323.972 76.366,326.386 76.552,329.053C76.731,331.719 76.892,334.132 77.029,336.187C77.115,337.614 77.171,338.617 77.236,338.987C77.186,339.116 77.158,339.184 77.158,339.184Z" style="fill:rgb(186,61,72);fill-rule:nonzero;"/>
        <path d="M77.236,338.987C77.171,338.617 77.115,337.614 77.029,336.187C76.892,334.132 76.731,331.719 76.552,329.053C76.366,326.386 76.198,323.972 76.054,321.916C75.94,320.087 75.899,318.953 75.986,318.943L75.987,318.943C76.073,318.943 76.27,320.062 76.496,321.875C76.724,323.695 76.979,326.216 77.178,329.008C77.38,331.801 77.473,334.336 77.473,336.174C77.471,337.227 77.438,338.05 77.396,338.56C77.331,338.74 77.276,338.884 77.236,338.987Z" style="fill:rgb(1,23,33);fill-rule:nonzero;"/>
        <path d="M57.223,376.518C57.223,376.518 62.381,360.555 53.489,351.095C53.177,350.763 52.62,350.913 52.535,351.361C52.03,354 51.354,362.048 57.223,376.518Z" style="fill:rgb(241,91,102);fill-rule:nonzero;"/>
        <path d="M54.413,356.439C54.499,356.423 54.785,357.523 55.16,359.318C55.534,361.115 55.993,363.607 56.418,366.373C56.846,369.14 57.144,371.66 57.293,373.491C57.438,375.323 57.435,376.462 57.354,376.468C57.262,376.474 57.109,375.352 56.852,373.54C56.548,371.503 56.191,369.111 55.797,366.468C55.396,363.825 55.032,361.434 54.723,359.396C54.461,357.582 54.328,356.455 54.413,356.439Z" style="fill:rgb(12,43,52);fill-rule:nonzero;"/>
        <path d="M57.223,376.518C53.119,366.4 52.215,359.422 52.216,355.238C52.216,353.438 52.383,352.154 52.535,351.361C52.589,351.079 52.829,350.915 53.078,350.915C53.224,350.915 53.373,350.972 53.489,351.095C57.605,355.474 58.711,361.246 58.711,366.184C58.711,370.643 57.809,374.422 57.41,375.877C57.411,375.366 57.376,374.543 57.293,373.491C57.144,371.66 56.846,369.14 56.418,366.373C55.993,363.607 55.534,361.115 55.16,359.318C54.788,357.535 54.503,356.439 54.415,356.439L54.413,356.439C54.328,356.455 54.461,357.582 54.723,359.396C55.032,361.434 55.396,363.825 55.797,366.468C56.191,369.111 56.548,371.503 56.852,373.54C57.053,374.957 57.19,375.951 57.285,376.315C57.245,376.448 57.223,376.518 57.223,376.518Z" style="fill:rgb(186,61,72);fill-rule:nonzero;"/>
        <path d="M57.285,376.315C57.19,375.951 57.053,374.957 56.852,373.54C56.548,371.503 56.191,369.111 55.797,366.468C55.396,363.825 55.032,361.434 54.723,359.396C54.461,357.582 54.328,356.455 54.413,356.439L54.415,356.439C54.503,356.439 54.788,357.535 55.16,359.318C55.534,361.115 55.993,363.607 56.418,366.373C56.846,369.14 57.144,371.66 57.293,373.491C57.376,374.543 57.411,375.366 57.41,375.877C57.359,376.062 57.316,376.209 57.285,376.315Z" style="fill:rgb(1,23,33);fill-rule:nonzero;"/>
        <path d="M85.354,320.251C85.354,320.251 99.098,310.63 97.711,297.722C97.662,297.268 97.128,297.053 96.789,297.358C94.795,299.158 89.401,305.17 85.354,320.251Z" style="fill:rgb(241,91,102);fill-rule:nonzero;"/>
        <path d="M85.354,320.251C89.401,305.17 94.795,299.158 96.789,297.358C96.898,297.26 97.027,297.215 97.153,297.215C97.421,297.215 97.678,297.414 97.711,297.722C97.777,298.34 97.809,298.95 97.809,299.552C97.814,311.529 85.354,320.251 85.354,320.251Z" style="fill:rgb(186,61,72);fill-rule:nonzero;"/>
        <path d="M95.225,302.541C95.302,302.58 94.868,303.631 94.083,305.288C93.298,306.946 92.161,309.211 90.831,311.674C89.504,314.14 88.222,316.329 87.235,317.879C86.246,319.428 85.557,320.335 85.489,320.29C85.412,320.24 85.967,319.252 86.854,317.653C87.841,315.845 88.999,313.722 90.279,311.376C91.553,309.026 92.706,306.899 93.688,305.086C94.572,303.483 95.147,302.503 95.225,302.541Z" style="fill:rgb(12,43,52);fill-rule:nonzero;"/>
        <path d="M62.764,360.692C62.764,360.692 79.34,358.108 83.78,345.907C83.936,345.479 83.551,345.05 83.113,345.175C80.529,345.913 73.04,348.935 62.764,360.692Z" style="fill:rgb(241,91,102);fill-rule:nonzero;"/>
        <path d="M62.764,360.692C73.04,348.935 80.529,345.913 83.113,345.175C83.166,345.16 83.217,345.153 83.268,345.153C83.57,345.153 83.814,345.407 83.816,345.706C83.816,345.772 83.805,345.84 83.78,345.907C79.894,356.585 66.713,359.897 63.483,360.557C63.155,360.624 62.93,360.664 62.827,360.681C62.786,360.688 62.764,360.692 62.764,360.692Z" style="fill:rgb(186,61,72);fill-rule:nonzero;"/>
        <path d="M79.425,349.14C79.478,349.208 78.625,349.96 77.19,351.103C75.756,352.246 73.737,353.779 71.459,355.404C69.181,357.032 67.066,358.434 65.498,359.391C63.928,360.346 62.909,360.857 62.868,360.786C62.821,360.707 63.754,360.065 65.255,359.02C66.937,357.831 68.912,356.436 71.094,354.893C73.273,353.344 75.245,351.942 76.924,350.747C78.426,349.697 79.373,349.071 79.425,349.14Z" style="fill:rgb(12,43,52);fill-rule:nonzero;"/>
        <path d="M46.952,391.196L42.116,423.74L72.249,423.74L68.342,391.196L46.952,391.196Z" style="fill:rgb(51,88,99);fill-rule:nonzero;"/>
        <path d="M69.547,401.28C69.547,401.454 64.106,401.595 57.397,401.595C50.685,401.595 45.245,401.454 45.245,401.28C45.245,401.108 50.685,400.967 57.397,400.967C64.106,400.967 69.547,401.108 69.547,401.28Z" style="fill:rgb(12,43,52);fill-rule:nonzero;"/>
        <path d="M70.145,403.87C70.145,404.043 64.525,404.184 57.596,404.184C50.664,404.184 45.046,404.043 45.046,403.87C45.046,403.696 50.664,403.557 57.596,403.557C64.525,403.557 70.145,403.696 70.145,403.87Z" style="fill:rgb(12,43,52);fill-rule:nonzero;"/>
        <path d="M606.67,380.181C604.521,380.706 602.732,382.304 601.642,384.23C600.552,386.154 600.102,388.385 599.976,390.595C599.732,394.869 601.391,399.51 603.382,403.3C607.44,400.822 609.174,395.586 609.886,392.875C611.012,388.589 610.444,380.159 606.67,380.181Z" style="fill:rgb(241,91,102);fill-rule:nonzero;"/>
        <path d="M598.092,409.517C599.064,407.243 598.523,404.475 596.982,402.543C595.44,400.611 593.016,399.489 590.555,399.259C589.417,399.153 588.147,399.272 587.345,400.087C586.596,400.849 586.456,402.067 586.784,403.083C587.112,404.101 587.837,404.943 588.634,405.655C591.364,408.099 594.455,409.962 598.092,409.517Z" style="fill:rgb(241,91,102);fill-rule:nonzero;"/>
        <path d="M600.418,423.149C600.44,423.148 600.444,422.833 600.44,422.267C600.433,421.642 600.423,420.835 600.411,419.865C600.355,417.853 600.331,414.98 599.282,412.015C598.253,409.061 596.505,406.715 594.916,405.428C594.129,404.773 593.417,404.341 592.904,404.092C592.653,403.956 592.441,403.885 592.305,403.825C592.165,403.77 592.09,403.746 592.086,403.756C592.049,403.82 593.259,404.258 594.773,405.594C596.296,406.9 597.977,409.213 598.99,412.117C600.019,415.022 600.08,417.862 600.192,419.872C600.239,420.885 600.277,421.705 600.319,422.272C600.36,422.838 600.398,423.15 600.418,423.149Z" style="fill:rgb(12,43,52);fill-rule:nonzero;"/>
        <path d="M606.535,386.638C606.524,386.636 606.488,386.763 606.428,387.007C606.363,387.283 606.28,387.638 606.179,388.076C605.968,389.007 605.68,390.357 605.338,392.027C604.653,395.368 603.773,399.997 602.915,405.13C602.06,410.265 601.39,414.93 600.952,418.312C600.733,420.003 600.567,421.373 600.465,422.321C600.419,422.77 600.382,423.132 600.354,423.414C600.331,423.664 600.325,423.796 600.336,423.797C600.347,423.799 600.373,423.669 600.415,423.422C600.459,423.142 600.516,422.781 600.585,422.337C600.729,421.355 600.927,420 601.17,418.342C601.662,414.969 602.366,410.313 603.222,405.181C604.078,400.052 604.924,395.419 605.553,392.07C605.861,390.422 606.114,389.076 606.297,388.101C606.376,387.657 606.44,387.299 606.489,387.02C606.529,386.772 606.546,386.64 606.535,386.638Z" style="fill:rgb(12,43,52);fill-rule:nonzero;"/>
        <path d="M603.764,413.115C605.437,408.18 609.641,404.179 614.653,402.754C615.93,402.391 617.534,402.285 618.354,403.329C619.175,404.374 618.687,405.915 618.002,407.055C615.154,411.796 609.229,414.473 603.788,413.475" style="fill:rgb(241,91,102);fill-rule:nonzero;"/>
        <path d="M613.4,406.633C613.395,406.612 613.108,406.684 612.595,406.831C612.338,406.904 612.023,406.992 611.671,407.137C611.32,407.281 610.903,407.408 610.478,407.629C610.046,407.835 609.566,408.05 609.085,408.346C608.588,408.612 608.091,408.952 607.568,409.313C606.546,410.061 605.486,410.981 604.526,412.09C603.577,413.208 602.824,414.394 602.248,415.523C601.977,416.097 601.717,416.641 601.537,417.176C601.324,417.699 601.191,418.208 601.064,418.669C600.918,419.126 600.866,419.56 600.787,419.931C600.706,420.302 600.675,420.628 600.651,420.895C600.6,421.427 600.581,421.721 600.603,421.723C600.672,421.732 600.751,420.547 601.274,418.729C601.415,418.277 601.558,417.779 601.777,417.268C601.964,416.744 602.23,416.213 602.502,415.653C603.084,414.549 603.829,413.391 604.762,412.292C605.705,411.202 606.739,410.292 607.737,409.544C608.246,409.183 608.731,408.84 609.215,408.568C609.684,408.267 610.151,408.043 610.571,407.826C612.274,406.999 613.421,406.697 613.4,406.633Z" style="fill:rgb(12,43,52);fill-rule:nonzero;"/>
    </g>
</svg>
