<?xml version="1.0" encoding="UTF-8" standalone="no"?>
<!DOCTYPE svg PUBLIC "-//W3C//DTD SVG 1.1//EN" "http://www.w3.org/Graphics/SVG/1.1/DTD/svg11.dtd">
<svg width="100%" height="100%" viewBox="0 0 1913 1775" version="1.1" xmlns="http://www.w3.org/2000/svg" xmlns:xlink="http://www.w3.org/1999/xlink" xml:space="preserve" xmlns:serif="http://www.serif.com/" style="fill-rule:evenodd;clip-rule:evenodd;stroke-linejoin:round;stroke-miterlimit:2;">
    <g transform="matrix(4.16667,0,0,4.16667,0,0)">
        <rect x="19.617" y="1.472" width="207.475" height="185.619" style="fill:rgb(249,249,249);fill-rule:nonzero;"/>
        <path d="M227.092,187.091C227.092,187.091 227.058,185.901 227.04,183.646C227.027,181.368 227.009,178.038 226.985,173.7C226.958,164.985 226.916,152.247 226.863,136.021C226.805,103.589 226.722,57.247 226.622,1.472L227.092,1.942C167.34,1.967 96.032,1.995 19.635,2.026L19.617,2.026L20.171,1.472C20.147,69.003 20.124,132.548 20.105,187.09L19.617,186.603C81.511,186.704 133.314,186.79 169.678,186.849C187.871,186.904 202.195,186.948 212.002,186.978C216.888,187.002 220.642,187.022 223.207,187.035C224.462,187.047 225.421,187.057 226.096,187.063C226.747,187.072 227.092,187.091 227.092,187.091C227.092,187.091 226.784,187.109 226.151,187.119C225.489,187.125 224.547,187.134 223.315,187.146C220.772,187.16 217.05,187.178 212.206,187.203C202.424,187.233 188.137,187.277 169.992,187.332C133.552,187.392 81.64,187.477 19.617,187.579L19.128,187.58L19.128,187.09C19.109,132.548 19.086,69.003 19.062,1.472L19.062,0.918L19.635,0.918C96.032,0.948 167.34,0.977 227.092,1.001L227.563,1.001L227.563,1.472C227.462,57.371 227.379,103.815 227.32,136.319C227.268,152.499 227.227,165.202 227.199,173.892C227.175,178.19 227.157,181.491 227.145,183.748C227.127,185.97 227.092,187.091 227.092,187.091Z" style="fill:rgb(215,217,217);fill-rule:nonzero;"/>
        <path d="M99.17,34.453C99.17,34.759 88.25,35.007 74.782,35.007C61.309,35.007 50.391,34.759 50.391,34.453C50.391,34.147 61.309,33.898 74.782,33.898C88.25,33.898 99.17,34.147 99.17,34.453Z" style="fill:rgb(215,217,217);fill-rule:nonzero;"/>
        <path d="M187.081,48.39C187.081,48.696 157.079,48.944 120.079,48.944C83.065,48.944 53.07,48.696 53.07,48.39C53.07,48.084 83.065,47.835 120.079,47.835C157.079,47.835 187.081,48.084 187.081,48.39Z" style="fill:rgb(215,217,217);fill-rule:nonzero;"/>
        <rect x="50.748" y="71.998" width="8.741" height="8.741" style="fill:rgb(215,217,217);fill-rule:nonzero;"/>
        <rect x="72.264" y="71.998" width="8.74" height="8.741" style="fill:rgb(215,217,217);fill-rule:nonzero;"/>
        <rect x="94.177" y="71.602" width="8.741" height="8.74" style="fill:rgb(215,217,217);fill-rule:nonzero;"/>
        <rect x="115.296" y="71.998" width="8.741" height="8.741" style="fill:rgb(215,217,217);fill-rule:nonzero;"/>
        <rect x="136.813" y="71.998" width="8.74" height="8.741" style="fill:rgb(215,217,217);fill-rule:nonzero;"/>
        <rect x="158.329" y="71.998" width="8.74" height="8.741" style="fill:rgb(215,217,217);fill-rule:nonzero;"/>
        <rect x="179.844" y="71.998" width="8.741" height="8.741" style="fill:rgb(229,229,228);fill-rule:nonzero;"/>
        <rect x="50.748" y="90.581" width="8.741" height="8.74" style="fill:rgb(229,229,228);fill-rule:nonzero;"/>
        <rect x="72.264" y="90.581" width="8.74" height="8.74" style="fill:rgb(215,217,217);fill-rule:nonzero;"/>
        <rect x="93.78" y="90.581" width="8.741" height="8.74" style="fill:rgb(229,229,228);fill-rule:nonzero;"/>
        <rect x="115.296" y="90.581" width="8.741" height="8.74" style="fill:rgb(215,217,217);fill-rule:nonzero;"/>
        <rect x="136.813" y="90.581" width="8.74" height="8.74" style="fill:rgb(215,217,217);fill-rule:nonzero;"/>
        <rect x="158.725" y="90.184" width="8.741" height="8.741" style="fill:rgb(215,217,217);fill-rule:nonzero;"/>
        <rect x="179.844" y="90.581" width="8.741" height="8.74" style="fill:rgb(215,217,217);fill-rule:nonzero;"/>
        <rect x="50.748" y="109.163" width="8.741" height="8.741" style="fill:rgb(215,217,217);fill-rule:nonzero;"/>
        <rect x="72.66" y="108.766" width="8.741" height="8.741" style="fill:rgb(215,217,217);fill-rule:nonzero;"/>
        <rect x="93.78" y="109.163" width="8.741" height="8.741" style="fill:rgb(215,217,217);fill-rule:nonzero;"/>
        <rect x="115.296" y="109.163" width="8.741" height="8.741" style="fill:rgb(229,229,228);fill-rule:nonzero;"/>
        <rect x="136.813" y="109.163" width="8.74" height="8.741" style="fill:rgb(215,217,217);fill-rule:nonzero;"/>
        <rect x="158.329" y="109.163" width="8.74" height="8.741" style="fill:rgb(215,217,217);fill-rule:nonzero;"/>
        <rect x="179.844" y="109.163" width="8.741" height="8.741" style="fill:rgb(215,217,217);fill-rule:nonzero;"/>
        <rect x="50.748" y="127.745" width="8.741" height="8.741" style="fill:rgb(215,217,217);fill-rule:nonzero;"/>
        <rect x="72.264" y="127.745" width="8.74" height="8.741" style="fill:rgb(215,217,217);fill-rule:nonzero;"/>
        <rect x="93.78" y="127.745" width="8.741" height="8.741" style="fill:rgb(215,217,217);fill-rule:nonzero;"/>
        <rect x="115.693" y="127.349" width="8.741" height="8.74" style="fill:rgb(215,217,217);fill-rule:nonzero;"/>
        <rect x="136.813" y="127.745" width="8.74" height="8.741" style="fill:rgb(215,217,217);fill-rule:nonzero;"/>
        <rect x="158.329" y="127.745" width="8.74" height="8.741" style="fill:rgb(229,229,228);fill-rule:nonzero;"/>
        <rect x="179.844" y="127.745" width="8.741" height="8.741" style="fill:rgb(215,217,217);fill-rule:nonzero;"/>
        <rect x="50.748" y="146.328" width="8.741" height="8.741" style="fill:rgb(215,217,217);fill-rule:nonzero;"/>
        <rect x="72.264" y="146.328" width="8.74" height="8.741" style="fill:rgb(229,229,228);fill-rule:nonzero;"/>
        <rect x="93.78" y="146.328" width="8.741" height="8.741" style="fill:rgb(215,217,217);fill-rule:nonzero;"/>
        <rect x="115.296" y="146.328" width="8.741" height="8.741" style="fill:rgb(215,217,217);fill-rule:nonzero;"/>
        <rect x="136.813" y="146.328" width="8.74" height="8.741" style="fill:rgb(215,217,217);fill-rule:nonzero;"/>
        <rect x="158.725" y="145.931" width="8.741" height="8.741" style="fill:rgb(215,217,217);fill-rule:nonzero;"/>
        <rect x="179.844" y="146.328" width="8.741" height="8.741" style="fill:rgb(215,217,217);fill-rule:nonzero;"/>
        <path d="M409.802,250.976C419.046,246.207 429.932,245.586 440.195,247.283C445.709,248.195 451.458,249.844 455.21,253.986C458.962,258.127 459.673,265.417 455.365,268.975C452.8,271.094 449.224,271.416 445.897,271.377C437.863,271.284 428.948,269.869 422.529,274.703C418.867,277.461 416.43,282.046 412.051,283.403C407.768,284.73 402.934,282.202 400.662,278.335C398.391,274.469 398.314,269.636 399.374,265.28C399.374,265.28 400.488,255.782 409.802,250.976Z" style="fill:rgb(229,229,228);fill-rule:nonzero;"/>
        <path d="M388.621,210.089C394.274,218.163 405.261,215.49 410.355,210.562C415.449,205.633 417.603,198.491 419.563,191.68C424.041,176.117 428.556,159.791 425.227,143.943C424.23,139.205 422.459,134.48 419.13,130.964C415.8,127.45 410.681,125.358 405.999,126.595C400.46,128.059 397.017,133.484 394.528,138.646C387.214,153.817 383.341,170.637 383.283,187.48C383.256,195.346 384.184,203.595 388.621,210.089Z" style="fill:rgb(229,229,228);fill-rule:nonzero;"/>
        <path d="M373.097,221.674C379.235,214.389 380.399,203.765 377.669,194.639C374.938,185.513 368.767,177.75 361.656,171.412C353.318,163.981 343.518,158.198 332.982,154.493C328.836,153.036 324.463,151.885 320.087,152.303C315.712,152.72 311.306,154.957 309.265,158.85C306.248,164.606 309.141,171.586 312.27,177.281C317.783,187.315 324.087,196.914 331.104,205.96C336.748,213.238 343.214,220.417 351.817,223.706C360.42,226.994 369.356,226.607 373.916,220.641" style="fill:rgb(229,229,228);fill-rule:nonzero;"/>
        <path d="M388.238,331.882C388.344,331.888 388.516,330.581 388.749,328.213C389.01,325.543 389.336,322.191 389.724,318.202C390.19,313.989 390.806,308.975 391.977,303.515C393.143,298.07 394.969,292.168 397.314,286.182C399.743,280.232 402.704,274.824 406.165,270.499C409.602,266.154 413.598,263.01 417.355,261.196C421.1,259.346 424.458,258.596 426.779,258.261C429.12,258.021 430.431,257.836 430.432,257.732C430.433,257.627 429.119,257.611 426.714,257.675C424.332,257.834 420.835,258.437 416.888,260.232C412.929,261.989 408.689,265.181 405.084,269.616C401.45,274.032 398.381,279.559 395.909,285.615C393.523,291.706 391.725,297.668 390.609,303.232C389.498,308.787 388.99,313.855 388.657,318.104C388.339,322.355 388.219,325.798 388.161,328.178C388.107,330.558 388.135,331.877 388.238,331.882Z" style="fill:rgb(215,217,217);fill-rule:nonzero;"/>
        <path d="M388.928,324.178C388.98,324.175 389.013,323.589 389.026,322.476C389.023,321.197 389.019,319.585 389.014,317.608C389.002,313.383 389.004,307.269 389.23,299.72C389.604,284.621 390.904,268.371 393.415,245.461C395.793,223.918 398.984,198.848 402.353,182.548C403.075,178.841 403.803,175.504 404.487,172.584C405.14,169.656 405.697,167.132 406.235,165.09C406.698,163.167 407.074,161.601 407.373,160.358C407.617,159.271 407.721,158.693 407.671,158.678C407.621,158.664 407.419,159.213 407.079,160.274C406.708,161.5 406.241,163.043 405.666,164.939C405.039,166.962 404.396,169.471 403.663,172.386C402.899,175.295 402.097,178.624 401.306,182.325C397.973,197.095 394.444,217.737 391.909,240.702C389.394,263.66 388.26,284.563 388.16,299.7C388.07,307.268 388.231,313.395 388.424,317.623C388.545,319.599 388.644,321.21 388.722,322.488C388.807,323.599 388.876,324.181 388.928,324.178Z" style="fill:rgb(215,217,217);fill-rule:nonzero;"/>
        <path d="M389.029,283.862C389.134,283.858 389.116,282.051 388.993,278.776C388.807,275.508 388.357,270.785 387.437,264.999C386.46,259.227 385.097,252.374 382.955,244.925C382.027,241.521 379.846,233.364 374.562,221.173C367.599,204.657 358.14,191.154 349.911,182.79C347.98,180.57 345.831,178.968 344.111,177.399C343.222,176.647 342.436,175.897 341.635,175.302C340.829,174.747 340.079,174.231 339.385,173.752C336.676,171.899 335.159,170.922 335.104,171.011C334.86,171.341 341.17,175.054 349.137,183.53C357.07,191.987 366.266,205.397 373.172,221.775C377.022,230.658 379.708,238.582 381.613,245.309C383.814,252.684 385.276,259.468 386.381,265.182C387.431,270.91 388.039,275.586 388.406,278.825C388.708,282.067 388.925,283.866 389.029,283.862Z" style="fill:rgb(215,217,217);fill-rule:nonzero;"/>
        <path d="M350.061,354.981L354.101,410.328L425.203,410.328L429.243,354.981L350.061,354.981Z" style="fill:rgb(215,217,217);fill-rule:nonzero;"/>
        <rect x="343.193" y="333.166" width="94.534" height="21.815" style="fill:rgb(215,217,217);fill-rule:nonzero;"/>
        <path d="M343.193,408.21L343.193,414.256L436.164,414.256L436.164,408.21L343.193,408.21Z" style="fill:rgb(229,229,228);fill-rule:nonzero;"/>
        <path d="M351.988,424.899L347.635,414.256L432.778,414.256L427.698,424.899L351.988,424.899Z" style="fill:rgb(215,217,217);fill-rule:nonzero;"/>
        <path d="M427.923,373.069C427.938,373.083 427.825,373.254 427.591,373.578C427.309,373.952 426.959,374.416 426.528,374.987C425.519,376.279 424.132,378.054 422.387,380.288L422.202,380.523L422.024,380.277C419.421,376.676 415.942,371.866 411.848,366.203L412.434,366.203C409.406,370.489 406.035,375.263 402.415,380.388L402.101,380.834L401.749,380.416C398.052,376.016 394.036,371.239 389.867,366.278L390.552,366.269C390.346,366.529 390.123,366.81 389.898,367.091C386.214,371.71 382.647,376.182 379.274,380.411L378.92,380.854L378.593,380.392C374.986,375.289 371.616,370.52 368.569,366.21L369.152,366.237C364.213,371.866 360.023,376.638 356.808,380.302L356.589,380.552L356.421,380.271C354.794,377.537 353.496,375.357 352.556,373.777C352.151,373.072 351.825,372.502 351.564,372.047C351.346,371.652 351.242,371.443 351.262,371.431C351.28,371.419 351.421,371.606 351.675,371.979C351.964,372.417 352.325,372.965 352.772,373.643C353.76,375.195 355.122,377.335 356.83,380.019L356.444,379.988C359.608,376.28 363.73,371.448 368.591,365.752L368.897,365.392L369.175,365.779C372.249,370.071 375.648,374.817 379.288,379.897L378.607,379.879C381.972,375.644 385.53,371.167 389.206,366.54C389.43,366.258 389.653,365.978 389.86,365.718L390.198,365.294L390.545,365.71C394.703,370.679 398.707,375.466 402.395,379.875L401.729,379.901C405.385,374.8 408.79,370.05 411.848,365.786L412.145,365.372L412.434,365.786C416.441,371.51 419.846,376.373 422.395,380.012L422.033,380.002C423.849,377.826 425.291,376.095 426.342,374.836C426.81,374.294 427.189,373.855 427.496,373.501C427.762,373.204 427.906,373.056 427.923,373.069Z" style="fill:rgb(240,240,240);fill-rule:nonzero;"/>
        <path d="M430.232,354.616C430.232,354.86 412.416,355.058 390.444,355.058C368.465,355.058 350.652,354.86 350.652,354.616C350.652,354.371 368.465,354.173 390.444,354.173C412.416,354.173 430.232,354.371 430.232,354.616Z" style="fill:rgb(240,240,240);fill-rule:nonzero;"/>
        <path d="M433.824,414.853C433.824,415.097 414.462,415.295 390.583,415.295C366.694,415.295 347.337,415.097 347.337,414.853C347.337,414.609 366.694,414.411 390.583,414.411C414.462,414.411 433.824,414.609 433.824,414.853Z" style="fill:rgb(240,240,240);fill-rule:nonzero;"/>
        <path d="M177.382,204.835L169.385,209.126L151.681,222.756C151.681,222.756 97.451,229.958 95.368,231.52C93.285,233.082 66.315,245.888 62.67,263.072C59.025,280.255 51.525,392.374 51.525,392.374L61.367,425.501L258.876,425.808L305.195,425.15C305.195,425.15 322.994,383.582 322.994,372.126C322.994,360.67 317.787,274.753 317.787,274.753L262.242,235.586L177.382,204.835Z" style="fill:rgb(241,91,102);fill-rule:nonzero;"/>
        <path d="M151.17,221.947C151.184,221.958 151.089,222.117 150.895,222.411C150.663,222.749 150.376,223.167 150.026,223.677C149.246,224.757 148.192,226.374 146.957,228.407C146.361,229.437 145.677,230.545 145.05,231.797C144.375,233.023 143.739,234.375 143.078,235.801C141.793,238.67 140.551,241.901 139.488,245.372C137.394,252.331 136.318,258.846 135.595,263.553C135.265,265.857 134.993,267.749 134.793,269.144C134.701,269.755 134.626,270.258 134.566,270.664C134.508,271.01 134.469,271.192 134.452,271.19C134.434,271.188 134.438,271.002 134.461,270.652C134.496,270.243 134.539,269.737 134.591,269.12C134.711,267.791 134.925,265.87 135.23,263.501C135.861,258.773 136.883,252.223 138.99,245.22C140.059,241.728 141.324,238.479 142.642,235.602C143.319,234.171 143.975,232.818 144.669,231.592C145.317,230.342 146.024,229.238 146.643,228.214C147.925,226.196 149.03,224.604 149.862,223.558C150.244,223.07 150.558,222.67 150.812,222.347C151.033,222.074 151.156,221.936 151.17,221.947Z" style="fill:rgb(12,43,52);fill-rule:nonzero;"/>
        <path d="M167.827,284.14C163.873,282.607 161.264,278.921 158.365,275.827C155.889,273.183 152.551,270.746 149.069,270.746C148.474,270.746 147.874,270.818 147.275,270.971C145.379,271.457 143.788,272.707 142.05,273.606C140.971,274.164 139.724,274.581 138.529,274.581C137.799,274.581 137.089,274.426 136.448,274.052C135.243,273.35 134.749,271.624 135.22,270.427L135.039,270.614C138.214,262.801 141.835,255.866 149.337,252.772C149.962,252.515 149.905,252.142 150.228,252.142C150.32,252.142 150.444,252.173 150.623,252.245C151.648,252.658 152.073,253.85 152.402,254.905C155.706,265.481 160.961,275.444 167.827,284.14Z" style="fill:rgb(186,61,72);fill-rule:nonzero;"/>
        <path d="M134.452,271.19C134.452,271.19 135.343,268.804 137.626,264.83C138.78,262.855 140.292,260.48 142.389,257.984C143.459,256.757 144.666,255.489 146.125,254.338C147.593,253.22 149.338,252.184 151.405,251.804L151.559,251.776L151.617,251.925C152.874,255.199 154.192,258.77 155.715,262.53C157.242,266.285 158.998,270.233 161.305,274.109C163.599,277.989 166.456,281.781 169.906,285.225C173.347,288.679 177.348,291.78 181.684,294.564C183.129,295.421 184.532,296.326 185.979,297.126C187.438,297.903 188.884,298.673 190.313,299.435L190.054,299.452C192.506,297.758 194.915,296.096 197.273,294.468C198.452,293.655 199.618,292.851 200.771,292.056C201.931,291.268 203.061,290.477 204.129,289.636C208.421,286.289 212.133,282.658 215.333,279.105L215.35,279.086L215.367,279.074C219.816,275.655 223.267,271.74 225.64,267.863C228.063,264.006 229.453,260.245 230.271,257.096C231.082,253.935 231.339,251.373 231.448,249.632C231.51,248.761 231.492,248.09 231.517,247.64C231.531,247.189 231.556,246.956 231.556,246.956C231.556,246.956 231.577,247.188 231.585,247.64C231.583,248.091 231.622,248.763 231.582,249.638C231.516,251.387 231.299,253.966 230.518,257.158C229.731,260.338 228.364,264.144 225.945,268.051C223.577,271.98 220.114,275.953 215.634,279.424L215.667,279.393C212.455,282.989 208.748,286.637 204.43,290.023C203.353,290.875 202.217,291.673 201.061,292.461C199.908,293.259 198.742,294.067 197.563,294.883C195.205,296.515 192.794,298.183 190.341,299.88L190.215,299.968L190.082,299.897C188.645,299.132 187.191,298.36 185.725,297.58C184.271,296.776 182.858,295.866 181.405,295.003C177.042,292.202 173.01,289.075 169.542,285.585C166.066,282.107 163.189,278.271 160.888,274.356C158.572,270.443 156.821,266.467 155.305,262.696C153.793,258.92 152.493,255.34 151.256,252.063L151.468,252.184C149.494,252.535 147.785,253.526 146.337,254.614C144.896,255.733 143.693,256.978 142.622,258.184C140.521,260.64 138.988,262.987 137.811,264.939C136.64,266.898 135.822,268.475 135.28,269.549C135.022,270.071 134.821,270.478 134.674,270.778C134.535,271.054 134.46,271.194 134.452,271.19Z" style="fill:rgb(12,43,52);fill-rule:nonzero;"/>
        <path d="M246.225,246.568C246.225,246.568 246.558,252.404 245.503,261.821C244.976,266.522 244.025,272.1 242.452,278.187C240.891,284.275 238.665,290.849 235.833,297.565L235.452,298.469L235.334,297.49C235.265,296.905 235.209,296.272 235.114,295.64C234.616,291.947 233.746,288.395 232.594,285.076C232.018,283.416 231.371,281.813 230.668,280.276C230.318,279.506 229.949,278.755 229.572,278.02C229.186,277.284 228.83,276.556 228.349,275.934C227.88,275.311 227.307,274.753 226.632,274.501C225.958,274.242 225.217,274.411 224.665,274.872C224.104,275.324 223.638,275.942 223.138,276.492C222.647,277.053 222.164,277.605 221.689,278.148C219.789,280.316 218.018,282.336 216.398,284.184C213.171,287.842 210.552,290.812 208.71,292.901C207.813,293.9 207.108,294.686 206.6,295.253C206.371,295.499 206.187,295.699 206.041,295.856C205.913,295.99 205.844,296.056 205.837,296.05C205.83,296.045 205.886,295.966 206,295.821C206.137,295.655 206.308,295.445 206.521,295.184C207.011,294.602 207.692,293.794 208.557,292.767C210.369,290.654 212.946,287.646 216.121,283.943C217.725,282.083 219.48,280.047 221.363,277.865C221.835,277.319 222.314,276.764 222.802,276.2C223.3,275.647 223.745,275.035 224.38,274.513C224.995,273.978 225.973,273.735 226.792,274.059C227.61,274.366 228.227,274.986 228.731,275.644C229.247,276.308 229.619,277.063 230.007,277.795C230.39,278.537 230.765,279.293 231.12,280.069C231.834,281.618 232.49,283.234 233.075,284.909C234.245,288.256 235.128,291.841 235.63,295.571C235.726,296.208 235.782,296.847 235.852,297.438L235.354,297.362C238.179,290.67 240.411,284.126 241.993,278.067C243.587,272.01 244.57,266.459 245.143,261.777C245.723,257.092 245.955,253.283 246.059,250.653C246.127,249.338 246.128,248.316 246.161,247.624C246.175,247.302 246.187,247.043 246.195,246.836C246.206,246.659 246.216,246.568 246.225,246.568Z" style="fill:rgb(12,43,52);fill-rule:nonzero;"/>
        <path d="M171.641,218.941C171.647,218.948 171.596,219.014 171.49,219.138C171.361,219.284 171.204,219.461 171.011,219.679C170.566,220.131 169.993,220.871 169.254,221.82C167.828,223.752 166.025,226.762 164.461,230.772C162.864,234.761 161.532,239.749 160.872,245.394C160.25,251.035 160.318,257.359 161.672,263.776C162.31,266.992 163.293,270.052 164.467,272.906C165.603,275.782 167.071,278.39 168.577,280.793C171.679,285.555 175.279,289.269 178.58,292.012C180.194,293.438 181.833,294.497 183.204,295.518C184.659,296.415 185.886,297.234 186.933,297.83C187.959,298.394 188.771,298.841 189.364,299.168C189.617,299.313 189.823,299.431 189.992,299.527C190.131,299.611 190.201,299.658 190.197,299.666C190.193,299.674 190.116,299.643 189.968,299.575C189.793,299.491 189.58,299.387 189.317,299.261C188.711,298.955 187.882,298.536 186.833,298.006C185.768,297.436 184.521,296.638 183.043,295.761C181.65,294.757 179.986,293.713 178.345,292.296C174.992,289.571 171.33,285.85 168.174,281.053C166.643,278.634 165.149,276.003 163.996,273.101C162.803,270.22 161.806,267.129 161.162,263.882C159.795,257.402 159.742,251.021 160.395,245.338C161.087,239.651 162.467,234.636 164.12,230.634C165.739,226.613 167.606,223.607 169.093,221.698C169.861,220.76 170.462,220.039 170.935,219.607C171.144,219.403 171.313,219.237 171.452,219.1C171.571,218.989 171.634,218.934 171.641,218.941Z" style="fill:rgb(12,43,52);fill-rule:nonzero;"/>
        <path d="M86.557,315.022C86.569,315.015 86.634,315.109 86.755,315.309C86.898,315.555 87.071,315.856 87.291,316.235L87.144,316.286C86.43,312.929 84.487,302.623 82.283,290.438C80.956,282.933 79.754,276.141 78.87,271.137C78.466,268.717 78.136,266.734 77.894,265.278C77.796,264.631 77.717,264.103 77.654,263.68C77.605,263.314 77.588,263.121 77.606,263.117C77.624,263.114 77.675,263.301 77.757,263.662C77.846,264.08 77.957,264.602 78.093,265.242C78.376,266.69 78.761,268.665 79.232,271.072C80.156,276.069 81.41,282.85 82.796,290.346C85,302.53 86.792,312.864 87.299,316.257L87.375,316.768L87.151,316.308C86.96,315.915 86.808,315.602 86.684,315.346C86.586,315.134 86.545,315.028 86.557,315.022Z" style="fill:rgb(12,43,52);fill-rule:nonzero;"/>
        <path d="M84.148,312.969C84.018,313.031 81.5,307.963 78.524,301.653C75.547,295.339 73.24,290.174 73.37,290.113C73.5,290.051 76.018,295.118 78.995,301.43C81.971,307.741 84.278,312.908 84.148,312.969Z" style="fill:rgb(12,43,52);fill-rule:nonzero;"/>
        <path d="M87.664,423.818C85.919,423.818 84.36,423.535 83.124,422.914L87.066,421.275C102.337,410.054 104.166,392.2 105.531,374.963C106.896,357.728 106.535,339.873 113.225,323.929C115.416,318.707 118.406,313.708 122.687,310C126.503,306.692 131.444,304.499 136.462,304.499C137.071,304.499 137.682,304.532 138.291,304.598C143.512,305.168 148.147,308.109 152.383,311.211C158.835,315.936 164.87,321.229 170.396,327.009C176.202,333.081 181.79,341.293 179.195,349.282C176.571,357.358 166.903,360.728 158.42,361.113C157.553,361.152 156.688,361.172 155.821,361.172C143.362,361.172 130.921,357.133 120.865,349.771C120.13,362.885 118.897,375.971 117.168,388.991C116.021,397.63 114.493,406.641 109.209,413.572C104.967,419.137 94.766,423.818 87.664,423.818Z" style="fill:rgb(186,61,72);fill-rule:nonzero;"/>
        <path d="M83.529,422.981C83.525,422.969 83.672,422.898 83.958,422.772C84.277,422.634 84.695,422.455 85.22,422.228C86.267,421.64 87.817,420.778 89.5,419.286C92.91,416.385 97.115,411.442 101.054,404.883L101.026,404.966C101.94,398.114 103.007,390.121 104.142,381.617C105.976,368.138 107.601,355.932 108.907,347.118C109.715,342.767 110.373,339.232 110.836,336.738C111.069,335.547 111.252,334.606 111.386,333.921C111.45,333.626 111.501,333.385 111.542,333.191C111.581,333.027 111.604,332.944 111.613,332.945C111.622,332.947 111.616,333.033 111.595,333.201C111.567,333.397 111.532,333.64 111.49,333.939C111.379,334.628 111.228,335.575 111.036,336.773C110.612,339.272 110.01,342.815 109.271,347.174C108.085,356.044 106.457,368.229 104.658,381.691C103.5,390.19 102.412,398.178 101.479,405.028L101.472,405.075L101.45,405.112C97.441,411.7 93.168,416.621 89.672,419.493C87.95,420.967 86.357,421.805 85.281,422.356C84.717,422.583 84.276,422.734 83.982,422.84C83.687,422.945 83.533,422.993 83.529,422.981Z" style="fill:rgb(12,43,52);fill-rule:nonzero;"/>
        <path d="M179.785,425.15C179.776,425.152 179.745,425.045 179.691,424.835C179.634,424.597 179.561,424.288 179.467,423.898C179.294,423.07 178.962,421.861 178.696,420.273C178.105,417.109 177.495,412.474 177.32,406.715C177.155,400.96 177.431,394.085 178.398,386.533C179.317,378.974 180.85,370.742 182.626,362.149C184.333,353.533 186.481,345.437 188.221,338.044C189.986,330.658 191.125,323.895 191.428,318.164C191.727,312.433 191.367,307.781 190.931,304.602C190.76,303.005 190.485,301.786 190.374,300.947C190.314,300.55 190.266,300.236 190.229,299.995C190.2,299.779 190.189,299.668 190.197,299.666C190.206,299.665 190.235,299.772 190.282,299.984C190.332,300.223 190.396,300.535 190.477,300.927C190.622,301.761 190.929,302.977 191.132,304.575C191.631,307.753 192.049,312.421 191.796,318.183C191.538,323.945 190.431,330.749 188.688,338.153C186.971,345.569 184.841,353.647 183.137,362.254C181.36,370.842 179.817,379.056 178.874,386.592C177.883,394.122 177.571,400.968 177.688,406.706C177.816,412.446 178.368,417.071 178.896,420.238C179.13,421.828 179.43,423.041 179.57,423.876C179.642,424.269 179.699,424.583 179.743,424.823C179.779,425.038 179.793,425.148 179.785,425.15Z" style="fill:rgb(12,43,52);fill-rule:nonzero;"/>
        <path d="M196.613,312.391C196.486,312.307 198.212,309.555 200.128,306.046C202.054,302.541 203.442,299.605 203.581,299.666C203.645,299.694 203.379,300.466 202.857,301.676C202.336,302.887 201.551,304.532 200.585,306.296C199.618,308.06 198.656,309.608 197.917,310.699C197.178,311.79 196.67,312.43 196.613,312.391Z" style="fill:rgb(12,43,52);fill-rule:nonzero;"/>
        <path d="M199.836,308.239L199.673,307.902C199.972,307.394 200.278,306.856 200.585,306.296C201.495,304.634 202.245,303.079 202.764,301.892C205.755,297.549 208.857,293.282 212.065,289.097C213.346,287.645 214.797,285.999 216.398,284.184C218.018,282.336 219.789,280.316 221.689,278.148C222.164,277.605 222.647,277.053 223.138,276.492C223.638,275.942 224.104,275.324 224.665,274.872C225.041,274.558 225.505,274.379 225.976,274.379C226.196,274.379 226.417,274.418 226.632,274.501C227.307,274.753 227.88,275.311 228.349,275.934C228.83,276.556 229.186,277.284 229.572,278.02C229.949,278.755 230.318,279.506 230.668,280.276C231.371,281.813 232.018,283.416 232.594,285.076C233.431,287.488 234.12,290.024 234.625,292.648C234.553,294.335 234.232,295.997 233.577,297.609C232.471,295.168 231.333,292.679 229.501,290.724C227.901,289.018 225.652,287.763 223.348,287.763C223.013,287.763 222.675,287.789 222.339,287.845C220.174,288.205 218.381,289.675 216.731,291.123C210.7,296.415 205.049,302.139 199.836,308.239ZM234.52,289.758C234.108,288.096 233.623,286.476 233.075,284.909C232.49,283.234 231.834,281.618 231.12,280.069C230.765,279.293 230.39,278.537 230.007,277.795C229.619,277.063 229.247,276.308 228.731,275.644C228.227,274.986 227.61,274.366 226.792,274.059C226.539,273.959 226.271,273.913 226.003,273.913C225.403,273.913 224.805,274.143 224.38,274.513C223.745,275.035 223.3,275.647 222.802,276.2C222.314,276.764 221.835,277.319 221.363,277.865C219.48,280.047 217.725,282.083 216.121,283.943C216.03,284.048 215.94,284.153 215.851,284.258C218.263,281.236 220.733,278.258 223.257,275.329C224.046,274.414 224.943,273.444 226.138,273.264C226.276,273.243 226.412,273.234 226.544,273.234C228.562,273.234 229.956,275.536 230.779,277.493C232.42,281.393 234.069,285.606 234.52,289.758Z" style="fill:rgb(186,61,72);fill-rule:nonzero;"/>
        <path d="M234.625,292.648C234.12,290.024 233.431,287.488 232.594,285.076C232.018,283.416 231.371,281.813 230.668,280.276C230.318,279.506 229.949,278.755 229.572,278.02C229.186,277.284 228.83,276.556 228.349,275.934C227.88,275.311 227.307,274.753 226.632,274.501C226.417,274.418 226.196,274.379 225.976,274.379C225.505,274.379 225.041,274.558 224.665,274.872C224.104,275.324 223.638,275.942 223.138,276.492C222.647,277.053 222.164,277.605 221.689,278.148C219.789,280.316 218.018,282.336 216.398,284.184C214.797,285.999 213.346,287.645 212.065,289.097C213.311,287.471 214.572,285.859 215.851,284.258C215.94,284.153 216.03,284.048 216.121,283.943C217.725,282.083 219.48,280.047 221.363,277.865C221.835,277.319 222.314,276.764 222.802,276.2C223.3,275.647 223.745,275.035 224.38,274.513C224.805,274.143 225.403,273.913 226.003,273.913C226.271,273.913 226.539,273.959 226.792,274.059C227.61,274.366 228.227,274.986 228.731,275.644C229.247,276.308 229.619,277.063 230.007,277.795C230.39,278.537 230.765,279.293 231.12,280.069C231.834,281.618 232.49,283.234 233.075,284.909C233.623,286.476 234.108,288.096 234.52,289.758C234.625,290.726 234.665,291.69 234.625,292.648Z" style="fill:rgb(1,23,33);fill-rule:nonzero;"/>
        <path d="M199.406,307.351L199.272,307.073C199.804,306.267 200.339,305.463 200.878,304.662C200.639,305.109 200.389,305.573 200.128,306.046C199.883,306.495 199.642,306.931 199.406,307.351Z" style="fill:rgb(186,61,72);fill-rule:nonzero;"/>
        <path d="M199.673,307.902L199.406,307.351C199.642,306.931 199.883,306.495 200.128,306.046C200.389,305.573 200.639,305.109 200.878,304.662C201.501,303.736 202.13,302.812 202.764,301.892C202.245,303.079 201.495,304.634 200.585,306.296C200.278,306.856 199.972,307.394 199.673,307.902Z" style="fill:rgb(1,23,33);fill-rule:nonzero;"/>
        <path d="M275.058,342.468C275.45,332.32 267.737,281.969 270.456,272.183C271.65,267.883 273.049,263.273 276.598,260.567C279.641,258.249 284.324,257.801 288.132,257.437L287.758,260.605C283.251,271.387 282.091,279.611 281.762,291.292C281.688,293.906 281.711,296.587 280.806,299.041C279.9,301.495 282.891,306.996 281.413,315.809C280.806,319.427 278.435,341.035 275.058,342.468Z" style="fill:rgb(186,61,72);fill-rule:nonzero;"/>
        <path d="M238.054,99.004C233.213,93.001 234.798,83.417 240.339,78.054C245.879,72.691 254.307,71.147 261.911,72.426C272.918,74.276 282.825,81.753 287.624,91.83C290.216,97.275 291.63,103.713 296.39,107.418C300.574,110.674 306.325,110.961 311.088,113.293C317.471,116.418 321.586,123.102 323.047,130.058C324.508,137.013 323.631,144.251 322.158,151.205C320.807,157.586 319.005,164.482 321.746,170.401C324.418,176.174 330.663,179.319 334.773,184.173C342.507,193.307 340.753,208.85 331.178,216.031C328.125,218.32 324.267,220.06 322.809,223.586C321.477,226.806 322.612,230.458 322.544,233.941C322.367,242.909 312.479,250.287 303.833,247.901C299.468,246.698 295.445,243.475 290.959,244.09C286.503,244.701 283.527,248.818 279.905,251.486C272.781,256.734 261.87,255.928 255.595,249.69C252.968,247.08 250.856,243.523 247.276,242.573C243.704,241.626 239.945,243.677 236.283,243.178C231.489,242.525 228.339,237.764 226.924,233.138C225.508,228.511 225.128,223.497 222.735,219.292C219.602,213.786 213.636,210.668 208.625,206.793C197.562,198.241 190.463,184.759 189.67,170.799C188.878,156.839 194.406,142.641 204.429,132.892" style="fill:rgb(12,43,52);fill-rule:nonzero;"/>
        <path d="M170.98,218.963C161.414,229.935 157.642,245.692 161.203,259.806C164.765,273.92 176.571,294.546 190.197,299.666C199.035,293.188 210.395,284.14 218.636,276.918C223.969,272.245 226.798,265.413 229.44,258.833C230.964,255.037 232.513,250.932 231.556,246.956C230.851,244.027 228.867,241.584 226.78,239.413C213.372,225.468 192.938,218.653 173.843,221.756" style="fill:rgb(247,151,120);fill-rule:nonzero;"/>
        <path d="M211.452,117.372C216.521,107.094 228.091,101.766 239.195,104.596L273.314,113.293C290.364,118.789 303.713,145.172 293.661,168.286C285.725,186.537 277.593,209.469 269.437,222.065C253.035,247.392 230.617,241.605 230.617,241.605L218.516,268.599L169.046,222.208L211.452,117.372Z" style="fill:rgb(247,151,120);fill-rule:nonzero;"/>
        <path d="M269.049,175.424C269.692,175.182 271.365,178.373 275.071,180.155C278.748,181.988 282.386,181.4 282.568,182.048C282.669,182.344 281.842,182.943 280.242,183.231C278.662,183.525 276.273,183.398 273.972,182.272C271.672,181.143 270.144,179.355 269.45,177.946C268.734,176.522 268.741,175.523 269.049,175.424Z" style="fill:rgb(12,43,52);fill-rule:nonzero;"/>
        <path d="M230.417,157.834C231.145,157.7 232.797,161.249 236.779,163.712C240.729,166.223 244.787,166.254 244.949,166.948C245.039,167.267 244.094,167.738 242.303,167.752C240.538,167.778 237.904,167.232 235.432,165.682C232.96,164.13 231.383,162.038 230.702,160.479C230.004,158.902 230.072,157.882 230.417,157.834Z" style="fill:rgb(12,43,52);fill-rule:nonzero;"/>
        <path d="M246.789,195.559C246.866,195.338 249.383,195.971 253.385,197.164C254.388,197.491 255.382,197.703 255.834,197.119C256.367,196.525 256.424,195.312 256.454,193.989C256.581,191.265 256.716,188.412 256.854,185.42C257.523,173.263 258.463,163.439 258.953,163.471C259.441,163.502 259.297,173.381 258.626,185.538C258.437,188.524 258.26,191.374 258.086,194.097C257.966,195.35 258.043,196.864 256.915,198.086C256.338,198.689 255.402,198.897 254.714,198.791C254.015,198.705 253.471,198.477 252.982,198.294C249.08,196.81 246.709,195.779 246.789,195.559Z" style="fill:rgb(12,43,52);fill-rule:nonzero;"/>
        <path d="M230.573,241.671C230.573,241.671 210.815,234.262 197.494,215.299C197.494,215.299 198.242,238.454 227.545,248.456L230.573,241.671Z" style="fill:rgb(242,127,90);fill-rule:nonzero;"/>
        <path d="M233.515,145.014C234.144,144.003 238.051,145.373 242.892,145.802C247.725,146.328 251.823,145.752 252.242,146.865C252.422,147.394 251.541,148.282 249.777,149.016C248.029,149.751 245.382,150.241 242.48,149.958C239.582,149.668 237.082,148.669 235.511,147.606C233.925,146.542 233.235,145.497 233.515,145.014Z" style="fill:rgb(12,43,52);fill-rule:nonzero;"/>
        <path d="M277.109,156.021C278.374,156.013 279.931,159.123 282.625,162.101C285.229,165.159 288.122,167.118 287.937,168.356C287.82,168.93 286.771,169.173 285.112,168.682C283.472,168.207 281.279,166.898 279.457,164.824C277.639,162.749 276.635,160.418 276.389,158.744C276.13,157.05 276.52,156.054 277.109,156.021Z" style="fill:rgb(12,43,52);fill-rule:nonzero;"/>
        <path d="M238.118,206.009C238.118,206.009 240.44,204.796 239.363,200.341C238.286,195.886 232.619,191.847 229.031,195.512C229.031,195.512 225.407,195.792 226.833,199.969C228.258,204.147 236.515,210.045 238.054,206.687" style="fill:rgb(242,127,90);fill-rule:nonzero;"/>
        <path d="M236.769,209.413C236.107,209.298 237.113,204.949 234.111,200.996C231.119,197.034 226.371,196.442 226.479,195.826C226.481,195.54 227.707,195.223 229.675,195.626C231.609,196.007 234.268,197.276 236.104,199.694C237.934,202.117 238.321,204.869 238.054,206.687C237.796,208.543 237.06,209.507 236.769,209.413Z" style="fill:rgb(12,43,52);fill-rule:nonzero;"/>
        <path d="M182.278,103.163C176.973,107.231 173.819,113.958 174.083,120.638C174.23,124.377 175.143,128.791 172.388,131.322C169.584,133.899 165.171,132.517 161.362,132.536C154.735,132.571 148.581,138.088 147.823,144.672C147.552,147.034 147.86,149.59 146.655,151.639C145.401,153.773 142.886,154.729 140.77,156.012C135.513,159.198 132.156,165.296 132.274,171.443C132.393,177.59 135.983,183.553 141.36,186.534C143.806,187.891 146.67,188.739 148.457,190.891C150.505,193.36 150.583,196.856 151.587,199.904C153.511,205.746 159.402,210.041 165.553,210.085C171.704,210.13 177.656,205.922 179.666,200.108" style="fill:rgb(12,43,52);fill-rule:nonzero;"/>
        <path d="M237.578,93.595C235.574,99.438 236.307,106.157 239.522,111.432C242.737,116.706 248.375,120.436 254.486,121.332C259.229,122.028 264.888,121.428 267.948,125.116C271.167,128.996 269.26,135.181 271.806,139.532C275.444,145.75 281.646,150.711 287.531,154.867C292.076,158.076 286.877,167.01 288.857,172.209C290.839,177.408 298.991,189.272 304.551,189.484C305.767,184.833 312.688,164.411 312.81,159.605C312.93,154.8 311.848,149.808 308.874,146.031C307.244,143.961 305.097,142.309 303.686,140.084C300.638,135.279 301.662,129.058 300.674,123.454C299.398,116.231 294.398,109.77 287.726,106.723C282.175,104.188 275.665,103.907 270.538,100.597C266.748,98.149 264.04,94.234 260.112,92.015C252.463,87.693 242.878,90.986 234.974,94.821" style="fill:rgb(12,43,52);fill-rule:nonzero;"/>
        <path d="M200.747,151.723C199.956,151.196 194.712,155.166 199.89,158.333C208.958,163.88 216.749,145.138 216.415,138.91C221.035,136.959 225.71,134.976 229.778,131.886C233.846,128.796 239.933,118.677 241.021,113.561C244.49,114.967 261.256,115.094 259.802,114.088C256.492,111.798 249.797,106.886 248.908,103.043C246.977,94.693 241.047,87.431 233.214,85.248C225.381,83.064 215.944,86.637 211.62,94.225C202.292,91.144 191.234,93.915 183.792,101.196C176.349,108.479 172.821,119.979 174.915,130.138C175.463,132.798 176.361,135.576 175.509,138.213C174.452,141.481 171.174,143.244 168.564,145.359C161.449,151.127 158.385,161.321 159.26,170.523C160.136,179.725 161.706,183.386 166.261,186.711C175.173,193.219 156.653,209.839 173.243,215.457" style="fill:rgb(12,43,52);fill-rule:nonzero;"/>
        <path d="M324.582,215.251C324.537,215.183 325.168,214.838 326.144,213.925C327.101,213.015 328.486,211.546 329.485,209.222C330.506,206.951 331.204,203.777 330.421,200.303C329.641,196.819 327.012,193.498 323.489,190.667C320.069,187.726 315.576,185.105 312.396,180.48C309.179,175.833 308.651,169.506 309.666,163.507C310.668,157.417 313.205,151.501 314.832,145.192C315.65,142.042 316.164,138.767 316.056,135.44C315.948,132.137 315.211,128.762 313.442,125.903C311.683,123.038 308.972,120.902 306.001,119.458C303.021,118 299.8,117.144 296.601,116.595C293.393,116.059 290.112,115.757 286.997,114.753C283.898,113.828 280.937,111.787 279.53,108.87C278.076,106.011 277.762,102.976 277.125,100.229C276.563,97.454 275.516,94.948 273.892,92.882C270.712,88.694 266.001,86.372 261.644,85.553C257.217,84.749 253.07,85.612 249.783,86.98C246.479,88.386 243.961,90.271 242.095,91.98C238.395,95.483 237.165,98.133 237.019,98.024C237,98.013 237.073,97.851 237.235,97.544C237.407,97.245 237.627,96.773 238.01,96.214C238.724,95.064 239.907,93.432 241.742,91.611C243.588,89.813 246.116,87.82 249.494,86.307C252.85,84.832 257.152,83.856 261.803,84.639C266.372,85.439 271.329,87.8 274.754,92.218C276.493,94.375 277.661,97.138 278.25,99.974C278.911,102.786 279.267,105.745 280.603,108.312C281.885,110.906 284.445,112.678 287.382,113.56C290.32,114.499 293.532,114.792 296.814,115.327C300.099,115.883 303.433,116.755 306.576,118.286C309.703,119.8 312.644,122.094 314.559,125.214C316.481,128.325 317.252,131.935 317.36,135.4C317.47,138.883 316.921,142.299 316.077,145.512C314.391,151.949 311.854,157.815 310.858,163.707C309.844,169.53 310.335,175.522 313.303,179.877C316.233,184.253 320.641,186.936 324.087,189.958C327.631,192.877 330.382,196.42 331.137,200.144C331.893,203.836 331.074,207.118 329.948,209.435C328.841,211.807 327.35,213.262 326.317,214.126C325.263,214.992 324.582,215.251 324.582,215.251Z" style="fill:rgb(51,88,99);fill-rule:nonzero;"/>
        <path d="M293.908,154.867C294.024,154.914 293.42,156.298 292.812,158.918C292.227,161.524 291.686,165.452 292.457,170.182C292.834,172.537 293.535,175.079 294.722,177.612C295.866,180.185 297.618,182.568 299.621,185.113C300.589,186.405 301.574,187.789 302.29,189.403C303.024,191 303.389,192.871 303.233,194.709C302.939,198.426 301.113,201.727 299.75,205.092C298.323,208.423 297.523,211.99 298.828,215.084C300.048,218.17 302.521,220.524 304.77,222.771C307.049,225.01 309.254,227.268 310.645,229.905C311.304,231.229 311.761,232.632 311.904,234.015C311.994,235.395 311.942,236.737 311.608,237.954C310.371,242.913 306.908,245.742 304.454,246.872C303.176,247.417 302.118,247.651 301.397,247.713C300.673,247.759 300.298,247.76 300.296,247.714C300.269,247.558 301.844,247.61 304.229,246.413C306.506,245.202 309.672,242.388 310.703,237.748C311.229,235.464 311.007,232.825 309.683,230.414C308.358,227.996 306.23,225.85 303.923,223.633C301.664,221.405 299.033,219.008 297.629,215.548C296.942,213.836 296.705,211.885 296.962,210.007C297.201,208.124 297.828,206.328 298.536,204.595C299.948,201.149 301.688,197.939 301.951,194.613C302.304,191.271 300.537,188.346 298.651,185.835C296.717,183.329 294.864,180.741 293.73,178.061C292.54,175.405 291.869,172.758 291.539,170.319C290.863,165.418 291.568,161.406 292.316,158.791C292.697,157.477 293.075,156.481 293.388,155.834C293.689,155.181 293.867,154.849 293.908,154.867Z" style="fill:rgb(51,88,99);fill-rule:nonzero;"/>
        <path d="M143.866,186.26C143.847,186.282 143.654,186.139 143.295,185.839C142.928,185.548 142.433,185.058 141.844,184.365C140.69,182.982 139.181,180.649 138.521,177.261C137.851,173.96 138.108,169.38 140.973,165.386C143.725,161.465 148.933,158.208 155.041,158.501L154.488,159.233C153.369,156.093 152.523,152.57 152.803,148.83C153.02,145.125 154.79,141.168 158.152,138.787C159.787,137.573 161.851,136.8 164.004,136.787C166.183,136.796 168.189,137.637 170.046,138.496C171.907,139.355 173.727,140.324 175.644,140.652C177.549,140.993 179.512,140.455 180.933,139.085C183.061,137.092 184.022,134.128 184.209,131.221C184.444,128.278 184.157,125.284 184.464,122.293C185.075,116.293 187.951,110.927 191.832,107.136C195.716,103.279 200.703,101.199 205.369,100.563C210.068,99.93 214.503,100.66 218.084,102.161L217.518,102.384C219.097,99.122 221.858,97.109 224.401,96.068C226.976,95 229.423,94.848 231.329,95.035C233.255,95.236 234.65,95.821 235.544,96.259C236.412,96.759 236.83,97.067 236.81,97.097C236.748,97.269 235.042,95.813 231.289,95.513C229.444,95.405 227.102,95.624 224.672,96.704C222.271,97.755 219.72,99.719 218.317,102.752L218.142,103.131L217.751,102.975C214.284,101.592 210.014,100.953 205.519,101.611C201.049,102.277 196.337,104.296 192.67,107.988C189.001,111.62 186.295,116.75 185.74,122.418C185.452,125.247 185.745,128.227 185.51,131.323C185.312,134.391 184.299,137.735 181.822,140.05C180.168,141.675 177.645,142.368 175.431,141.943C173.207,141.55 171.331,140.513 169.497,139.672C167.675,138.818 165.841,138.076 163.999,138.067C162.164,138.074 160.357,138.723 158.886,139.807C155.852,141.947 154.223,145.464 153.989,148.928C153.7,152.413 154.466,155.806 155.524,158.865L155.795,159.647L154.97,159.598C149.329,159.261 144.347,162.251 141.698,165.91C138.941,169.615 138.591,173.945 139.146,177.148C139.689,180.426 141.059,182.742 142.105,184.159C143.178,185.58 143.924,186.196 143.866,186.26Z" style="fill:rgb(51,88,99);fill-rule:nonzero;"/>
        <path d="M237.168,101.125C237.233,101.355 235.222,101.028 232.658,102.877C230.103,104.685 227.891,109.061 227.241,114.614L227.185,115.091L226.714,115.052C221.992,114.663 216.022,116.501 211.986,121.206C211.014,122.375 210.159,123.744 209.62,125.192C209.107,126.681 208.848,128.334 208.595,130.031C208.338,131.729 208.104,133.493 207.57,135.269C207.106,137.031 205.969,138.872 204.415,139.992C201.097,142.583 197.021,143.031 193.458,143.598C189.824,144.089 186.413,144.692 183.469,146.185C177.524,149.065 173.612,154.066 171.896,158.712C170.118,163.406 170.184,167.614 170.532,170.38C170.888,173.179 171.481,174.659 171.357,174.698C171.315,174.713 171.15,174.355 170.873,173.651C170.626,172.94 170.274,171.877 170.027,170.458C169.517,167.655 169.291,163.319 171.026,158.392C172.701,153.507 176.712,148.19 182.936,145.1C186.019,143.495 189.669,142.827 193.27,142.327C196.833,141.76 200.7,141.259 203.601,138.963C206.457,136.951 206.766,133.165 207.321,129.837C207.584,128.135 207.854,126.421 208.434,124.767C209.068,123.106 209.986,121.685 211.055,120.417C215.457,115.393 221.793,113.573 226.799,114.085L226.274,114.522C227.069,108.74 229.507,104.259 232.346,102.436C233.729,101.52 235.015,101.206 235.861,101.123C236.724,101.076 237.167,101.076 237.168,101.125Z" style="fill:rgb(51,88,99);fill-rule:nonzero;"/>
        <path d="M202.678,154.57C205.53,148.983 201.698,141.956 195.425,141.97C191.981,141.977 188.277,143.844 185.199,149.747C176.989,165.489 194.487,170.483 194.75,170.046C194.912,169.775 199.338,161.113 202.678,154.57Z" style="fill:rgb(247,151,120);fill-rule:nonzero;"/>
        <path d="M193.051,161.575C193.008,161.488 192.676,161.624 192.102,161.594C191.542,161.566 190.691,161.303 190.03,160.568C188.686,159.09 188.663,155.72 190.066,152.843C190.772,151.389 191.784,150.181 192.881,149.317C193.962,148.416 195.126,147.999 196.041,148.288C196.975,148.529 197.306,149.339 197.268,149.883C197.249,150.434 196.985,150.695 197.054,150.766C197.078,150.828 197.53,150.678 197.742,149.962C197.84,149.616 197.849,149.148 197.637,148.653C197.42,148.148 196.946,147.703 196.33,147.461C195.072,146.913 193.397,147.46 192.192,148.408C190.918,149.328 189.748,150.667 188.954,152.3C187.4,155.524 187.476,159.339 189.409,161.184C190.365,162.05 191.463,162.198 192.134,162.075C192.825,161.94 193.091,161.632 193.051,161.575Z" style="fill:rgb(242,127,90);fill-rule:nonzero;"/>
        <path d="M194.318,402.717C191.456,402.489 188.51,400.527 186.938,398.452C186.287,397.59 179.332,385.485 178.434,383.231C176.868,379.298 177.951,377.119 178.521,374.814C179.349,371.47 184.517,373.43 184.517,373.43C184.517,373.43 199.735,399.725 199.392,400.527C199.048,401.329 197.181,402.947 194.318,402.717ZM186.995,373.186C185.604,370.603 182.028,369.013 182.028,369.013L179.047,361.663C179.047,361.663 180.239,359.08 179.047,355.9C177.855,352.721 169.113,334.244 169.312,333.648L167.05,333.515C167.05,333.515 175.107,353.069 175.902,354.062C176.697,355.056 177.856,360.875 175.87,361.668C173.882,362.463 169.66,360.312 167.872,358.524C166.084,356.736 160.39,343.283 159.396,340.501C158.403,337.719 160.173,333.846 160.173,333.846L161.762,330.072L159.577,330.072C159.577,330.072 158.186,334.045 157.391,337.82C156.596,341.595 165.537,358.085 166.928,359.874C168.319,361.663 173.087,363.053 175.67,364.841C178.253,366.629 177.855,372.192 177.855,372.192C177.855,372.192 175.67,375.172 175.471,378.749C175.272,382.325 183.22,399.213 188.584,402.79C193.949,406.366 200.307,403.783 200.902,403.982C201.499,404.18 202.889,401.2 202.889,401.2C202.889,401.2 188.386,375.769 186.995,373.186Z" style="fill:rgb(12,43,52);fill-rule:nonzero;"/>
        <path d="M202.889,401.2C202.889,401.2 247.202,384.335 249.271,382.425C251.34,380.516 258.82,369.534 258.82,369.534C258.82,369.534 262.481,370.17 262.004,371.126C261.526,372.081 254.523,383.062 247.043,386.246C239.563,389.428 200.902,403.982 200.902,403.982L202.889,401.2Z" style="fill:rgb(12,43,52);fill-rule:nonzero;"/>
        <path d="M62.67,262.252L44.416,367.503C44.416,367.503 37.696,387.983 38.656,392.462C39.616,396.943 43.01,416.268 53.25,422.348C63.489,428.428 83.774,424.461 87.934,420.301C92.093,416.141 100.292,408.517 101.252,404.997C102.212,401.477 108.944,347.958 108.944,347.958L111.613,332.945C111.613,332.945 101.693,336.145 95.613,331.986C89.534,327.826 81.534,309.907 81.534,309.907L72.574,323.666L62.67,262.252Z" style="fill:rgb(241,91,102);fill-rule:nonzero;"/>
        <path d="M81.534,309.907C81.549,309.917 81.428,310.121 81.185,310.501C80.908,310.92 80.549,311.466 80.103,312.144C79.161,313.57 77.803,315.637 76.171,318.22C72.888,323.374 68.505,330.59 63.715,338.593C58.925,346.6 54.604,353.858 51.392,359.062C49.79,361.667 48.467,363.758 47.534,365.192C47.085,365.869 46.723,366.414 46.444,366.833C46.19,367.205 46.05,367.395 46.035,367.385C46.02,367.376 46.13,367.167 46.356,366.776C46.613,366.344 46.947,365.783 47.362,365.085C48.271,363.565 49.532,361.456 51.077,358.872C54.224,353.567 58.521,346.327 63.269,338.326C68.06,330.321 72.496,323.128 75.862,318.02C77.535,315.46 78.941,313.421 79.935,312.029C80.416,311.374 80.802,310.846 81.1,310.44C81.37,310.08 81.52,309.896 81.534,309.907Z" style="fill:rgb(12,43,52);fill-rule:nonzero;"/>
        <path d="M109.318,345.854C109.332,345.866 109.202,346.016 108.941,346.291C108.674,346.557 108.31,346.985 107.767,347.458C106.711,348.428 105.063,349.752 102.721,350.869C101.543,351.397 100.199,351.898 98.688,352.14C97.188,352.414 95.534,352.494 93.832,352.258C92.13,352.038 90.371,351.583 88.652,350.86C86.938,350.127 85.245,349.198 83.62,348.066C82.025,346.893 80.617,345.562 79.387,344.164C78.189,342.736 77.168,341.252 76.335,339.758C74.677,336.763 73.772,333.782 73.306,331.251C72.849,328.71 72.821,326.611 72.897,325.176C72.922,324.458 73.017,323.904 73.054,323.529C73.101,323.154 73.134,322.958 73.152,322.96C73.199,322.964 73.135,323.756 73.099,325.183C73.086,326.609 73.171,328.682 73.668,331.181C74.173,333.67 75.102,336.594 76.754,339.524C77.584,340.986 78.595,342.435 79.773,343.831C80.984,345.196 82.365,346.496 83.924,347.643C85.509,348.748 87.175,349.666 88.849,350.389C90.528,351.103 92.239,351.554 93.892,351.783C95.547,352.024 97.152,351.962 98.614,351.714C100.088,351.498 101.406,351.029 102.569,350.533C104.882,349.483 106.546,348.222 107.633,347.305C108.716,346.376 109.285,345.82 109.318,345.854Z" style="fill:rgb(12,43,52);fill-rule:nonzero;"/>
        <path d="M81.534,309.907L95.189,301.126C95.189,301.126 131.594,286.335 135.292,285.483C138.989,284.629 143.255,282.922 145.246,285.483C147.237,288.043 168,303.117 168,303.117C168,303.117 180.229,326.154 180.229,329.283C180.229,332.412 183.643,336.416 180.229,337.543L176.816,338.668C176.816,338.668 175.679,344.247 171.413,344.871C167.146,345.495 165.724,344.871 165.724,344.871C165.724,344.871 165.44,350.45 162.027,350.105C158.614,349.76 152.925,344.871 152.925,344.871C152.925,344.871 150.366,347.77 148.375,347.77C146.384,347.77 140.127,343.503 140.127,343.503L128.029,332.98L117.374,329.283L111.613,332.945C111.613,332.945 99.307,333.992 97.46,332.989C95.613,331.986 81.534,309.907 81.534,309.907Z" style="fill:rgb(247,151,120);fill-rule:nonzero;"/>
        <path d="M151.437,345.854C151.402,345.864 151.18,345.288 150.809,344.241C150.631,343.714 150.403,343.075 150.092,342.349C149.788,341.622 149.483,340.777 149.042,339.887C148.63,338.986 148.173,338.001 147.606,336.982C147.085,335.939 146.424,334.882 145.754,333.758C144.347,331.549 142.66,329.21 140.678,326.927C138.672,324.664 136.572,322.686 134.565,321.003C133.537,320.192 132.576,319.399 131.61,318.747C130.673,318.051 129.756,317.47 128.916,316.944C128.091,316.391 127.293,315.979 126.612,315.583C125.933,315.18 125.329,314.871 124.83,314.626C123.84,314.122 123.298,313.827 123.313,313.793C123.327,313.76 123.897,313.993 124.918,314.443C125.433,314.662 126.054,314.945 126.75,315.326C127.448,315.7 128.264,316.093 129.106,316.629C129.966,317.139 130.901,317.708 131.858,318.393C132.843,319.036 133.823,319.823 134.869,320.631C136.912,322.309 139.044,324.297 141.069,326.585C143.072,328.889 144.765,331.262 146.162,333.505C146.827,334.648 147.48,335.721 147.989,336.782C148.544,337.819 148.985,338.821 149.379,339.739C149.801,340.645 150.084,341.504 150.365,342.247C150.651,342.986 150.852,343.639 151.001,344.177C151.315,345.249 151.471,345.844 151.437,345.854Z" style="fill:rgb(242,127,90);fill-rule:nonzero;"/>
        <path d="M165.698,345.503C165.683,345.512 165.578,345.362 165.392,345.066C165.212,344.766 164.921,344.335 164.612,343.747C163.98,342.575 163.178,340.817 162.392,338.571C161.597,336.328 160.834,333.602 159.931,330.605C159.005,327.625 157.928,324.335 156.087,321.253C154.283,318.147 151.754,315.751 149.246,313.919C146.726,312.083 144.301,310.603 142.452,309.089C140.587,307.6 139.293,306.122 138.59,304.985C138.246,304.411 137.995,303.958 137.867,303.628C137.725,303.308 137.659,303.136 137.675,303.129C137.73,303.103 138.011,303.787 138.758,304.872C139.503,305.958 140.81,307.366 142.68,308.8C144.535,310.259 146.965,311.697 149.529,313.532C152.084,315.364 154.688,317.808 156.534,320.986C158.414,324.135 159.486,327.467 160.391,330.467C161.271,333.482 161.995,336.208 162.741,338.452C163.478,340.699 164.221,342.462 164.793,343.655C165.382,344.836 165.736,345.481 165.698,345.503Z" style="fill:rgb(242,127,90);fill-rule:nonzero;"/>
        <path d="M175.958,338.909C175.94,338.913 175.888,338.742 175.804,338.414C175.712,338.027 175.6,337.552 175.463,336.976C175.329,336.349 175.154,335.586 174.895,334.713C174.644,333.839 174.407,332.831 174.022,331.752C173.671,330.663 173.28,329.472 172.77,328.227C172.313,326.961 171.702,325.661 171.088,324.28C169.781,321.555 168.173,318.641 166.226,315.747C164.249,312.871 162.128,310.304 160.075,308.086C159.016,307.008 158.031,305.96 157.021,305.072C156.051,304.139 155.088,303.338 154.204,302.611C153.342,301.857 152.491,301.266 151.77,300.711C151.053,300.15 150.408,299.707 149.875,299.351C149.389,299.012 148.989,298.734 148.663,298.506C148.389,298.308 148.25,298.197 148.259,298.181C148.268,298.166 148.426,298.248 148.719,298.418C149.06,298.623 149.478,298.876 149.986,299.182C150.539,299.512 151.204,299.933 151.94,300.475C152.681,301.009 153.552,301.585 154.435,302.325C155.339,303.038 156.322,303.828 157.313,304.752C158.342,305.635 159.347,306.678 160.423,307.756C162.512,309.973 164.663,312.553 166.656,315.454C168.621,318.373 170.229,321.32 171.523,324.078C172.13,325.474 172.731,326.792 173.173,328.074C173.67,329.335 174.043,330.54 174.375,331.642C174.738,332.735 174.952,333.756 175.177,334.642C175.41,335.526 175.558,336.299 175.662,336.934C175.76,337.52 175.841,338.002 175.908,338.395C175.958,338.729 175.976,338.906 175.958,338.909Z" style="fill:rgb(242,127,90);fill-rule:nonzero;"/>
        <path d="M122.378,300.085C122.392,300.169 121.672,300.279 120.622,300.733C119.577,301.176 118.205,302.039 117.159,303.418C116.114,304.8 115.656,306.355 115.512,307.48C115.36,308.615 115.45,309.337 115.365,309.347C115.309,309.36 115.084,308.643 115.146,307.445C115.2,306.261 115.625,304.583 116.744,303.104C117.863,301.627 119.364,300.762 120.488,300.39C121.625,300.005 122.375,300.028 122.378,300.085Z" style="fill:rgb(242,127,90);fill-rule:nonzero;"/>
        <path d="M132.521,290.449C132.604,290.583 130.838,291.701 129.098,293.555C127.34,295.396 126.321,297.22 126.183,297.144C126.062,297.096 126.902,295.103 128.72,293.198C130.522,291.279 132.467,290.331 132.521,290.449Z" style="fill:rgb(242,127,90);fill-rule:nonzero;"/>
        <path d="M275.23,171.701C273.501,172.416 273.15,174.482 273.178,176.353C273.212,178.695 273.802,179.076 275.714,182.999C278.838,189.411 282.576,201.565 282.576,201.565C282.576,201.565 279.512,232.266 281.529,239.473C283.351,245.979 289.498,247.644 289.498,247.644L286.699,271.357L320.188,271.357C320.188,271.357 318.997,248.406 318.277,241.411C317.518,234.011 318.024,189.259 318.024,189.259L314.733,165.362L306.978,151.951C306.978,151.951 302.941,154.377 304.69,159.293C306.439,164.21 307.594,173.638 307.594,173.638L288.204,144.453C288.204,144.453 284.393,145.364 284.163,152.418C284.163,152.418 278.523,156.087 282.152,162.044C286.203,168.695 290.416,188.679 288.937,188.679L276.904,171.009L275.23,171.701Z" style="fill:rgb(247,151,120);fill-rule:nonzero;"/>
        <path d="M286.699,271.357C286.699,271.357 286.739,270.822 286.85,269.786C286.966,268.736 287.137,267.2 287.358,265.193C287.821,261.15 288.5,255.224 289.37,247.628L289.464,247.768C287.965,247.294 286.511,246.5 285.199,245.402C283.884,244.313 282.747,242.879 281.998,241.181C281.195,239.493 280.99,237.543 280.823,235.589C280.707,233.622 280.658,231.585 280.681,229.49C280.772,221.102 281.422,211.726 282.367,201.544L282.376,201.627C280.808,196.689 279.072,191.478 276.894,186.199C276.344,184.881 275.757,183.569 275.098,182.271C274.475,180.953 273.663,179.729 273.185,178.245C272.97,177.492 272.938,176.716 272.944,175.957C272.961,175.194 273.031,174.416 273.276,173.661C273.51,172.914 273.961,172.165 274.678,171.726C275.039,171.5 275.404,171.377 275.751,171.228L276.813,170.788L276.993,170.714L277.103,170.875C281.093,176.728 285.314,182.921 289.656,189.291L289.203,189.383C289.396,187.902 289.31,186.309 289.143,184.757C288.955,183.198 288.707,181.63 288.342,180.076C287.647,176.958 286.672,173.861 285.54,170.788C284.438,167.693 283.049,164.701 281.697,161.61C281.057,160.038 280.72,158.236 281.155,156.518C281.552,154.798 282.585,153.272 284.02,152.201L283.905,152.387C284.097,150.907 284.382,149.366 284.974,147.877C285.269,147.135 285.649,146.41 286.147,145.751C286.66,145.102 287.245,144.488 288.149,144.198L288.313,144.146L288.421,144.309C288.491,144.415 288.568,144.531 288.646,144.647C295.205,154.523 301.616,164.175 307.807,173.496L307.341,173.668C306.827,169.779 306.208,165.937 305.294,162.234C305.062,161.31 304.803,160.397 304.498,159.508C304.193,158.591 303.967,157.615 304.016,156.629C304.091,154.637 305.231,152.821 306.85,151.739L307.06,151.599L307.19,151.827C309.839,156.412 312.421,160.883 314.939,165.243L314.963,165.284L314.969,165.33C316.113,173.689 317.206,181.665 318.241,189.229L318.243,189.245L318.243,189.261C318.104,201.639 318.031,212.964 318.047,222.987C318.059,227.999 318.085,232.686 318.201,237.012C318.263,239.178 318.384,241.235 318.584,243.216C318.75,245.195 318.873,247.082 318.994,248.873C319.457,256.035 319.742,261.657 319.938,265.487C320.027,267.392 320.096,268.856 320.143,269.858C320.185,270.846 320.188,271.357 320.188,271.357C320.188,271.357 320.139,270.849 320.075,269.861C320.014,268.86 319.923,267.398 319.806,265.494C319.567,261.667 319.242,256.047 318.742,248.889C318.611,247.101 318.479,245.214 318.305,243.24C318.097,241.274 317.964,239.184 317.895,237.021C317.761,232.689 317.719,228.002 317.691,222.989C317.644,212.962 317.69,201.637 317.806,189.256L317.808,189.288C316.761,181.727 315.655,173.752 314.498,165.395L314.527,165.481C312.005,161.125 309.417,156.656 306.764,152.074L307.104,152.162C305.646,153.142 304.568,154.838 304.514,156.651C304.471,157.561 304.677,158.458 304.971,159.343C305.284,160.252 305.547,161.177 305.782,162.111C306.708,165.85 307.329,169.694 307.848,173.606L307.992,174.699L307.381,173.779C301.188,164.46 294.774,154.809 288.212,144.935C288.135,144.819 288.058,144.704 287.987,144.597L288.258,144.708C287.623,144.909 287.007,145.474 286.56,146.067C286.102,146.676 285.738,147.36 285.457,148.071C284.891,149.495 284.609,150.999 284.422,152.448L284.407,152.56L284.308,152.634C283.015,153.598 282.015,155.054 281.661,156.636C281.256,158.226 281.564,159.91 282.177,161.415C283.51,164.466 284.919,167.509 286.021,170.61C287.158,173.702 288.139,176.818 288.838,179.966C289.205,181.535 289.456,183.121 289.644,184.703C289.81,186.293 289.908,187.865 289.694,189.481L289.611,190.115L289.242,189.573C284.907,183.199 280.691,177.001 276.708,171.143L276.996,171.23C276.312,171.532 275.522,171.792 274.931,172.127C274.332,172.491 273.941,173.123 273.725,173.807C273.5,174.492 273.429,175.232 273.413,175.965C273.405,176.702 273.437,177.435 273.632,178.118C274.062,179.475 274.884,180.749 275.507,182.065C276.168,183.372 276.761,184.702 277.311,186.025C279.49,191.334 281.215,196.548 282.777,201.503L282.789,201.543L282.785,201.586C281.819,211.753 281.146,221.126 281.027,229.492C280.998,231.584 281.04,233.611 281.148,235.567C281.309,237.512 281.5,239.41 282.275,241.057C283.726,244.398 286.676,246.576 289.531,247.519L289.639,247.554L289.626,247.659C288.704,255.248 287.984,261.17 287.493,265.21C287.242,267.212 287.05,268.746 286.919,269.793C286.785,270.828 286.699,271.357 286.699,271.357Z" style="fill:rgb(242,127,90);fill-rule:nonzero;"/>
        <path d="M301.5,191.249C301.464,191.253 301.337,190.663 301.137,189.594C300.954,188.522 300.627,186.981 300.196,185.088C299.301,181.313 297.762,176.148 295.246,170.782C292.752,165.405 289.873,160.853 287.703,157.63C286.619,156.016 285.719,154.724 285.091,153.835C284.467,152.943 284.135,152.439 284.163,152.418C284.192,152.396 284.579,152.858 285.254,153.714C285.933,154.567 286.881,155.829 288.007,157.421C290.261,160.599 293.206,165.147 295.719,170.563C298.252,175.968 299.748,181.194 300.556,185.008C300.942,186.921 301.215,188.477 301.337,189.562C301.476,190.644 301.535,191.244 301.5,191.249Z" style="fill:rgb(242,127,90);fill-rule:nonzero;"/>
        <path d="M311.901,183.796C311.769,183.852 310.672,181.525 309.453,178.6C308.233,175.674 307.353,173.258 307.485,173.203C307.618,173.147 308.714,175.474 309.934,178.4C311.152,181.325 312.033,183.741 311.901,183.796Z" style="fill:rgb(242,127,90);fill-rule:nonzero;"/>
        <path d="M284.025,261.54C278.151,313.412 270.496,368.632 261.698,426.001L329.869,426.001C342.686,397.621 334.848,372.859 331.43,337.566L320.188,257.437L284.025,261.54Z" style="fill:rgb(241,91,102);fill-rule:nonzero;"/>
        <path d="M261.698,426.001C261.689,426 261.696,425.884 261.722,425.663C261.752,425.414 261.793,425.088 261.844,424.678C261.967,423.782 262.142,422.516 262.363,420.902C262.843,417.592 263.529,412.861 264.376,407.028C266.102,395.289 268.477,379.125 271.101,361.27C273.672,343.389 275.846,327.181 277.278,315.433C278.006,309.56 278.559,304.802 278.932,301.514C279.121,299.896 279.27,298.627 279.375,297.729C279.429,297.319 279.471,296.995 279.504,296.746C279.535,296.525 279.556,296.412 279.565,296.413C279.574,296.414 279.571,296.528 279.557,296.752C279.537,297.002 279.512,297.328 279.479,297.74C279.397,298.64 279.281,299.913 279.134,301.536C278.822,304.832 278.325,309.596 277.645,315.476C276.305,327.24 274.188,343.46 271.616,361.344C269.042,379.222 266.557,395.385 264.74,407.083C263.825,412.906 263.083,417.628 262.563,420.932C262.3,422.541 262.094,423.801 261.948,424.694C261.876,425.101 261.818,425.423 261.773,425.67C261.732,425.89 261.707,426.002 261.698,426.001Z" style="fill:rgb(12,43,52);fill-rule:nonzero;"/>
        <path d="M409.401,425.546L215.006,425.546L240.09,289.116C240.979,284.276 245.198,280.762 250.119,280.762L424.79,280.762C431.19,280.762 436.009,286.59 434.805,292.877L409.401,425.546Z" style="fill:rgb(51,88,99);fill-rule:nonzero;"/>
        <path d="M215.006,425.546L141.274,425.546L141.57,425.325C148.147,420.392 156.088,417.613 164.306,417.369L217.034,415.818L215.006,425.546Z" style="fill:rgb(51,88,99);fill-rule:nonzero;"/>
        <path d="M261.698,280.949C261.69,280.999 261.157,280.848 260.126,280.841C259.104,280.834 257.558,281.043 255.808,281.913C254.07,282.769 252.131,284.304 250.627,286.626C249.124,288.959 248.105,292.002 247.452,295.445C246.818,298.895 246.26,302.728 245.571,306.815C244.868,310.902 244.118,315.269 243.259,319.851C241.565,329.021 239.559,339.074 237.376,349.608C232.986,370.679 228.923,389.728 226.267,403.574C224.929,410.495 223.898,416.105 223.2,419.984C222.854,421.883 222.583,423.377 222.387,424.451C222.293,424.926 222.217,425.308 222.158,425.61C222.102,425.87 222.067,426.002 222.055,426C222.042,425.999 222.053,425.862 222.084,425.597C222.125,425.293 222.178,424.908 222.243,424.427C222.406,423.349 222.633,421.846 222.921,419.937C223.534,416.042 224.489,410.415 225.762,403.479C228.292,389.602 232.276,370.527 236.665,349.461C238.847,338.929 240.873,328.885 242.602,319.728C243.479,315.152 244.249,310.792 244.978,306.713C245.692,302.629 246.276,298.823 246.949,295.344C247.641,291.877 248.712,288.776 250.286,286.405C251.869,284.034 253.884,282.499 255.686,281.658C257.497,280.806 259.091,280.64 260.129,280.695C261.178,280.75 261.698,280.949 261.698,280.949Z" style="fill:rgb(12,43,52);fill-rule:nonzero;"/>
        <path d="M343.796,350.084C343.796,355.275 339.588,359.483 334.397,359.483C329.206,359.483 324.998,355.275 324.998,350.084C324.998,344.894 329.206,340.686 334.397,340.686C339.588,340.686 343.796,344.894 343.796,350.084Z" style="fill:rgb(240,240,240);fill-rule:nonzero;"/>
        <path d="M457.239,425.705C457.239,425.848 354.874,425.964 228.63,425.964C102.343,425.964 0,425.848 0,425.705C0,425.56 102.343,425.444 228.63,425.444C354.874,425.444 457.239,425.56 457.239,425.705Z" style="fill:rgb(12,43,52);fill-rule:nonzero;"/>
        <path d="M186.196,67.504L183.526,42.394L170.717,45.285L159.681,25.789L166.558,52.149L179.55,49.17L186.196,67.504Z" style="fill:rgb(241,91,102);fill-rule:nonzero;"/>
        <path d="M180.982,72.25L169.08,60L163.469,66.886L149.458,61.116L164.121,72.275L169.792,65.267L180.982,72.25Z" style="fill:rgb(241,91,102);fill-rule:nonzero;"/>
        <path d="M309.623,83.08L320.439,63.399L329.953,70.171L345.703,57.969L331.007,77.23L321.373,70.324L309.623,83.08Z" style="fill:rgb(241,91,102);fill-rule:nonzero;"/>
        <path d="M329.474,94.308L340.658,89.537L342.449,95.601L353.236,95.665L340.539,98.961L338.742,92.799L329.474,94.308Z" style="fill:rgb(241,91,102);fill-rule:nonzero;"/>
        <path d="M251.852,17.847C251.852,17.847 252.301,17.56 253.197,17.016C254.105,16.497 255.471,15.729 257.366,14.925C261.114,13.327 267.095,11.363 275.059,11.664C276.048,11.711 277.068,11.772 278.106,11.913C279.147,12.026 280.218,12.194 281.286,12.493C282.352,12.79 283.43,13.185 284.44,13.776C285.438,14.373 286.4,15.163 287.012,16.248C287.653,17.31 287.853,18.642 287.631,19.911C287.385,21.188 286.666,22.348 285.779,23.336C283.951,25.294 281.451,26.669 278.754,27.59C273.396,29.562 267.212,30.621 260.681,30.176C254.17,29.75 247.286,27.888 240.984,24.132L240.842,24.047L240.929,23.905C243.335,19.972 246.997,16.687 251.312,14.369C255.63,12.044 260.592,10.613 265.774,10.227C270.961,9.836 276.33,10.355 281.673,11.512C284.348,12.086 287.027,12.797 289.703,13.625C292.374,14.451 295.098,15.319 297.658,16.67C300.205,18.001 302.587,19.925 304.066,22.534C304.794,23.829 305.325,25.27 305.459,26.783C305.617,28.293 305.324,29.841 304.725,31.243C303.473,34.08 300.918,36.093 298.225,37.523C295.502,38.976 292.497,39.885 289.466,40.594C277.341,43.568 264.092,44.053 250.927,41.575C250.101,41.439 249.285,41.24 248.463,41.069C247.64,40.902 246.82,40.708 246.004,40.496C244.367,40.105 242.715,39.661 241.132,39.002C239.548,38.36 238.009,37.528 236.681,36.393C235.363,35.267 234.281,33.725 233.99,31.946C233.661,30.184 234.133,28.319 235.108,26.838C236.07,25.335 237.41,24.134 238.841,23.108C240.281,22.081 241.859,21.269 243.455,20.525C244.242,20.125 245.056,19.781 245.871,19.438C246.682,19.082 247.502,18.748 248.341,18.453C254.989,15.961 262.156,14.57 269.438,14.459C273.078,14.398 276.745,14.647 280.383,15.222C281.294,15.357 282.203,15.51 283.104,15.714C284.01,15.901 284.917,16.081 285.81,16.331C287.605,16.769 289.404,17.292 291.121,18.048C292.838,18.79 294.498,19.734 295.924,20.996C297.345,22.245 298.508,23.894 298.95,25.789L299.097,26.499L299.155,27.223C299.222,27.705 299.144,28.189 299.124,28.673C298.977,29.627 298.736,30.582 298.286,31.44C297.456,33.196 296.117,34.638 294.668,35.88C293.207,37.125 291.573,38.146 289.87,39.025C289.021,39.473 288.141,39.857 287.263,40.23C286.388,40.617 285.499,40.973 284.604,41.317C281.033,42.709 277.343,43.847 273.572,44.707C266.037,46.453 258.183,47.117 250.336,46.624C246.413,46.376 242.429,45.557 238.907,43.619C237.171,42.639 235.543,41.341 234.44,39.618C233.353,37.895 232.843,35.818 232.999,33.779C233.135,32.104 233.749,30.5 234.624,29.099C235.5,27.691 236.611,26.453 237.838,25.369C240.295,23.194 243.188,21.586 246.171,20.355C252.123,17.821 258.462,16.324 264.825,15.858C268.008,15.624 271.197,15.646 274.354,15.924C275.932,16.063 277.502,16.262 279.057,16.534C280.609,16.788 282.173,17.112 283.666,17.645C285.156,18.172 286.618,18.828 287.91,19.765C289.198,20.686 290.356,21.886 290.968,23.394C291.616,24.878 291.638,26.603 291.121,28.117C290.611,29.64 289.643,30.961 288.47,32.01C286.073,34.13 282.97,35.016 280.023,35.735C277.049,36.441 274.092,37.143 271.132,37.795C265.219,39.101 259.295,40.202 253.356,40.672C247.427,41.168 241.473,40.952 235.741,39.822C230.021,38.683 224.521,36.555 219.797,33.321L219.54,33.145L219.773,32.939C227.997,25.701 238.244,21.368 248.54,19.886C258.854,18.392 269.308,19.737 278.373,23.737C279.483,24.295 280.557,24.942 281.493,25.77C282.434,26.581 283.238,27.6 283.656,28.799C284.055,30.005 283.99,31.344 283.481,32.496C282.959,33.644 282.087,34.568 281.12,35.302C279.168,36.787 276.868,37.575 274.643,38.326C272.393,39.046 270.104,39.586 267.81,39.95C263.213,40.653 258.594,40.661 254.146,39.955C253.041,39.749 251.897,39.434 250.989,38.678C250.066,37.941 249.614,36.679 249.837,35.526C250.085,34.376 250.792,33.436 251.588,32.671C252.386,31.895 253.315,31.285 254.286,30.781C262.208,27.216 270.74,26.096 278.653,26.961C280.632,27.183 282.597,27.549 284.42,28.289C286.235,29.013 287.923,30.147 289.061,31.721C290.203,33.267 290.87,35.197 290.652,37.102C290.443,39.026 289.233,40.636 287.854,41.797C286.465,42.992 284.889,43.852 283.364,44.727C281.81,45.553 280.246,46.318 278.648,46.937C275.467,48.207 272.234,49.076 269.049,49.59C262.67,50.619 256.505,50.197 251.058,48.807L250.872,48.759L250.984,48.606C253.632,44.966 257.285,42.499 260.991,41.136C264.712,39.775 268.53,39.458 271.913,40.061C273.606,40.331 275.215,40.882 276.529,41.792C277.18,42.253 277.747,42.813 278.163,43.459C278.561,44.112 278.833,44.835 278.899,45.567C279.062,47.041 278.522,48.419 277.8,49.503C277.08,50.609 276.151,51.466 275.222,52.173C273.335,53.596 271.316,54.197 269.69,54.86C268.037,55.488 266.673,56.074 265.639,56.663C264.606,57.257 263.897,57.819 263.464,58.236C263.236,58.434 263.094,58.612 262.984,58.716C262.878,58.824 262.822,58.876 262.822,58.876C262.822,58.876 263.011,58.636 263.439,58.211C263.866,57.784 264.573,57.209 265.604,56.603C266.638,56.001 268.003,55.402 269.653,54.764C271.278,54.09 273.284,53.479 275.14,52.064C276.056,51.361 276.971,50.509 277.673,49.42C278.379,48.351 278.895,47.006 278.731,45.585C278.666,44.88 278.4,44.183 278.015,43.554C277.61,42.931 277.06,42.39 276.424,41.943C275.139,41.059 273.555,40.519 271.88,40.258C268.529,39.67 264.75,39.995 261.07,41.352C257.405,42.709 253.799,45.16 251.194,48.757L251.121,48.556C256.538,49.925 262.667,50.332 269.002,49.298C272.166,48.781 275.375,47.912 278.531,46.645C280.117,46.028 281.667,45.266 283.209,44.444C284.721,43.573 286.288,42.712 287.638,41.546C288.983,40.409 290.122,38.872 290.315,37.062C290.52,35.266 289.884,33.414 288.78,31.928C287.686,30.417 286.062,29.325 284.287,28.619C282.507,27.9 280.573,27.54 278.613,27.323C270.77,26.472 262.28,27.605 254.464,31.133C253.526,31.62 252.626,32.214 251.863,32.957C251.101,33.689 250.448,34.582 250.23,35.602C250.041,36.612 250.428,37.71 251.251,38.369C252.061,39.046 253.144,39.356 254.219,39.553C258.605,40.245 263.195,40.235 267.744,39.533C270.018,39.171 272.283,38.634 274.511,37.919C276.72,37.173 278.985,36.387 280.857,34.957C281.786,34.251 282.603,33.374 283.081,32.319C283.546,31.262 283.603,30.042 283.239,28.939C282.855,27.84 282.105,26.881 281.201,26.103C280.305,25.311 279.26,24.681 278.175,24.137C269.225,20.196 258.829,18.856 248.606,20.348C238.395,21.825 228.236,26.13 220.095,33.303L220.072,32.921C224.735,36.109 230.171,38.212 235.838,39.338C241.518,40.455 247.421,40.669 253.317,40.173C259.221,39.704 265.121,38.605 271.023,37.3C273.975,36.649 276.935,35.945 279.903,35.24C282.835,34.527 285.857,33.645 288.129,31.629C289.246,30.63 290.161,29.373 290.635,27.954C291.113,26.545 291.093,24.963 290.493,23.591C289.932,22.2 288.847,21.066 287.61,20.184C286.373,19.286 284.951,18.646 283.497,18.132C282.037,17.611 280.517,17.296 278.97,17.043C277.429,16.773 275.872,16.577 274.309,16.439C271.181,16.164 268.019,16.143 264.863,16.375C258.556,16.838 252.272,18.323 246.374,20.834C243.415,22.056 240.589,23.631 238.184,25.758C235.82,27.854 233.783,30.623 233.519,33.824C233.372,35.748 233.853,37.709 234.879,39.337C235.921,40.966 237.478,42.214 239.162,43.165C242.578,45.047 246.502,45.863 250.369,46.105C258.165,46.595 265.969,45.937 273.456,44.203C277.203,43.349 280.869,42.219 284.418,40.836C285.307,40.495 286.189,40.141 287.059,39.757C287.935,39.385 288.801,39.008 289.635,38.568C291.31,37.704 292.914,36.701 294.337,35.488C295.749,34.279 297.04,32.883 297.825,31.218C298.254,30.403 298.476,29.506 298.617,28.612C298.633,28.159 298.71,27.706 298.646,27.252L298.592,26.574L298.454,25.908C298.04,24.134 296.951,22.579 295.585,21.375C294.216,20.164 292.601,19.24 290.919,18.513C289.237,17.771 287.472,17.257 285.686,16.821C284.801,16.573 283.9,16.394 283.004,16.209C282.11,16.006 281.208,15.854 280.305,15.719C276.696,15.148 273.059,14.9 269.447,14.959C262.222,15.066 255.109,16.443 248.513,18.913C247.681,19.205 246.866,19.535 246.063,19.889C245.253,20.228 244.445,20.57 243.665,20.966C242.076,21.706 240.529,22.501 239.122,23.504C237.725,24.505 236.428,25.672 235.516,27.098C234.59,28.505 234.16,30.225 234.464,31.864C234.731,33.51 235.732,34.95 236.993,36.032C238.264,37.119 239.76,37.933 241.312,38.563C242.863,39.209 244.482,39.646 246.117,40.038C246.93,40.25 247.744,40.443 248.563,40.61C249.382,40.78 250.192,40.979 251.015,41.114C264.109,43.588 277.294,43.115 289.362,40.166C292.388,39.46 295.342,38.566 298.022,37.14C300.671,35.738 303.143,33.775 304.335,31.072C304.908,29.735 305.189,28.262 305.04,26.823C304.915,25.379 304.406,23.993 303.704,22.74C302.275,20.216 299.971,18.344 297.467,17.03C294.953,15.7 292.251,14.833 289.586,14.006C286.919,13.178 284.252,12.468 281.591,11.894C276.276,10.735 270.945,10.216 265.803,10.596C260.667,10.973 255.753,12.383 251.478,14.677C247.207,16.964 243.587,20.203 241.208,24.077L241.153,23.85C247.398,27.586 254.231,29.448 260.699,29.883C267.188,30.337 273.336,29.297 278.665,27.349C281.351,26.439 283.807,25.088 285.604,23.175C286.473,22.212 287.169,21.089 287.407,19.867C287.622,18.655 287.437,17.377 286.822,16.356C286.24,15.313 285.31,14.542 284.334,13.956C283.347,13.374 282.286,12.98 281.233,12.684C280.179,12.385 279.121,12.215 278.084,12.099C277.051,11.955 276.035,11.892 275.051,11.841C267.123,11.514 261.153,13.442 257.402,15.009C255.505,15.798 254.135,16.55 253.22,17.056C252.317,17.586 251.852,17.847 251.852,17.847Z" style="fill:rgb(12,43,52);fill-rule:nonzero;"/>
    </g>
</svg>
